<?xml version="1.0" standalone="no"?>
<!DOCTYPE svg PUBLIC "-//W3C//DTD SVG 1.1//EN" "http://www.w3.org/Graphics/SVG/1.1/DTD/svg11.dtd" >
<svg xmlns="http://www.w3.org/2000/svg" xmlns:xlink="http://www.w3.org/1999/xlink" version="1.1">
<metadata>
Created by FontForge 20161013 at Tue May 30 14:18:39 2017
 By ,,,
Copyright (c) 2017 Design210. All rights reserved.
Tel : 02-376-0210 / www.design210.com
webmaster@design210.com
</metadata>
<defs>
<font id="TTGolmokgilL" horiz-adv-x="920" >
  <font-face 
    font-family="210 Golmokgil L"
    font-weight="400"
    font-stretch="normal"
    units-per-em="1000"
    panose-1="2 2 6 3 2 1 1 2 1 1"
    ascent="800"
    descent="-200"
    x-height="421"
    cap-height="668"
    bbox="-53 -241 940 800"
    underline-thickness="25"
    underline-position="-181"
    unicode-range="U+0020-FFE6"
  />
<missing-glyph horiz-adv-x="900" 
d="M50 -150v900h800v-900h-800zM115 -114h670l-335 385zM424 301l-334 384v-768zM783 714h-667l333 -384zM476 300l334 -384v770z" />
    <glyph glyph-name=".notdef" horiz-adv-x="900" 
d="M50 -150v900h800v-900h-800zM115 -114h670l-335 385zM424 301l-334 384v-768zM783 714h-667l333 -384zM476 300l334 -384v770z" />
    <glyph glyph-name="glyph1" horiz-adv-x="0" 
 />
    <glyph glyph-name="glyph2" horiz-adv-x="1024" 
 />
    <glyph glyph-name="space" unicode=" " horiz-adv-x="280" 
 />
    <glyph glyph-name="exclam" unicode="!" horiz-adv-x="292" 
d="M189 -5v-85h-90v85h90zM98 715h91v-642h-91v642z" />
    <glyph glyph-name="quotedbl" unicode="&#x22;" horiz-adv-x="400" 
d="M72 751h84v-232h-84v232zM243 751h84v-232h-84v232z" />
    <glyph glyph-name="numbersign" unicode="#" horiz-adv-x="702" 
d="M311 717l-31 -221h188l32 221h85l-31 -221h121v-80h-132l-27 -191h125v-80h-136l-30 -221h-90l32 221h-186l-30 -221h-90l32 221h-118v80h129l28 191h-123v80h135l32 221h85zM242 225h186l28 191h-187z" />
    <glyph glyph-name="dollar" unicode="$" horiz-adv-x="620" 
d="M270 -47q-67 4 -110.5 23t-69 47.5t-35.5 64.5t-10 76v13h90v-10q0 -68 31.5 -99t103.5 -38v264l-32 12q-43 15 -78.5 34t-61 42.5t-39.5 52.5t-14 64q0 82 55.5 129.5t169.5 52.5v76h79v-77q57 -4 97 -18t64.5 -36.5t35.5 -53t11 -67.5v-16h-90v11q0 45 -27.5 70.5
t-90.5 32.5v-252l63 -23q35 -13 65.5 -29t53.5 -37t36 -47t13 -58q0 -91 -54.5 -143.5t-176.5 -59.5v-70h-79v69zM349 267v-237q71 4 106 29.5t35 86.5q0 31 -10.5 50t-28.5 31t-41.5 19.5t-49.5 16.5zM135 499q0 -28 12 -47.5t31 -33t43 -23t49 -17.5v226q-30 -1 -55 -6
t-42.5 -17t-27.5 -32t-10 -50z" />
    <glyph glyph-name="percent" unicode="%" horiz-adv-x="888" 
d="M124 497q0 -86 19.5 -125t58.5 -39t58.5 39t19.5 125q0 85 -19.5 123.5t-58.5 38.5t-58.5 -38.5t-19.5 -123.5zM665 720l-364 -834h-86l364 834h86zM47 496q0 61 11 102.5t31 67.5t48.5 37.5t64.5 11.5t64.5 -11.5t48.5 -37.5t31 -67.5t11 -102.5t-11 -102.5t-31 -67.5
t-48.5 -37.5t-64.5 -11.5t-64.5 11.5t-48.5 37.5t-31 67.5t-11 102.5zM607 114q0 -86 19.5 -125t58.5 -39t58.5 39t19.5 125q0 85 -19.5 123.5t-58.5 38.5t-58.5 -38.5t-19.5 -123.5zM530 113q0 61 11 102.5t31 67.5t48.5 37.5t64.5 11.5t64.5 -11.5t48.5 -37.5t31 -67.5
t11 -102.5t-11 -102.5t-31 -67.5t-48.5 -37.5t-64.5 -11.5t-64.5 11.5t-48.5 37.5t-31 67.5t-11 102.5z" />
    <glyph glyph-name="ampersand" unicode="&#x26;" horiz-adv-x="737" 
d="M548 545q0 -40 -14 -72t-39.5 -58.5t-62 -48.5t-81.5 -42l193 -226q25 42 40 89t22 96h83q-10 -62 -32.5 -126.5t-60.5 -119.5l116 -135h-85l-74 82q-5 -5 -10 -9.5t-10 -9.5q-38 -33 -93 -53.5t-115 -20.5q-63 0 -115 14.5t-88.5 43t-56.5 70.5t-20 98q0 45 16.5 81
t42.5 64t58.5 49t65.5 36q-39 47 -60.5 94.5t-21.5 97.5q0 46 16 79.5t44 55.5t66 32t83 10q42 0 77 -12t61 -34t40.5 -54t14.5 -71zM322 -36q57 0 101.5 21t78.5 56l-226 252q-65 -29 -104.5 -67t-39.5 -99q0 -74 45.5 -118.5t144.5 -44.5zM232 536q0 -44 15.5 -76.5
t47.5 -69.5l10 -12q33 13 62 29t51.5 36.5t35.5 44.5t13 54q0 55 -30.5 82t-82.5 27q-56 0 -89 -25.5t-33 -89.5z" />
    <glyph glyph-name="quotesingle" unicode="'" horiz-adv-x="250" 
d="M83 751h84v-232h-84v232z" />
    <glyph glyph-name="parenleft" unicode="(" horiz-adv-x="378" 
d="M298 751q-59 -102 -84.5 -205t-25.5 -216q0 -118 28.5 -224.5t85.5 -209.5h-64q-68 92 -104 200.5t-36 230.5q0 244 138 424h62z" />
    <glyph glyph-name="parenright" unicode=")" horiz-adv-x="378" 
d="M140 751q138 -180 138 -424q0 -122 -36 -230.5t-104 -200.5h-64q57 103 85.5 209.5t28.5 224.5q0 113 -25.5 216t-84.5 205h62z" />
    <glyph glyph-name="asterisk" unicode="*" horiz-adv-x="495" 
d="M282 364l133 54l23 -57l-135 -55l87 -116l-52 -39l-87 117l-89 -117l-54 40l84 113l-134 46l21 63l136 -49v147h67v-147z" />
    <glyph glyph-name="plus" unicode="+" horiz-adv-x="667" 
d="M378 356h222v-80h-222v-224h-91v224h-222v80h222v222h91v-222z" />
    <glyph glyph-name="comma" unicode="," horiz-adv-x="281" 
d="M199 36v-122q0 -18 -4 -34t-16 -28.5t-32.5 -20.5t-53.5 -9v28q16 1 28.5 4t20.5 12t12.5 27t5.5 48h-59v95h98z" />
    <glyph glyph-name="hyphen" unicode="-" horiz-adv-x="540" 
d="M476 356v-80h-411v80h411z" />
    <glyph glyph-name="period" unicode="." horiz-adv-x="288" 
d="M198 31v-95h-98v95h98z" />
    <glyph glyph-name="slash" unicode="/" horiz-adv-x="526" 
d="M439 739l-264 -834h-85l264 834h85z" />
    <glyph glyph-name="zero" unicode="0" horiz-adv-x="562" 
d="M132 303q0 -88 7.5 -151.5t25.5 -104t46.5 -60t70.5 -19.5q41 0 69.5 19.5t46 60t25 104t7.5 151.5t-7.5 151.5t-25 104t-46 60t-69.5 19.5q-42 0 -70.5 -19.5t-46.5 -60t-25.5 -104t-7.5 -151.5zM520 303q0 -110 -14.5 -188t-44 -128t-74.5 -73t-106 -23t-106 23
t-74.5 73t-44 128t-14.5 188t14.5 188t44 128t74.5 73t106 23t106 -23t74.5 -73t44 -128t14.5 -188z" />
    <glyph glyph-name="one" unicode="1" horiz-adv-x="433" 
d="M221 620l-169 -58v65l214 79h45v-800h-90v714z" />
    <glyph glyph-name="two" unicode="2" horiz-adv-x="562" 
d="M45 -94q5 100 39 166t84 108q42 35 86 69t86 69q21 18 37.5 36t27.5 39.5t16.5 48t5.5 61.5q0 64 -35 99.5t-107 35.5q-39 0 -66.5 -13t-44.5 -37t-26 -57.5t-10 -74.5h-90q3 58 16.5 106t41.5 82t72 52.5t108 18.5q65 0 109.5 -17t71.5 -46t38.5 -68t11.5 -84t-8 -79
t-22.5 -60.5t-35 -48t-46.5 -42.5l-167 -133q-25 -20 -53.5 -56.5t-42.5 -97.5h378v-77h-475z" />
    <glyph glyph-name="three" unicode="3" horiz-adv-x="585" 
d="M281 -109q-112 0 -172.5 66t-66.5 184h90q3 -37 13 -68.5t28 -55t45.5 -36.5t65.5 -13q81 0 122.5 43t41.5 118q0 45 -8.5 75t-27.5 48t-50 25.5t-75 7.5h-69v77h69q70 0 106.5 32.5t36.5 109.5q0 25 -6.5 49t-23 43t-44.5 30.5t-70 11.5q-71 0 -106 -40t-38 -125h-90
q5 115 64.5 178.5t177.5 63.5q42 0 83 -11t72.5 -35.5t51 -65t19.5 -98.5q0 -57 -28 -104.5t-87 -70.5q133 -35 133 -187q0 -56 -15 -102t-46.5 -79.5t-80 -52t-115.5 -18.5z" />
    <glyph glyph-name="four" unicode="4" horiz-adv-x="562" 
d="M468 63v-157h-90v157h-349v96l342 547h97v-566h89v-77h-89zM378 140v436l-258 -436h258z" />
    <glyph glyph-name="five" unicode="5" horiz-adv-x="572" 
d="M186 629l-23 -257q33 41 74.5 54t89.5 12q42 -1 78.5 -18t62.5 -51.5t41 -86.5t15 -122q0 -51 -16.5 -99.5t-48.5 -86t-78.5 -60.5t-106.5 -23q-45 0 -84.5 15t-70 44.5t-50 74.5t-23.5 105h90q7 -82 41 -122t106 -40q70 0 110.5 48t40.5 153q0 87 -36 139.5t-117 52.5
q-51 0 -87.5 -20t-53.5 -67l-77 2l39 430h384v-77h-300z" />
    <glyph glyph-name="six" unicode="6" horiz-adv-x="562" 
d="M421 502q-2 28 -10 53t-23 43.5t-37.5 29t-52.5 10.5q-48 0 -81 -26.5t-53 -71t-29.5 -102t-10.5 -119.5q42 55 87 77t93 22q54 0 95.5 -19t70.5 -53.5t44 -82.5t15 -105q0 -46 -12.5 -93.5t-41 -86t-75.5 -63t-115 -24.5q-52 0 -90.5 16t-66.5 43.5t-46 65t-29 79.5
t-15 87.5t-4 89.5q0 89 13 169.5t43.5 141t82 96.5t128.5 36q47 0 84 -15.5t63.5 -44t42 -67.5t20.5 -86h-90zM288 341q-32 0 -59 -11t-48 -29.5t-35.5 -42.5t-21.5 -51q4 -121 42 -180t125 -59q77 0 112.5 50t35.5 135q0 42 -8.5 76.5t-26.5 59.5t-46.5 38.5t-69.5 13.5z
" />
    <glyph glyph-name="seven" unicode="7" horiz-adv-x="562" 
d="M520 706v-91l-262 -709h-94l273 723h-396v77h479z" />
    <glyph glyph-name="eight" unicode="8" horiz-adv-x="590" 
d="M298 370q60 0 98 33t38 105q0 65 -35 97.5t-101 32.5t-105 -33t-39 -98q0 -36 11.5 -62t31 -42.5t45.5 -24.5t56 -8zM298 -32q80 0 124.5 42.5t44.5 120.5q0 75 -44.5 118.5t-124.5 43.5t-126 -43.5t-46 -118.5q0 -79 42 -121t130 -42zM298 -109q-59 0 -107.5 15t-83 45
t-53 74.5t-18.5 102.5q0 34 8 67t26.5 61.5t48.5 49.5t74 32q-69 25 -99 72.5t-30 101.5q0 49 16.5 87t47.5 63.5t74 39t96 13.5q106 0 166 -51.5t60 -150.5q0 -27 -6 -53t-20.5 -49t-37.5 -42t-57 -31q44 -11 73.5 -32t47.5 -49.5t25.5 -61.5t7.5 -67q0 -57 -19.5 -101.5
t-54.5 -74.5t-82.5 -45.5t-102.5 -15.5z" />
    <glyph glyph-name="nine" unicode="9" horiz-adv-x="562" 
d="M142 104q2 -28 10 -53t23 -43.5t37.5 -29t52.5 -10.5q48 0 81 26.5t53 71t29 102t11 119.5q-42 -55 -87 -77t-93 -22q-54 0 -95.5 19t-70.5 53.5t-44 82.5t-15 105q0 46 12.5 93.5t41 86t75.5 63t115 24.5q52 0 90.5 -16t66.5 -43.5t46 -65t29 -79.5t15 -87.5t4 -89.5
q0 -89 -13 -169.5t-43.5 -141.5t-82 -96.5t-128.5 -35.5q-47 0 -84 15.5t-63.5 44t-42.5 67.5t-20 86h90zM275 265q32 0 59 11t48 29.5t35.5 42.5t21.5 51q-4 121 -42 180t-125 59q-77 0 -112.5 -50t-35.5 -135q0 -42 8.5 -76.5t26.5 -59.5t46.5 -38.5t69.5 -13.5z" />
    <glyph glyph-name="colon" unicode=":" horiz-adv-x="292" 
d="M198 145v-95h-98v95h98zM198 537v-95h-98v95h98z" />
    <glyph glyph-name="semicolon" unicode=";" horiz-adv-x="281" 
d="M198 537v-95h-98v95h98zM199 153v-122q0 -18 -4 -34t-16 -28.5t-32.5 -20.5t-53.5 -9v28q16 1 28.5 4t20.5 12t12.5 27t5.5 48h-59v95h98z" />
    <glyph glyph-name="less" unicode="&#x3c;" horiz-adv-x="495" 
d="M440 680v-104l-266 -270l266 -270v-103l-368 371z" />
    <glyph glyph-name="equal" unicode="=" horiz-adv-x="608" 
d="M541 463v-80h-476v80h476zM541 246v-80h-476v80h476z" />
    <glyph glyph-name="greater" unicode="&#x3e;" horiz-adv-x="495" 
d="M423 304l-368 -371v103l266 270l-266 270v104z" />
    <glyph glyph-name="question" unicode="?" horiz-adv-x="542" 
d="M213 170q0 30 8 54.5t21.5 45t31 38.5t35.5 35t36 34.5t32 36.5t22.5 41.5t8.5 49.5q0 68 -28.5 105t-94.5 37q-73 0 -109.5 -51.5t-38.5 -137.5h-90q2 58 14.5 106.5t40.5 84t73 55.5t111 20q99 0 155.5 -55t56.5 -164q0 -30 -7 -55t-20.5 -47.5t-35 -44.5t-49.5 -46
q-35 -30 -59 -65t-24 -84v-106h-90v113zM305 -8v-85h-94v85h94z" />
    <glyph glyph-name="at" unicode="@" horiz-adv-x="913" 
d="M455 -109q-99 0 -175 26t-128.5 74t-79.5 116.5t-27 153.5q0 89 30 172.5t87 147.5t140.5 102.5t190.5 38.5q88 0 156.5 -27.5t115 -75.5t70.5 -112.5t24 -138.5q0 -70 -16.5 -123t-46 -89t-71 -54.5t-91.5 -18.5q-40 0 -68.5 19.5t-39.5 50.5q-28 -31 -60 -50.5
t-73 -19.5q-69 0 -106 42t-37 118q0 64 14.5 115.5t42 87.5t67 55.5t90.5 19.5q30 0 64.5 -15t53.5 -51l11 58h73l-63 -321q-5 -23 2 -40t29 -19q66 -4 105.5 54t39.5 176q0 67 -17.5 121t-53 92t-90 58.5t-128.5 20.5q-84 0 -151.5 -31.5t-115 -85t-73 -125t-25.5 -151.5
q0 -69 20 -125t61 -96t103 -61.5t146 -21.5q57 0 115 13t113 32v-62q-51 -23 -106.5 -36.5t-121.5 -13.5zM414 134q38 0 67.5 18t50.5 50l41 223q-17 19 -45 28.5t-64 9.5q-35 0 -60 -16t-41.5 -44.5t-24.5 -69.5t-8 -90q0 -54 24.5 -81.5t59.5 -27.5z" />
    <glyph glyph-name="A" unicode="A" horiz-adv-x="700" 
d="M516 89h-335l-59 -197h-90l254 823h126l255 -823h-90zM206 169h286l-144 469z" />
    <glyph glyph-name="B" unicode="B" horiz-adv-x="643" 
d="M346 715q121 0 173.5 -54.5t52.5 -157.5q0 -69 -33 -113.5t-90 -70.5q34 -5 62 -21t48 -40.5t30.5 -57t10.5 -69.5q0 -121 -52 -180t-174 -59h-294v823h266zM370 -28q37 0 63.5 5t43.5 20.5t25 45t8 78.5q0 81 -41.5 116.5t-122.5 35.5h-176v-301h200zM329 353
q72 0 112.5 32.5t40.5 107.5q0 79 -32.5 110.5t-108.5 31.5h-171v-282h159z" />
    <glyph glyph-name="C" unicode="C" horiz-adv-x="655" 
d="M72 300q0 128 14 210t46.5 129.5t86 66t131.5 18.5q71 0 117.5 -21.5t75 -56t42 -79t17.5 -89.5h-90q-10 89 -51 127.5t-113 38.5q-46 0 -81 -9t-58 -43.5t-35 -103.5t-12 -188q0 -117 11.5 -185t35 -103.5t59 -45.5t82.5 -10q37 0 66 9.5t49.5 31.5t33 58t17.5 89h90
q-5 -52 -17.5 -100.5t-40.5 -85.5t-75 -59.5t-121 -22.5q-81 0 -135 18.5t-86.5 66.5t-45.5 130t-13 209z" />
    <glyph glyph-name="D" unicode="D" horiz-adv-x="667" 
d="M321 715q92 0 149.5 -28.5t89 -82t42.5 -130t11 -172.5q0 -95 -11 -171t-42.5 -129t-88.5 -81.5t-150 -28.5h-241v823h241zM335 -28q54 0 90.5 14t58 51t30.5 101t9 164q0 98 -9.5 162.5t-32.5 102t-62 52.5t-97 15h-152v-662h165z" />
    <glyph glyph-name="E" unicode="E" horiz-adv-x="597" 
d="M80 715h470v-81h-380v-284h360v-80h-360v-297h389v-81h-479v823z" />
    <glyph glyph-name="F" unicode="F" horiz-adv-x="555" 
d="M72 715h449v-80h-359v-285h339v-80h-339v-378h-90v823z" />
    <glyph glyph-name="G" unicode="G" horiz-adv-x="667" 
d="M72 300q0 128 14 210t46.5 129.5t86 66t131.5 18.5q71 0 117.5 -21.5t75 -56t42 -79t17.5 -89.5h-90q-10 89 -51 127.5t-113 38.5q-46 0 -81 -9t-58 -43.5t-35 -103.5t-12 -188q0 -117 11.5 -185t35 -103.5t59 -45.5t82.5 -10q37 0 68 9t52.5 31t33.5 58t12 89v130h-182
v80h272v-210q0 -53 -12 -101t-41.5 -85t-78.5 -59t-122 -22q-81 0 -135 18.5t-86.5 66.5t-45.5 130t-13 209z" />
    <glyph glyph-name="H" unicode="H" horiz-adv-x="690" 
d="M615 -109h-91v388h-359v-388h-91v824h91v-356h359v356h91v-824z" />
    <glyph glyph-name="I" unicode="I" horiz-adv-x="257" 
d="M174 -109h-91v824h91v-824z" />
    <glyph glyph-name="J" unicode="J" horiz-adv-x="538" 
d="M119 86q0 -71 34 -100.5t98 -29.5q40 0 67.5 12t43.5 34t23 52t7 65v596h90v-597q0 -67 -19 -113t-51 -74.5t-74.5 -41.5t-88.5 -13q-59 0 -100.5 16.5t-68 45t-39 67t-12.5 81.5v65h90v-65z" />
    <glyph glyph-name="K" unicode="K" horiz-adv-x="620" 
d="M158 715v-381l318 381h105l-347 -413l350 -410h-106l-320 376v-376h-91v823h91z" />
    <glyph glyph-name="L" unicode="L" horiz-adv-x="526" 
d="M50 715h90v-744h365v-80h-455v824z" />
    <glyph glyph-name="M" unicode="M" horiz-adv-x="850" 
d="M220 715l203 -707l204 707h135v-823h-83v733l-206 -733h-99l-206 733v-733h-83v823h135z" />
    <glyph glyph-name="N" unicode="N" horiz-adv-x="700" 
d="M624 715v-818h-148l-316 730v-730h-83v818h136l328 -753v753h83z" />
    <glyph glyph-name="O" unicode="O" horiz-adv-x="679" 
d="M72 301q0 121 12.5 202.5t43.5 130.5t82 69.5t128 20.5t128.5 -20.5t82.5 -69.5t44 -130.5t13 -202.5q0 -122 -13 -204t-44 -131t-82.5 -69.5t-128.5 -20.5t-128 20.5t-82 69.5t-43.5 131t-12.5 204zM161 300q0 -107 9 -174t29.5 -104.5t54 -51.5t83.5 -14
q51 0 85.5 13.5t55.5 51t30 105t9 174.5t-9 174.5t-30 105t-55.5 51t-85.5 13.5q-50 0 -83.5 -14t-54 -51.5t-29.5 -105t-9 -173.5z" />
    <glyph glyph-name="P" unicode="P" horiz-adv-x="608" 
d="M335 715q118 0 173 -61t55 -179q0 -113 -55 -176.5t-173 -63.5h-173v-338h-87v818h260zM321 315q36 0 64.5 7t49 25t31 48.5t10.5 78.5q0 46 -10.5 77t-31 49.5t-49 26.5t-64.5 8h-159v-320h159z" />
    <glyph glyph-name="Q" unicode="Q" horiz-adv-x="679" 
d="M72 301q0 121 12.5 202.5t43.5 130.5t82 69.5t128 20.5t128.5 -20.5t82.5 -69.5t44 -130.5t13 -202.5q0 -87 -6.5 -153.5t-21 -114.5t-38.5 -79.5t-59 -49.5l28 -74h-70l-21 53q-34 -7 -80 -7q-77 0 -128 20.5t-82 69.5t-43.5 131t-12.5 204zM411 93l39 -106
q18 15 30.5 40.5t21 63t12 89t3.5 120.5q0 107 -9 174.5t-30 105t-55.5 51t-85.5 13.5q-50 0 -83.5 -14t-54 -51.5t-29.5 -105t-9 -173.5q0 -107 9 -174t29.5 -104.5t54 -51.5t83.5 -14q14 0 26.5 1t24.5 3l-52 133h75z" />
    <glyph glyph-name="R" unicode="R" horiz-adv-x="620" 
d="M335 715q118 0 173 -61t55 -179q0 -87 -32 -144.5t-99 -80.5l148 -358h-91l-139 343h-15h-183v-343h-87v823h270zM321 315q36 0 64.5 7t49 25t31 48.5t10.5 78.5q0 46 -10.5 77t-31 49.5t-49 26.5t-64.5 8h-169v-320h169z" />
    <glyph glyph-name="S" unicode="S" horiz-adv-x="620" 
d="M134 111q0 -69 43 -112t136 -43q85 0 129 37.5t44 107.5q0 37 -14.5 60.5t-38 40t-52 28t-55.5 23.5q-23 10 -46.5 20t-46.5 20q-39 18 -73.5 37.5t-60 44.5t-40 58t-14.5 79q0 48 15.5 87t47 66.5t79 43t111.5 15.5q134 0 194 -53.5t60 -150.5v-24h-90v23q0 65 -40 95
t-122 30q-75 0 -120 -33t-45 -99q0 -34 11.5 -57.5t32.5 -41t52 -31.5t70 -30q23 -9 49.5 -19.5t49.5 -20.5q33 -14 64.5 -31t56 -40t40 -54t15.5 -73q0 -119 -65 -178.5t-200 -59.5q-75 0 -126.5 18t-82.5 50t-44.5 75.5t-13.5 93.5v26h90v-28z" />
    <glyph glyph-name="T" unicode="T" horiz-adv-x="643" 
d="M619 710v-80h-249v-739h-91v739h-249v80h589z" />
    <glyph glyph-name="U" unicode="U" horiz-adv-x="690" 
d="M167 132q0 -46 13 -79t37 -54.5t56.5 -32t71.5 -10.5t71.5 10.5t55.5 32t36 54.5t13 79v583h90v-586q0 -68 -20 -116t-55 -78.5t-84 -44.5t-107 -14t-107 14t-85 44.5t-56 78.5t-20 116v586h90v-583z" />
    <glyph glyph-name="V" unicode="V" horiz-adv-x="700" 
d="M124 715l224 -744l227 744h93l-256 -823h-126l-255 823h93z" />
    <glyph glyph-name="W" unicode="W" horiz-adv-x="900" 
d="M510 715l146 -732l120 732h83l-140 -823h-131l-141 735l-135 -735h-131l-140 823h83l121 -736l135 736h130z" />
    <glyph glyph-name="X" unicode="X" horiz-adv-x="655" 
d="M273 305l-253 410h94l206 -334l206 334h94l-253 -410l253 -411h-93l-207 335l-207 -335h-93z" />
    <glyph glyph-name="Y" unicode="Y" horiz-adv-x="667" 
d="M287 246l-265 469h102l209 -378l209 378h102l-265 -469v-354h-92v354z" />
    <glyph glyph-name="Z" unicode="Z" horiz-adv-x="632" 
d="M44 -22l435 657h-425v80h518v-86l-435 -657h447v-80h-540v86z" />
    <glyph glyph-name="bracketleft" unicode="[" horiz-adv-x="360" 
d="M314 715v-72h-136v-681h136v-72h-219v825h219z" />
    <glyph glyph-name="backslash" unicode="\" horiz-adv-x="950" 
d="M126 358l-61 337h86l59 -337h136l66 337h117l71 -337h139l60 337h86l-62 -337h82v-78h-96l-66 -368h-129l-77 368h-128l-73 -368h-129l-67 368h-96v78h82zM676 -4l50 284h-110zM274 -5l56 285h-106zM425 358h96l-49 237z" />
    <glyph glyph-name="bracketright" unicode="]" horiz-adv-x="360" 
d="M274 715v-825h-219v72h136v681h-136v72h219z" />
    <glyph glyph-name="asciicircum" unicode="^" horiz-adv-x="450" 
d="M224 709l-78 -181h-83l110 232h102l110 -232h-82z" />
    <glyph glyph-name="underscore" unicode="_" horiz-adv-x="540" 
d="M475 -38v-80h-411v80h411z" />
    <glyph glyph-name="grave" unicode="`" horiz-adv-x="300" 
d="M164 751l83 -147h-75l-115 147h107z" />
    <glyph glyph-name="a" unicode="a" horiz-adv-x="573" 
d="M409 -108v67q-38 -42 -87 -62.5t-104 -20.5q-44 0 -74 11.5t-49.5 32t-28 48t-8.5 60.5q0 54 24 87.5t69.5 52t110.5 25t147 6.5v30q0 27 -4.5 48t-17.5 36t-36.5 23t-60.5 8q-48 0 -79.5 -19t-42.5 -70h-88q11 82 68 124.5t145 42.5q59 0 98.5 -16t63 -42t33 -61
t9.5 -72v-339h-88zM240 -62q40 0 85.5 20.5t83.5 57.5v123q-60 -1 -108.5 -4.5t-83 -14.5t-53 -33t-18.5 -59q0 -51 22.5 -70.5t71.5 -19.5z" />
    <glyph glyph-name="b" unicode="b" horiz-adv-x="597" 
d="M72 -108v823h88v-372q35 49 81.5 64t93.5 15q52 0 91.5 -22t66.5 -59.5t40.5 -87t13.5 -104.5q0 -58 -14 -108t-41 -86.5t-66.5 -57.5t-89.5 -21q-24 0 -48.5 3.5t-47.5 12t-43.5 23.5t-36.5 39v-62h-88zM459 149q0 103 -39 150t-116 47q-69 0 -107.5 -39.5t-38.5 -110.5
v-91q0 -151 147 -151q73 0 113.5 47t40.5 148z" />
    <glyph glyph-name="c" unicode="c" horiz-adv-x="573" 
d="M140 148q0 -58 8 -95.5t25 -59.5t43.5 -30.5t64.5 -8.5q41 0 67.5 8t42.5 24.5t22.5 41.5t7.5 60h88q-5 -99 -63 -155.5t-165 -56.5q-55 0 -97.5 12t-72 42.5t-44.5 83.5t-15 134q0 79 15.5 132t45 84.5t72 44.5t96.5 13q110 0 163.5 -54t63.5 -154h-88q-3 31 -10.5 55.5
t-22.5 41t-40.5 25t-65.5 8.5q-39 0 -66 -10t-43.5 -33.5t-24 -61t-7.5 -91.5z" />
    <glyph glyph-name="d" unicode="d" horiz-adv-x="608" 
d="M440 -108v62q-16 -24 -36.5 -39t-43.5 -23.5t-47.5 -12t-48.5 -3.5q-50 0 -89.5 21t-66.5 57.5t-41 86.5t-14 108q0 55 13.5 104.5t40.5 87t66.5 59.5t91.5 22q23 0 47 -3t46.5 -11.5t43 -24t38.5 -40.5v372h88v-823h-88zM141 149q0 -101 40.5 -148t113.5 -47
q147 0 147 151v91q0 71 -38.5 110.5t-107.5 39.5q-77 0 -116 -47t-39 -150z" />
    <glyph glyph-name="e" unicode="e" horiz-adv-x="573" 
d="M142 114q2 -85 36.5 -122.5t106.5 -37.5q74 0 108 20.5t39 72.5h88q-9 -79 -68.5 -125t-166.5 -46q-53 0 -95.5 15t-72.5 47.5t-46.5 84t-16.5 125.5q0 64 14 114.5t43 86t73 54.5t103 19q63 0 107.5 -21t72.5 -57t41 -84.5t13 -103.5v-42h-379zM287 344
q-67 0 -103.5 -36.5t-41.5 -115.5h291q-3 78 -37 115t-109 37z" />
    <glyph glyph-name="f" unicode="f" horiz-adv-x="374" 
d="M132 417v146q0 77 41 114.5t116 37.5h33.5t35.5 -2v-61q-8 1 -23 0.5t-22 -0.5q-50 0 -73 -17.5t-23 -71.5v-146h141v-80h-141v-445h-85v445h-112v80h112z" />
    <glyph glyph-name="g" unicode="g" horiz-adv-x="608" 
d="M533 405v-440q0 -41 -17 -70.5t-47 -49t-70.5 -29t-88.5 -9.5q-100 0 -154 33t-54 98v20h90v-19q0 -41 33 -55t85 -14q63 0 99 21.5t36 75.5v120q-12 -26 -31.5 -42.5t-43 -26t-49 -13t-48.5 -3.5q-50 0 -90 15t-68 41.5t-43 62t-15 77.5q0 46 11.5 87t37.5 71.5t66.5 48
t99.5 17.5q23 0 45 -2.5t43.5 -10t42.5 -21.5t42 -37v54h88zM289 358q-41 0 -69.5 -12.5t-46.5 -34t-25.5 -50.5t-6.5 -61q2 -69 40.5 -101.5t108.5 -32.5q34 0 62.5 10t49 26t32 37t11.5 42v54q0 26 -11.5 48.5t-32.5 39t-49.5 26t-62.5 9.5z" />
    <glyph glyph-name="h" unicode="h" horiz-adv-x="597" 
d="M155 715v-368q46 44 97.5 59t94.5 15q35 0 66 -11t54.5 -32t37.5 -52t14 -71v-363h-88v351q0 51 -25 81.5t-84 30.5q-41 0 -84.5 -20.5t-82.5 -54.5v-388h-88v823h88z" />
    <glyph glyph-name="i" unicode="i" horiz-adv-x="246" 
d="M164 698v-92h-84v92h84zM81 503h84v-612h-84v612z" />
    <glyph glyph-name="j" unicode="j" horiz-adv-x="260" 
d="M183 -34q0 -80 -32.5 -117t-107.5 -36q-18 0 -45.5 1.5t-50.5 4.5v56q17 -2 33.5 -3t31.5 -1q48 0 67 21t19 74v538h85v-538zM183 698v-92h-84v92h84z" />
    <glyph glyph-name="k" unicode="k" horiz-adv-x="550" 
d="M143 715v-530l267 237h97l-282 -258l312 -272h-101l-293 246v-246h-82v823h82z" />
    <glyph glyph-name="l" unicode="l" horiz-adv-x="257" 
d="M86 715h85v-823h-85v823z" />
    <glyph glyph-name="m" unicode="m" horiz-adv-x="854" 
d="M153 404v-68q41 50 87 67.5t83 17.5q46 0 86 -17t65 -64q37 49 76 65.5t84 16.5q34 0 63 -11t50.5 -32t34 -50.5t12.5 -66.5v-370h-90v358q0 63 -25.5 86.5t-72.5 21.5q-15 0 -32 -7.5t-33.5 -19t-31 -25.5t-24.5 -28v-386h-92v357q0 51 -19 78.5t-76 27.5q-36 0 -75 -26
t-70 -70v-367h-91v512h91z" />
    <glyph glyph-name="n" unicode="n" horiz-adv-x="597" 
d="M155 433v-58q47 45 97 60t95 15q34 0 65 -10.5t55 -31.5t38 -52t14 -72v-392h-89v380q0 54 -25.5 85t-82.5 31q-43 0 -88.5 -24t-78.5 -58v-414h-88v541h88z" />
    <glyph glyph-name="o" unicode="o" horiz-adv-x="573" 
d="M52 150q0 133 55 202t178 69t179.5 -69t56.5 -202q0 -134 -56.5 -202.5t-179.5 -68.5t-178 68.5t-55 202.5zM133 150q0 -55 7.5 -93.5t25 -63t46.5 -35.5t72 -11q45 0 75 11t48 35.5t25.5 63t7.5 93.5t-7.5 93.5t-25.5 63t-48 35.5t-75 11q-43 0 -72 -11t-46.5 -35.5
t-25 -63t-7.5 -93.5z" />
    <glyph glyph-name="p" unicode="p" horiz-adv-x="597" 
d="M72 -191v596h88v-56q17 24 37.5 38.5t43 22t46 10t46.5 2.5q58 0 99 -19t67 -52.5t37.5 -79t11.5 -98.5q0 -48 -14.5 -88.5t-42.5 -70t-68 -46t-91 -16.5q-23 0 -48.5 4t-49 13t-43 24t-31.5 38v-222h-88zM316 360q-35 0 -63.5 -10t-49 -28t-32 -42t-11.5 -52v-95
q0 -23 11.5 -44.5t31.5 -38t48.5 -26.5t63.5 -10q72 0 106.5 43.5t38.5 117.5q2 36 -4.5 69t-23.5 59t-45.5 41.5t-70.5 15.5z" />
    <glyph glyph-name="q" unicode="q" horiz-adv-x="597" 
d="M441 -191v222q-12 -23 -31.5 -38t-43 -24t-49 -13t-48.5 -4q-51 0 -91 16.5t-68 46t-42.5 70t-14.5 88.5q0 53 11.5 98.5t37.5 79t66.5 52.5t99.5 19q23 0 46.5 -2.5t46 -10t43 -22t37.5 -38.5v56h88v-596h-88zM285 360q-42 0 -70.5 -15.5t-45.5 -41.5t-23.5 -59
t-4.5 -69q4 -74 38.5 -117.5t106.5 -43.5q34 0 63 10t49 26.5t31.5 38t11.5 44.5v95q0 28 -11.5 52t-32 42t-49.5 28t-63 10z" />
    <glyph glyph-name="r" unicode="r" horiz-adv-x="421" 
d="M146 408v-77q57 53 114.5 72t103.5 19h13.5t14.5 -1v-68h-27q-57 0 -112.5 -23.5t-106.5 -64.5v-373h-88v516h88z" />
    <glyph glyph-name="s" unicode="s" horiz-adv-x="523" 
d="M129 33q0 -53 28.5 -73.5t95.5 -20.5q34 0 60 2t43.5 9t26.5 21t9 37q0 24 -9 38.5t-24 24t-35 15.5t-41 14l-83 29q-36 12 -64.5 25t-48.5 30.5t-31 41t-11 57.5q0 72 56 105t154 33q104 0 158 -29.5t54 -103.5v-23h-88v21q0 38 -30.5 53.5t-92.5 15.5q-56 0 -89.5 -14
t-33.5 -58q0 -26 12 -42.5t31 -27.5t41.5 -18.5t43.5 -15.5l82 -31q37 -14 63 -26.5t42.5 -28t24 -37.5t7.5 -54q0 -39 -19.5 -64t-51.5 -39t-73.5 -19t-85.5 -5q-112 0 -160.5 42.5t-48.5 116.5v19h88v-20z" />
    <glyph glyph-name="t" unicode="t" horiz-adv-x="398" 
d="M129 417v247h84v-247h145v-80h-145v-313q0 -27 4 -43.5t13.5 -25.5t26.5 -12.5t43 -3.5h30.5t33.5 2v-60q-23 -2 -50 -3t-46 -1q-77 -1 -108 33.5t-31 113.5v313h-109v80h109z" />
    <glyph glyph-name="u" unicode="u" horiz-adv-x="597" 
d="M431 -105v58q-47 -45 -97 -60t-95 -15q-34 0 -65 10.5t-55 31.5t-38 52t-14 72v378h89v-366q0 -54 25.5 -85t82.5 -31q43 0 88.5 24t78.5 58v400h88v-527h-88z" />
    <glyph glyph-name="v" unicode="v" horiz-adv-x="565" 
d="M101 422l181 -481l179 481h87l-199 -531h-135l-199 531h86z" />
    <glyph glyph-name="w" unicode="w" horiz-adv-x="760" 
d="M436 422l132 -476l102 476h81l-121 -531h-125l-116 445l-116 -445h-125l-120 531h81l101 -474l132 474h94z" />
    <glyph glyph-name="x" unicode="x" horiz-adv-x="573" 
d="M286 216l162 205h91l-207 -264l209 -264h-94l-161 205l-160 -205h-94l208 264l-206 264h91z" />
    <glyph glyph-name="y" unicode="y" horiz-adv-x="550" 
d="M526 422l-290 -613h-82l92 193l-219 420h81l177 -338l160 338h81z" />
    <glyph glyph-name="z" unicode="z" horiz-adv-x="515" 
d="M38 -40l338 390h-327v72h417v-71l-334 -387h345v-72h-439v68z" />
    <glyph glyph-name="braceleft" unicode="{" horiz-adv-x="405" 
d="M54 321q30 0 46.5 11t23.5 29t8 41t1 48v125q0 32 11 58t28 44t38 28t41 10h100v-63h-46q-26 0 -43 -7.5t-27 -21t-14 -34t-4 -45.5v-81q0 -41 -3 -67.5t-12.5 -44.5t-26 -30t-43.5 -22q50 -6 67.5 -44.5t17.5 -110.5v-85q0 -51 16.5 -78.5t68.5 -27.5h49v-63h-102
q-20 0 -41 9.5t-37.5 27.5t-27 43.5t-10.5 57.5v129q0 25 -0.5 48.5t-7 42t-23 29.5t-48.5 11v33v0z" />
    <glyph glyph-name="bar" unicode="|" horiz-adv-x="260" 
d="M86 751h85v-853h-85v853z" />
    <glyph glyph-name="braceright" unicode="}" horiz-adv-x="405" 
d="M351 288q-32 0 -48.5 -11t-23 -29.5t-7 -42t-0.5 -48.5v-129q0 -32 -10.5 -57.5t-27 -43.5t-37.5 -27.5t-41 -9.5h-102v63h49q52 0 68.5 27.5t16.5 78.5v85q0 72 17.5 110.5t67.5 44.5q-27 10 -43.5 22t-26 30t-12.5 44.5t-3 67.5v81q0 51 -18 79.5t-70 28.5h-46v63h100
q20 0 41 -10t38 -28t28 -44t11 -58v-125q0 -25 1 -48t8 -41t23.5 -29t46.5 -11v-33z" />
    <glyph glyph-name="asciitilde" unicode="~" horiz-adv-x="702" 
d="M86 305q12 19 30 36.5t38.5 30.5t43 20.5t44.5 7.5q18 0 36.5 -3.5t35.5 -14.5l94 -64q29 -18 58 -18q16 0 31.5 8t29.5 20t27 27t25 29l16 -34t14 -31q-14 -19 -30 -36.5t-34 -30.5t-38 -21t-43 -8q-16 0 -34 6t-32 14l-98 60q-16 9 -32 12t-30 3q-35 0 -63 -20.5
t-54 -58.5z" />
    <glyph glyph-name="exclamdown" unicode="&#xa1;" horiz-adv-x="240" 
d="M161 280l8 -494h-99l7 494h84zM164 488v-104h-93v104h93z" />
    <glyph glyph-name="currency" unicode="&#xa4;" horiz-adv-x="560" 
d="M278 539q36 0 66 -11t51 -29l74 76l45 -47l-79 -74q14 -20 24 -50.5t10 -67.5q0 -42 -10 -73.5t-24 -50.5l76 -77l-46 -45l-71 78q-23 -22 -55 -32.5t-63 -10.5q-32 0 -63.5 10.5t-51.5 29.5l-70 -75l-45 44l74 75q-15 20 -25.5 51.5t-10.5 69.5q0 40 11 71.5t27 52.5
l-76 74l45 47l72 -77q21 19 51 30t64 11zM277 467q-27 0 -48 -10.5t-36 -29t-23 -43.5t-8 -53q0 -35 11 -60.5t27.5 -42t37 -24t38.5 -7.5q20 0 40.5 7.5t37 24t27 42.5t10.5 64q0 25 -7.5 48.5t-22 42t-35.5 30t-49 11.5z" />
    <glyph glyph-name="section" unicode="&#xa7;" horiz-adv-x="450" 
d="M80 52q21 -14 54.5 -27t68.5 -13q49 0 78.5 19.5t29.5 52.5q0 35 -26 56.5t-78 41.5q-70 26 -104 65t-34 85q0 42 19.5 72t54.5 47q-74 50 -74 119q0 66 48 103.5t129 37.5q39 0 71.5 -9t52.5 -23l-22 -67q-14 10 -41 20t-63 10q-42 0 -67.5 -17t-25.5 -49
q0 -34 26.5 -53t78.5 -39q66 -26 101.5 -63.5t35.5 -94.5q0 -80 -66 -118q32 -23 49 -52t17 -68q0 -69 -50.5 -107.5t-141.5 -38.5q-43 0 -80 11.5t-64 29.5zM311 322q0 35 -24.5 55.5t-75.5 40.5q-27 -11 -43.5 -33t-16.5 -47q0 -34 26.5 -53t78.5 -39q2 -1 3.5 -1.5
t3.5 -1.5q23 13 35.5 35.5t12.5 43.5z" />
    <glyph glyph-name="dieresis" unicode="&#xa8;" horiz-adv-x="520" 
d="M202 556h-101v101h101v-101zM419 556h-101v101h101v-101z" />
    <glyph glyph-name="ordfeminine" unicode="&#xaa;" horiz-adv-x="380" 
d="M252 455q-18 -17 -44.5 -27t-55.5 -10q-27 0 -47.5 9.5t-33.5 24.5t-19.5 34.5t-6.5 39.5q0 65 56 100t146 37q0 9 -2.5 20.5t-9.5 22t-20 17.5t-35 7q-20 0 -45.5 -10.5t-45.5 -27.5l-22 63q24 20 56.5 30t65.5 10q42 0 68.5 -13t41.5 -34t21 -47.5t6 -54.5v-219h-74v28
zM167 484q13 0 28 4.5t27 13.5t20 22t8 29v46q-20 0 -41.5 -2.5t-40.5 -10t-31 -20t-12 -32.5q0 -26 11.5 -38t30.5 -12z" />
    <glyph glyph-name="uni00AD" unicode="&#xad;" horiz-adv-x="500" 
d="M95 337h310v-73h-310v73z" />
    <glyph glyph-name="degree" unicode="&#xb0;" horiz-adv-x="420" 
d="M330 621q0 -24 -9.5 -46t-26 -38.5t-38.5 -26t-46 -9.5t-46 9.5t-38.5 26t-26.5 38.5t-10 46t10 45.5t26.5 38t38.5 26.5t46 10t46 -10t38.5 -26.5t26 -38t9.5 -45.5zM271 621q0 26 -17.5 44t-43.5 18q-27 0 -44.5 -18t-17.5 -44t17.5 -44.5t44.5 -18.5q26 0 43.5 18.5
t17.5 44.5z" />
    <glyph glyph-name="plusminus" unicode="&#xb1;" horiz-adv-x="660" 
d="M98 -3v70h464v-70h-464zM368 622v-196h195v-73h-195v-197h-76v197h-195v73h195v196h76z" />
    <glyph glyph-name="uni00B2" unicode="&#xb2;" horiz-adv-x="340" 
d="M51 457q47 45 79 77t51.5 56.5t28.5 43.5t10 37q2 26 -12.5 42t-46.5 16q-20 0 -41 -13.5t-41 -35.5l-34 49q54 59 125 59q29 0 50.5 -10t35.5 -25.5t21 -35.5t7 -40q-2 -26 -11 -49.5t-25.5 -47.5t-41 -50.5t-57.5 -57.5h145v-59h-243v44v0z" />
    <glyph glyph-name="uni00B3" unicode="&#xb3;" horiz-adv-x="340" 
d="M73 491q16 -8 37.5 -16t44.5 -8q21 0 35.5 5.5t23.5 13.5t13 18.5t4 19.5q0 31 -26.5 44.5t-60.5 13.5h-30v54h30q13 0 26 3t23.5 9.5t17 16t6.5 23.5q0 17 -12 29.5t-44 12.5q-20 0 -40 -8.5t-34 -19.5l-26 48q49 39 109 39q29 0 50 -8t34.5 -21.5t20 -30t6.5 -34.5
q0 -23 -11.5 -46t-33.5 -37q26 -11 42 -33.5t16 -55.5q0 -23 -8.5 -43.5t-26 -36t-43.5 -25t-60 -9.5q-32 0 -58.5 8.5t-52.5 23.5l28 50v0z" />
    <glyph glyph-name="acute" unicode="&#xb4;" horiz-adv-x="400" 
d="M198 749h104l-117 -149h-76z" />
    <glyph glyph-name="paragraph" unicode="&#xb6;" horiz-adv-x="560" 
d="M263 259h-7q-30 0 -64 12.5t-62.5 38t-47 64t-18.5 89.5q0 41 12.5 83t44 75.5t85.5 54.5t138 21q81 0 119 -9v-757h-65v701h-68v-701h-67v328z" />
    <glyph glyph-name="periodcentered" unicode="&#xb7;" horiz-adv-x="300" 
d="M205 246h-111v111h111v-111z" />
    <glyph glyph-name="cedilla" unicode="&#xb8;" horiz-adv-x="300" 
d="M189 -12l-16 -36q28 -4 47.5 -25t19.5 -50q0 -21 -8.5 -35.5t-22.5 -23.5t-32.5 -13t-39.5 -4q-24 0 -44.5 5t-33.5 13l17 46q13 -8 29.5 -11t28.5 -3q37 0 37 29q0 20 -20.5 29t-55.5 12l35 81z" />
    <glyph glyph-name="uni00B9" unicode="&#xb9;" horiz-adv-x="340" 
d="M80 741l92 48h48v-372h-62v303l-52 -29z" />
    <glyph glyph-name="ordmasculine" unicode="&#xba;" horiz-adv-x="420" 
d="M212 798q37 0 68.5 -13.5t53.5 -38t34.5 -58.5t12.5 -75q0 -50 -15 -86.5t-40 -60t-56 -34.5t-63 -11q-35 0 -66 13t-53.5 37.5t-35.5 59t-13 76.5q0 44 14 79.5t37.5 60t55 38t66.5 13.5zM211 734q-24 0 -41.5 -10t-29 -27t-17.5 -40t-6 -48q0 -58 26.5 -91t65.5 -33
t66 33t27 94q0 22 -5 44t-16.5 39.5t-28.5 28t-41 10.5z" />
    <glyph glyph-name="onequarter" unicode="&#xbc;" horiz-adv-x="720" 
d="M46 599l92 48h48v-372h-62v303l-52 -29zM409 47v45l154 263h66v-251h44v-57h-44v-67h-61v67h-159zM484 104h84v143zM159 -40h-59l433 691h59z" />
    <glyph glyph-name="onehalf" unicode="&#xbd;" horiz-adv-x="720" 
d="M46 599l92 48h48v-372h-62v303l-52 -29zM134 -40h-59l433 691h59zM430 24q47 45 79 77t51.5 56.5t28.5 43.5t10 37q2 26 -12.5 42t-46.5 16q-20 0 -41 -13.5t-41 -35.5l-34 49q54 59 125 59q29 0 50.5 -10t35.5 -25.5t21 -35.5t7 -40q-2 -26 -11 -49.5t-25.5 -47.5
t-41 -50.5t-57.5 -57.5h145v-59h-243v44z" />
    <glyph glyph-name="threequarters" unicode="&#xbe;" horiz-adv-x="720" 
d="M409 47v45l154 263h66v-251h44v-57h-44v-67h-61v67h-159zM484 104h84v143zM194 -40h-59l433 691h59zM73 353q16 -8 37.5 -16t44.5 -8q21 0 35.5 5.5t23.5 13.5t13 18.5t4 19.5q0 31 -26.5 44.5t-60.5 13.5h-30v54h30q13 0 26 3t23.5 9.5t17 16t6.5 23.5q0 17 -12 29.5
t-44 12.5q-20 0 -40 -8.5t-34 -19.5l-26 48q49 39 109 39q29 0 50 -8t34.5 -21.5t20 -30t6.5 -34.5q0 -23 -11.5 -46t-33.5 -37q26 -11 42 -33.5t16 -55.5q0 -23 -8.5 -43.5t-26 -36t-43.5 -25t-60 -9.5q-32 0 -58.5 8.5t-52.5 23.5z" />
    <glyph glyph-name="questiondown" unicode="&#xbf;" horiz-adv-x="440" 
d="M276 267q0 -21 -1.5 -43t-7.5 -44.5t-18.5 -46t-33.5 -46.5q-38 -42 -59 -74.5t-21 -67.5q0 -40 24.5 -65t69.5 -25q38 0 73 18t61 50l44 -58q-38 -43 -85.5 -63.5t-101.5 -20.5q-44 0 -77.5 12.5t-56 33.5t-33.5 48.5t-11 57.5q0 52 28.5 94.5t69.5 86.5q19 21 30 40
t17 37.5t7.5 37.5t1.5 39v35h80v-36zM282 488v-104h-93v104h93z" />
    <glyph glyph-name="AE" unicode="&#xc6;" horiz-adv-x="870" 
d="M488 287v-250h346v-77h-435v184h-204l-87 -184h-91l333 708h468v-77h-330v-228h314v-76h-314zM227 213h172v363z" />
    <glyph glyph-name="Eth" unicode="&#xd0;" horiz-adv-x="650" 
d="M77 347v321h221q81 0 139.5 -26t95.5 -72.5t54.5 -111.5t17.5 -143t-17.5 -143t-54.5 -112.5t-95.5 -73.5t-139.5 -26h-221v318h-77v69h77zM305 37q45 0 83 14t65.5 47t43.5 86t16 131q0 77 -16.5 130t-46 85.5t-69.5 46.5t-86 14h-130v-244h145v-69h-145v-241h140z" />
    <glyph glyph-name="multiply" unicode="&#xd7;" horiz-adv-x="630" 
d="M314 340l167 211h82l-207 -265l207 -262h-85l-164 209l-163 -209h-85l206 262l-206 265h82z" />
    <glyph glyph-name="Oslash" unicode="&#xd8;" horiz-adv-x="700" 
d="M353 674q54 0 103 -17l18 43h79l-32 -77q63 -46 97.5 -124t34.5 -181q0 -90 -24 -159t-65.5 -116t-98 -71t-121.5 -24q-26 0 -48.5 4t-44.5 11l-26 -64h-78l39 96q-66 45 -102.5 125t-36.5 186q0 83 22.5 151t63 116t96.5 74.5t124 26.5zM350 601q-54 0 -94 -24.5
t-67 -65t-40 -93.5t-13 -110q0 -72 20.5 -132.5t62.5 -100.5l208 510q-36 16 -77 16zM564 314q0 64 -19 124.5t-57 102.5l-208 -507q31 -12 69 -12q52 0 92 23t67.5 63t41.5 93t14 113z" />
    <glyph glyph-name="Thorn" unicode="&#xde;" horiz-adv-x="537" 
d="M279 528q109 0 162.5 -55.5t53.5 -158.5q-2 -100 -55 -157.5t-161 -57.5h-115v-139h-88v708h88v-140h115zM275 176q60 0 97 33.5t37 102.5t-37 104t-97 35h-111v-275h111z" />
    <glyph glyph-name="germandbls" unicode="&#xdf;" horiz-adv-x="610" 
d="M262 58q21 -14 54.5 -27t68.5 -13q49 0 78.5 19.5t29.5 52.5q0 35 -26 56.5t-78 41.5q-70 26 -104 65t-34 85q0 35 12.5 58t31 38t40.5 25.5t40.5 21t31 24t12.5 34.5q0 16 -9.5 28t-25.5 19.5t-37 11t-43 3.5q-32 0 -58 -10.5t-44 -34.5t-27.5 -62.5t-9.5 -94.5v-439
h-89v441q0 73 16 125.5t45.5 86t71.5 49.5t95 16q37 0 73 -7.5t64 -24.5t44.5 -44.5t15.5 -67.5q-1 -31 -14 -51t-31.5 -34t-40 -24.5t-40 -21.5t-30.5 -24.5t-12 -34.5q0 -34 26.5 -53t78.5 -39q66 -26 101.5 -63.5t35.5 -94.5q0 -69 -50.5 -107.5t-141.5 -38.5
q-43 0 -80 11.5t-64 29.5l23 69v0z" />
    <glyph glyph-name="ae" unicode="&#xe6;" horiz-adv-x="820" 
d="M755 7q-45 -30 -89.5 -43.5t-92.5 -13.5q-57 0 -106 23t-81 68q-35 -45 -84.5 -69t-122.5 -24q-38 0 -65 12.5t-44.5 33t-26 47t-8.5 53.5q0 46 22 81.5t61.5 59.5t95 36t122.5 12v11q0 15 -3.5 35t-15.5 38t-35 30.5t-61 12.5q-31 0 -66.5 -14t-61.5 -34l-24 65
q30 23 74 37.5t92 14.5q63 0 101.5 -22t58.5 -57q29 37 70 58t95 21q61 0 103 -22t67.5 -60.5t35.5 -90t7 -110.5h-349v-18q7 -82 50.5 -120.5t106.5 -38.5q79 0 155 46zM338 217q-31 1 -68 -3t-69.5 -16t-54.5 -34.5t-22 -58.5q0 -46 21.5 -67t55.5 -21q25 0 47 7.5
t39.5 20t29.5 28t17 31.5q4 13 4 29v84zM690 264q-1 19 -7.5 44.5t-21 48t-39.5 38t-62 15.5q-38 0 -62.5 -14t-40 -35t-23 -45t-10.5 -44v-8h266z" />
    <glyph glyph-name="eth" unicode="&#xf0;" horiz-adv-x="560" 
d="M349 607q11 -8 22 -17t22 -20q51 -54 83 -134t32 -186q0 -69 -17 -124.5t-48 -95t-75 -61t-98 -21.5t-96 21t-71 56t-44 80t-15 94q0 51 15 93t42 72t64.5 46.5t82.5 16.5q55 0 97 -22t73 -61q-8 56 -28 98t-53 75q-12 11 -24.5 21.5t-26.5 18.5l-121 -98l-48 59l90 72
q-25 7 -51 9.5t-54 1.5l8 78q45 -2 87 -9.5t80 -22.5l81 65l47 -59zM268 21q36 0 64.5 15.5t48 43.5t30 65t10.5 81q0 13 -2.5 23t-6.5 18q-20 39 -57 64.5t-79 25.5q-72 0 -107.5 -44.5t-35.5 -120.5q0 -78 34.5 -124.5t100.5 -46.5z" />
    <glyph glyph-name="divide" unicode="&#xf7;" horiz-adv-x="600" 
d="M349 151v-95h-98v95h98zM530 326v-80h-461v80h461zM349 511v-95h-98v95h98z" />
    <glyph glyph-name="oslash" unicode="&#xf8;" horiz-adv-x="580" 
d="M294 479q16 0 31 -2t29 -5l23 56h74l-34 -83q54 -32 83 -90.5t29 -136.5q0 -71 -21.5 -122t-56 -84t-78 -48.5t-87.5 -15.5q-36 0 -69 10l-20 -49h-73l32 78q-48 32 -76.5 88.5t-28.5 134.5q0 63 19 113t52 84.5t77 53t95 18.5zM441 215q0 42 -13 84.5t-41 71.5
l-143 -347q11 -5 22.5 -6.5t23.5 -1.5q32 0 59.5 14.5t48 40.5t32 62.5t11.5 81.5zM292 411q-39 0 -68 -16.5t-47.5 -44.5t-28 -63.5t-9.5 -73.5q0 -95 48 -149l140 342q-20 5 -35 5z" />
    <glyph glyph-name="thorn" unicode="&#xfe;" horiz-adv-x="570" 
d="M152 406h2q24 43 67.5 68t104.5 25q46 0 85 -19t67 -53t43.5 -81.5t15.5 -105.5q0 -68 -19.5 -119t-51 -85t-72 -51t-82.5 -17q-51 0 -91 19t-69 61v-267h-88v907h88v-282zM152 184q0 -29 10.5 -54.5t29.5 -45t45 -31t57 -11.5q36 0 64.5 14t48 40t30 61.5t10.5 79.5
q0 38 -10 72.5t-29 60.5t-47 41t-65 15q-30 0 -55.5 -12.5t-45 -32.5t-31 -46.5t-12.5 -54.5v-96z" />
    <glyph glyph-name="dcroat" unicode="&#x111;" horiz-adv-x="620" 
d="M507 547v-587h-79v78q-29 -51 -72 -70.5t-97 -19.5q-42 0 -82.5 17t-72 51t-51 85t-19.5 119q0 58 15.5 105.5t43.5 81.5t66.5 53t85.5 19q123 0 172 -88h2v156h-139v76h139v75h88v-75h89v-76h-89zM419 254q0 29 -11 56.5t-30.5 48.5t-46 34t-56.5 13q-37 0 -65 -15
t-47 -41t-29 -60.5t-10 -72.5q0 -44 10.5 -79.5t30 -61.5t48 -40t64.5 -14q31 0 57 11.5t45 31t29.5 45t10.5 54.5v90z" />
    <glyph glyph-name="Hbar" unicode="&#x126;" horiz-adv-x="720" 
d="M613 467v-507h-89v327h-329v-327h-89v507h-70v76h70v125h89v-125h329v125h89v-125h70v-76h-70zM195 363h329v104h-329v-104z" />
    <glyph glyph-name="hbar" unicode="&#x127;" horiz-adv-x="610" 
d="M196 547v-161q13 22 33 39.5t43 29.5t48 18t48 6q43 0 77 -13t57 -36.5t35 -55.5t12 -70v-344h-86v345q0 49 -26.5 77t-78.5 28q-25 0 -49.5 -10t-46 -26.5t-39 -38.5t-27.5 -46v-329h-86v587h-89v76h89v75h86v-75h141v-76h-141z" />
    <glyph glyph-name="dotlessi" unicode="&#x131;" horiz-adv-x="240" 
d="M77 468h86v-508h-86v508z" />
    <glyph glyph-name="IJ" unicode="&#x132;" horiz-adv-x="620" 
d="M165 -40h-89v708h89v-708zM542 668v-481q0 -69 -16.5 -115t-45 -73.5t-67 -39t-82.5 -11.5q-25 0 -51.5 3.5t-42.5 8.5l12 75q14 -4 33 -6.5t42 -2.5q30 0 53.5 6.5t40.5 24.5t26 50t9 84v477h89z" />
    <glyph glyph-name="ij" unicode="&#x133;" horiz-adv-x="460" 
d="M75 468h86v-508h-86v508zM161 557h-86v111h86v-111zM169 -169q31 4 54.5 11.5t40 22t25 36t8.5 53.5v514h86v-514q0 -42 -11 -76t-35.5 -58.5t-64 -39.5t-96.5 -19zM383 557h-86v111h86v-111z" />
    <glyph glyph-name="kgreenlandic" unicode="&#x138;" horiz-adv-x="482" 
d="M253 259l212 -299h-95l-170 245l-50 -51v-194h-85v508h85v-212l206 212h103z" />
    <glyph glyph-name="Ldot" unicode="&#x13f;" horiz-adv-x="520" 
d="M165 668v-631h321v-77h-410v708h89zM416 299h-111v111h111v-111z" />
    <glyph glyph-name="ldot" unicode="&#x140;" horiz-adv-x="440" 
d="M161 698v-738h-86v738h86zM375 278h-111v111h111v-111z" />
    <glyph glyph-name="Lslash" unicode="&#x141;" horiz-adv-x="550" 
d="M205 264v-227h321v-77h-410v254l-105 -59v86l105 59v368h89v-318l190 106v-86z" />
    <glyph glyph-name="lslash" unicode="&#x142;" horiz-adv-x="340" 
d="M211 346v-386h-86v317l-51 -41l-48 59l99 79v324h86v-254l56 45l47 -59z" />
    <glyph glyph-name="napostrophe" unicode="&#x149;" horiz-adv-x="690" 
d="M550 298q0 28 -10 47t-26.5 31t-38 17.5t-44.5 5.5q-17 0 -35 -5.5t-35.5 -16t-32.5 -26t-25 -35.5v-367h-86v508h86v-56q13 17 31 29.5t37.5 21t40 12.5t39.5 4q38 0 71.5 -11.5t58.5 -33t39.5 -53t14.5 -71.5v-350h-85v349zM158 475q0 -56 -25 -96.5t-91 -50.5v58
q26 3 43 22t17 55v5h-56v111h112v-104z" />
    <glyph glyph-name="Eng" unicode="&#x14a;" horiz-adv-x="665" 
d="M592 -94q0 -115 -100 -115q-60 0 -106 61l36 42q12 -15 26.5 -25t28.5 -10q17 0 23.5 10t6.5 30v65l-348 622v-626h-83v708h123l310 -556v556h83v-762z" />
    <glyph glyph-name="eng" unicode="&#x14b;" horiz-adv-x="543" 
d="M398 309q0 28 -10 47t-26.5 31t-38 17.5t-44.5 5.5q-17 0 -35 -5.5t-35.5 -16t-32.5 -26t-25 -35.5v-367h-86v508h86v-56q13 17 31 29.5t37.5 21t40 12.5t39.5 4q38 0 71.5 -11.5t58.5 -33t39.5 -53t14.5 -71.5v-404q0 -115 -100 -115q-60 0 -106 61l36 42
q12 -15 26.5 -25t28.5 -10q17 0 23.5 10t6.5 30v410v0z" />
    <glyph glyph-name="OE" unicode="&#x152;" horiz-adv-x="900" 
d="M521 287v-250h346v-77h-517q-67 0 -122.5 22.5t-95.5 66.5t-62.5 108.5t-22.5 148.5q0 87 22 154t62 113.5t95.5 70.5t123.5 24h501v-77h-330v-228h314v-76h-314zM136 306q0 -61 14 -111t41.5 -86t67.5 -55.5t91 -19.5h82v561h-82q-54 0 -94 -22.5t-67 -61.5t-40 -91.5
t-13 -113.5z" />
    <glyph glyph-name="oe" unicode="&#x153;" horiz-adv-x="900" 
d="M849 10q-45 -30 -90 -45t-97 -15q-59 0 -109 25t-82 74q-32 -49 -83.5 -75t-111.5 -26q-50 0 -93.5 17.5t-75.5 51t-51 82t-19 111.5q0 66 18.5 116t50.5 84t75.5 51.5t94.5 17.5q60 0 110.5 -25t82.5 -73q28 46 73.5 72t106.5 26t103 -22.5t67.5 -61.5t35.5 -91t7 -111
h-352q1 -45 14 -78t35 -54.5t50.5 -31.5t60.5 -10q78 0 155 46zM276 411q-39 0 -67.5 -16t-47 -44t-27.5 -64.5t-9 -76.5q0 -46 11.5 -82t31.5 -61t47.5 -38t60.5 -13q67 0 109.5 50.5t42.5 143.5q0 40 -9 76.5t-27.5 64.5t-47 44t-68.5 16zM779 264q-1 19 -7.5 44.5t-21 48
t-39.5 38t-62 15.5q-39 0 -65 -15.5t-41.5 -38t-23 -48t-9.5 -44.5h269z" />
    <glyph glyph-name="Tbar" unicode="&#x166;" horiz-adv-x="530" 
d="M306 391v-431h-89v431h-148v76h148v124h-198v77h492v-77h-205v-124h159v-76h-159z" />
    <glyph glyph-name="tbar" unicode="&#x167;" horiz-adv-x="333" 
d="M109 318v80h-84v70h84v134h86v-134h117v-70h-117v-80h117v-70h-117v-149q0 -24 3 -39.5t14 -26.5q14 -14 42.5 -14t60.5 5l7 -64q-16 -5 -45 -9t-48 -3q-36 1 -59 14t-36.5 34t-19 48t-5.5 55v149h-84v70h84z" />
    <glyph glyph-name="caron" unicode="&#x2c7;" horiz-adv-x="360" 
d="M221 600h-84l-93 149h77l59 -101l60 101h75z" />
    <glyph glyph-name="uni02D0" unicode="&#x2d0;" horiz-adv-x="300" 
d="M152 372l-93 158h182zM241 69h-182l93 158z" />
    <glyph glyph-name="breve" unicode="&#x2d8;" horiz-adv-x="375" 
d="M313 749q-5 -57 -38 -87.5t-86 -30.5t-86 30.5t-38 87.5h70q2 -28 16 -46t38 -18q26 0 39.5 18t14.5 46h70v0z" />
    <glyph glyph-name="dotaccent" unicode="&#x2d9;" horiz-adv-x="300" 
d="M103 654v95h94v-95h-94z" />
    <glyph glyph-name="ring" unicode="&#x2da;" horiz-adv-x="300" 
d="M242 676q0 -19 -7 -36t-19.5 -29.5t-29.5 -20t-36 -7.5q-20 0 -36.5 7.5t-29.5 20t-20 29.5t-7 36t7.5 36t20 29.5t29.5 19.5t36 7q18 0 35 -7.5t29.5 -20t20 -29t7.5 -35.5zM187 675q0 16 -10.5 27t-26.5 11q-17 0 -27.5 -11t-10.5 -27t10.5 -26.5t27.5 -10.5
q16 0 26.5 10.5t10.5 26.5z" />
    <glyph glyph-name="ogonek" unicode="&#x2db;" horiz-adv-x="300" 
d="M198 -45q-31 -5 -50.5 -27t-19.5 -46q0 -18 14 -25t30 -7q15 0 30 4t23 9l14 -34q-18 -13 -42 -20t-47 -7q-35 0 -62 18t-27 61q0 19 9 38.5t24.5 36t38 28t49.5 15.5z" />
    <glyph glyph-name="hungarumlaut" unicode="&#x2dd;" horiz-adv-x="440" 
d="M133 749h104l-117 -149h-76zM279 749h104l-117 -149h-76z" />
    <glyph glyph-name="Alpha" unicode="&#x391;" horiz-adv-x="600" 
d="M250 668h99l233 -708h-91l-58 184h-268l-57 -184h-91zM187 213h225l-112 360h-1z" />
    <glyph glyph-name="Beta" unicode="&#x392;" horiz-adv-x="570" 
d="M275 668q106 0 162 -43.5t56 -134.5q0 -54 -21.5 -93t-73.5 -65q66 -15 97 -59.5t31 -107.5q0 -105 -55 -155t-161 -50h-234v708h199zM297 37q64 0 103 29.5t39 100.5q0 62 -42.5 91t-109.5 29h-123v-250h133zM264 363q62 0 102 30t40 95q0 28 -10.5 48t-28.5 32
t-42 17.5t-52 5.5h-109v-228h100z" />
    <glyph glyph-name="Gamma" unicode="&#x393;" horiz-adv-x="530" 
d="M495 668v-77h-330v-631h-89v708h419z" />
    <glyph glyph-name="uni0394" unicode="&#x394;" horiz-adv-x="640" 
d="M19 -40l274 708h68l260 -708h-602zM324 539l-193 -503h377z" />
    <glyph glyph-name="Epsilon" unicode="&#x395;" horiz-adv-x="560" 
d="M165 287v-250h346v-77h-435v708h419v-77h-330v-228h314v-76h-314z" />
    <glyph glyph-name="Zeta" unicode="&#x396;" horiz-adv-x="570" 
d="M416 591h-368v77h479v-56l-380 -575h385v-77h-497v54z" />
    <glyph glyph-name="Eta" unicode="&#x397;" horiz-adv-x="660" 
d="M165 363h329v305h89v-708h-89v327h-329v-327h-89v708h89v-305z" />
    <glyph glyph-name="Theta" unicode="&#x398;" horiz-adv-x="700" 
d="M350 -52q-67 0 -122.5 24.5t-95.5 71t-62.5 112.5t-22.5 150q0 87 22 155t62 115.5t95.5 72.5t123.5 25q67 0 123 -25t96 -72.5t62 -115.5t22 -155q0 -84 -22.5 -150t-62.5 -112.5t-95.5 -71t-122.5 -24.5zM350 601q-54 0 -94 -23.5t-67 -63.5t-40 -93.5t-13 -114.5
t14 -113t41.5 -90t67.5 -59.5t91 -21.5t91 21.5t67.5 59.5t41.5 90t14 113t-13 114.5t-40 93.5t-67 63.5t-94 23.5zM196 267v76h308v-76h-308z" />
    <glyph glyph-name="Iota" unicode="&#x399;" horiz-adv-x="241" 
d="M165 -40h-89v708h89v-708z" />
    <glyph glyph-name="Kappa" unicode="&#x39a;" horiz-adv-x="593" 
d="M165 344l300 324h105l-278 -301l296 -407h-105l-249 345l-69 -75v-270h-89v708h89v-324z" />
    <glyph glyph-name="Lambda" unicode="&#x39b;" horiz-adv-x="600" 
d="M108 -40h-91l233 708h99l233 -708h-91l-191 613h-1z" />
    <glyph glyph-name="Mu" unicode="&#x39c;" horiz-adv-x="780" 
d="M444 -40h-108l-174 586v-586h-86v708h126l188 -622l188 622h126v-708h-86v586z" />
    <glyph glyph-name="Nu" unicode="&#x39d;" horiz-adv-x="665" 
d="M592 -40h-121l-312 626v-626h-83v708h123l310 -618v618h83v-708z" />
    <glyph glyph-name="Xi" unicode="&#x39e;" horiz-adv-x="660" 
d="M75 591v77h508v-77h-508zM149 287v76h361v-76h-361zM75 -40v77h508v-77h-508z" />
    <glyph glyph-name="Omicron" unicode="&#x39f;" horiz-adv-x="700" 
d="M350 -52q-67 0 -122.5 24.5t-95.5 71t-62.5 112.5t-22.5 150q0 87 22 155t62 115.5t95.5 72.5t123.5 25q67 0 123 -25t96 -72.5t62 -115.5t22 -155q0 -84 -22.5 -150t-62.5 -112.5t-95.5 -71t-122.5 -24.5zM350 601q-54 0 -94 -23.5t-67 -63.5t-40 -93.5t-13 -114.5
t14 -113t41.5 -90t67.5 -59.5t91 -21.5t91 21.5t67.5 59.5t41.5 90t14 113t-13 114.5t-40 93.5t-67 63.5t-94 23.5z" />
    <glyph glyph-name="Pi" unicode="&#x3a0;" horiz-adv-x="660" 
d="M583 -40h-89v632h-329v-632h-89v708h507v-708z" />
    <glyph glyph-name="Rho" unicode="&#x3a1;" horiz-adv-x="557" 
d="M300 668q109 0 162.5 -56t53.5 -158q0 -100 -54 -157.5t-162 -57.5h-136v-279h-88v708h224zM296 316q60 0 97 33.5t37 102.5t-37 104t-97 35h-132v-275h132z" />
    <glyph glyph-name="Sigma" unicode="&#x3a3;" horiz-adv-x="570" 
d="M49 -40v35l304 319l-304 297v57h478v-78h-351l286 -270l-273 -281h339v-79h-479z" />
    <glyph glyph-name="Tau" unicode="&#x3a4;" horiz-adv-x="530" 
d="M19 591v77h492v-77h-205v-631h-89v631h-198z" />
    <glyph glyph-name="Upsilon" unicode="&#x3a5;" horiz-adv-x="600" 
d="M254 260l-240 408h99l186 -327l190 327h97l-243 -407v-301h-89v300z" />
    <glyph glyph-name="Phi" unicode="&#x3a6;" horiz-adv-x="640" 
d="M364 564q48 -7 89 -28.5t71 -54.5t47 -77.5t17 -97.5q0 -54 -17 -98.5t-47 -77.5t-71 -54t-89 -28v-88h-89v88q-48 7 -89 28t-71 54.5t-47 78t-17 97.5t17 97.5t47 77.5t71 54.5t89 28.5v104h89v-104zM500 306q0 71 -36.5 119t-99.5 61v-361q63 14 99.5 62t36.5 119z
M139 307q0 -72 37 -119.5t99 -61.5v360q-62 -14 -99 -61.5t-37 -117.5z" />
    <glyph glyph-name="Chi" unicode="&#x3a7;" horiz-adv-x="590" 
d="M248 314l-228 354h99l176 -281l177 281h99l-228 -354l228 -354h-98l-178 282l-177 -282h-98z" />
    <glyph glyph-name="Psi" unicode="&#x3a8;" horiz-adv-x="680" 
d="M385 237q31 5 58 18.5t47 36t31 54.5t11 75v247h89v-234q0 -68 -18.5 -117t-50.5 -82.5t-75 -51.5t-92 -24v-199h-89v199q-49 5 -92 23.5t-75.5 52t-51 82.5t-18.5 117v234h89v-247q0 -44 11 -76t31 -54.5t47 -35.5t59 -18v431h89v-431z" />
    <glyph glyph-name="uni03A9" unicode="&#x3a9;" horiz-adv-x="760" 
d="M380 600q-57 0 -99.5 -20t-71 -54.5t-42.5 -81.5t-14 -101q0 -53 14 -102.5t37.5 -92t54.5 -75.5t64 -52v-61h-273v76h145q-27 22 -51 54t-41.5 71t-28 85t-10.5 96q0 75 21.5 136t62 104.5t99.5 67t133 23.5t133 -23.5t99.5 -67t62 -104.5t21.5 -136q0 -50 -10.5 -96
t-28 -85t-41.5 -71t-51 -54h145v-76h-273v61q33 19 64 52t54.5 75.5t37.5 92t14 102.5q0 54 -14 101t-42.5 81.5t-71 54.5t-99.5 20z" />
    <glyph glyph-name="alpha" unicode="&#x3b1;" horiz-adv-x="623" 
d="M614 53q-17 -57 -46.5 -82.5t-74.5 -25.5q-33 0 -61.5 24t-42.5 81q-29 -57 -68.5 -79.5t-87.5 -22.5q-53 0 -91.5 21t-62.5 56.5t-34.5 81t-8.5 95.5q2 54 15.5 104.5t40.5 88.5t67 61t95 23q28 0 54 -8.5t47.5 -26.5t37 -46.5t21.5 -69.5l42 133l79 -23l-96 -284
q2 -62 19 -101.5t40 -39.5q20 0 32 19t20 45zM364 226q2 37 -4 70.5t-20 59t-36 40.5t-50 15q-36 0 -61 -22.5t-40 -55.5t-22 -69.5t-8 -64.5q-4 -85 24 -134.5t85 -49.5q34 0 58 21t40 52.5t24 68.5t10 69z" />
    <glyph glyph-name="beta" unicode="&#x3b2;" horiz-adv-x="540" 
d="M497 168q0 -43 -13.5 -82.5t-39.5 -70t-64 -49t-87 -18.5q-38 0 -70.5 12t-58.5 30v-161h-88v654q0 100 51.5 144.5t142.5 44.5q46 0 82.5 -14t62.5 -39t40 -58.5t14 -72.5q0 -42 -16 -79t-58 -66q53 -27 77.5 -75t24.5 -100zM408 168q0 25 -7 49.5t-21 44.5t-35.5 32.5
t-50.5 12.5h-45v62h45q42 0 65 26t23 92q0 52 -29 84.5t-83 32.5q-47 0 -76.5 -29t-29.5 -97v-414q20 -24 52.5 -36t66.5 -12q31 0 54 12t39 33t24 48.5t8 58.5z" />
    <glyph glyph-name="gamma" unicode="&#x3b3;" horiz-adv-x="520" 
d="M303 69q20 -30 35.5 -54.5t25.5 -44.5q18 -36 16.5 -68.5t-18 -57t-44.5 -39t-63 -14.5q-37 0 -65.5 15t-45 39.5t-18.5 57t16 67.5q23 43 70 106l-193 362l75 33l162 -329l170 327l75 -31zM306 -82q0 29 -48 98q-55 -67 -55 -99q0 -56 52 -56q26 0 38.5 15t12.5 42z" />
    <glyph glyph-name="delta" unicode="&#x3b4;" horiz-adv-x="560" 
d="M41 188q0 43 15 80t40 67.5t57 54t67 39.5q-24 19 -39.5 36.5t-23.5 34t-11 32t-3 30.5q0 20 8 39.5t26 35.5t47 25.5t70 9.5q54 0 97.5 -15.5t65.5 -32.5l-38 -61q-15 12 -47.5 26.5t-74.5 14.5q-41 0 -53.5 -16t-12.5 -34q0 -17 9.5 -32t23 -28t29.5 -23.5t28 -19.5
q50 -34 87.5 -64.5t62 -61t36.5 -63t12 -70.5q0 -56 -18.5 -101t-51 -77t-76 -49.5t-93.5 -17.5q-48 0 -91 14.5t-76 44.5t-52.5 75.5t-19.5 106.5zM431 185q0 34 -9 59t-27.5 47.5t-47 45t-67.5 50.5q-27 -11 -54 -28t-48.5 -41.5t-35.5 -56.5t-14 -72q0 -45 14 -77.5
t36.5 -53.5t50.5 -31.5t56 -10.5q29 0 55.5 11.5t46.5 33.5t32 53.5t12 70.5z" />
    <glyph glyph-name="epsilon" unicode="&#x3b5;" horiz-adv-x="470" 
d="M438 73q-22 -62 -78 -93.5t-123 -31.5q-38 0 -73.5 8.5t-63.5 26t-45 45.5t-17 67q0 22 7.5 44.5t24.5 41t43 32.5t64 19q-35 9 -58 22t-37 28.5t-20 32.5t-6 34q0 38 17 64t43.5 42t59.5 23t65 7q57 0 107.5 -25t78.5 -73l-66 -35q-19 27 -49.5 46.5t-70.5 19.5
q-54 0 -77 -20t-23 -47q0 -23 16 -39t40.5 -26.5t53.5 -14.5t55 -3v-71q-38 -1 -70.5 -6.5t-57 -17.5t-38.5 -30.5t-14 -45.5q0 -40 32.5 -60t78.5 -20q48 0 82 22.5t50 62.5z" />
    <glyph glyph-name="zeta" unicode="&#x3b6;" horiz-adv-x="460" 
d="M427 -89q0 -22 -8.5 -43.5t-25.5 -38t-42 -26.5t-58 -10q-27 0 -54 5.5t-54 19.5l25 66q20 -9 40.5 -14.5t42.5 -5.5q23 0 35 12t16 33q4 23 -6.5 38t-28 24t-39.5 14t-41 10q-91 21 -134.5 72.5t-47.5 134.5q-5 93 49 189t160 200h-180v77h284v-71q-47 -41 -89.5 -87
t-74 -96t-49 -103t-14.5 -108q3 -66 38.5 -99.5t95.5 -46.5q34 -8 63.5 -17.5t51 -25.5t33.5 -41t12 -62z" />
    <glyph glyph-name="eta" unicode="&#x3b7;" horiz-adv-x="600" 
d="M398 309q0 28 -10 47t-26.5 31t-38 17.5t-44.5 5.5q-17 0 -35 -5.5t-35.5 -16t-32.5 -26t-25 -35.5v-367h-86v508h86v-56q13 17 31 29.5t37.5 21t40 12.5t39.5 4q38 0 71.5 -11.5t58.5 -33t39.5 -53t14.5 -71.5v-366q0 -20 6.5 -30t23.5 -10q14 0 28.5 10t26.5 25l36 -42
q-46 -61 -106 -61q-100 0 -100 115v358v0z" />
    <glyph glyph-name="theta" unicode="&#x3b8;" horiz-adv-x="580" 
d="M290 -52q-59 0 -104.5 24.5t-76.5 71t-46.5 112.5t-15.5 150q0 87 15.5 155t46 115.5t76 72.5t105.5 25t105.5 -25t76 -72.5t46 -115.5t15.5 -155q0 -84 -16 -150t-46.5 -112.5t-76 -71t-104.5 -24.5zM290 601q-39 0 -67.5 -20t-47 -54.5t-28 -82t-11.5 -101.5h307
q-2 54 -11.5 101.5t-28 82t-46.5 54.5t-67 20zM290 22q37 0 64.5 18.5t46 51t29 77.5t13.5 98h-306q3 -53 13.5 -98t29 -77.5t46 -51t64.5 -18.5z" />
    <glyph glyph-name="iota" unicode="&#x3b9;" horiz-adv-x="280" 
d="M160 468v-412q0 -20 6.5 -30t23.5 -10q14 0 28.5 10t26.5 25l36 -42q-46 -61 -106 -61q-100 0 -100 115v405h85z" />
    <glyph glyph-name="kappa" unicode="&#x3ba;" horiz-adv-x="482" 
d="M253 259l212 -299h-95l-170 245l-50 -51v-194h-85v508h85v-212l206 212h103z" />
    <glyph glyph-name="lambda" unicode="&#x3bb;" horiz-adv-x="629" 
d="M276 347l-163 -394l-74 28l201 484l-18 59q-11 37 -28.5 50t-40.5 15q-10 1 -23 -1t-25 -5l-20 83q21 5 38 7.5t37 0.5q47 -3 83 -30.5t55 -89.5l143 -457q10 -30 22.5 -47.5t32.5 -19.5q41 -1 57 54l75 -29q-20 -57 -52.5 -81.5t-80.5 -24.5q-50 0 -83 33.5t-51 93.5z
" />
    <glyph glyph-name="uni03BC" unicode="&#x3bc;" horiz-adv-x="540" 
d="M398 468h85v-350q0 -40 -14.5 -71.5t-39.5 -53t-58.5 -33t-71.5 -11.5q-19 0 -39.5 4t-40 12t-37.5 21t-31 30v-255h-86v707h86v-367q10 -20 25 -35.5t32.5 -26t35.5 -16t35 -5.5q23 0 44.5 5.5t38 17.5t26.5 31t10 47v349z" />
    <glyph glyph-name="nu" unicode="&#x3bd;" horiz-adv-x="500" 
d="M314 -40h-76l-146 392q-6 18 -16.5 27.5t-22 14.5t-23.5 5.5t-22 0.5v73q24 2 47.5 -1t44 -13t37.5 -29.5t28 -50.5l112 -306l137 395h81z" />
    <glyph glyph-name="xi" unicode="&#x3be;" horiz-adv-x="460" 
d="M161 470q0 38 21.5 69t61.5 52h-168v77h284l-2 -71q-18 -10 -38 -22t-36 -27.5t-26.5 -34t-10.5 -40.5q0 -16 7.5 -29t19.5 -23.5t26 -18.5t26 -14v-75q-154 -57 -154 -169q0 -41 25 -59t70 -28q34 -8 63.5 -17.5t51 -26t33.5 -41t12 -61.5q0 -22 -9 -43.5t-25.5 -38
t-41.5 -26.5t-58 -10q-27 0 -54 5.5t-54 19.5l25 66q20 -9 40.5 -14.5t42.5 -5.5q23 0 35.5 12t15.5 33q3 23 -7 37.5t-27.5 23.5t-39.5 14.5t-41 10.5q-69 17 -103.5 52.5t-34.5 96.5q0 69 43 121t120 91q-40 19 -66.5 47.5t-26.5 66.5z" />
    <glyph glyph-name="omicron" unicode="&#x3bf;" horiz-adv-x="550" 
d="M275 -52q-50 0 -93.5 17.5t-75.5 51t-51 82t-19 111.5q0 66 18.5 116t50.5 84t75.5 51.5t94.5 17.5t94.5 -17.5t75.5 -51.5t50.5 -84t18.5 -116q0 -63 -19 -111.5t-51 -82t-76 -51t-93 -17.5zM275 411q-39 0 -67.5 -16t-47 -44t-27.5 -64.5t-9 -76.5q0 -46 11.5 -82
t31.5 -61t47.5 -38t60.5 -13t60.5 13t47.5 38t31.5 61t11.5 82q0 40 -9 76.5t-27.5 64.5t-47 44t-67.5 16z" />
    <glyph glyph-name="pi" unicode="&#x3c0;" horiz-adv-x="620" 
d="M451 63q0 -20 6.5 -33t23.5 -13q14 0 28.5 10t26.5 25l36 -42q-46 -61 -106 -61q-99 0 -99 115v329h-123v-229q0 -60 -9 -100.5t-31 -65.5t-59.5 -35.5t-94.5 -10.5v75q32 0 53 5t33.5 20.5t17.5 44t5 75.5v221h-112v74h518v-74h-114v-330z" />
    <glyph glyph-name="rho" unicode="&#x3c1;" horiz-adv-x="570" 
d="M65 194q0 88 22.5 143.5t56 87t73.5 43t75 11.5q51 0 95.5 -17t77.5 -51t52 -85t19 -119q0 -58 -15.5 -105.5t-43.5 -81.5t-67 -53t-85 -19q-61 0 -104.5 23t-69.5 65v-275h-86v433zM151 173q0 -29 11 -57t30.5 -50t46 -35.5t56.5 -13.5q39 0 67.5 16t47.5 42.5
t28.5 61.5t9.5 73q0 43 -10 80t-29.5 63.5t-48.5 41.5t-67 15q-63 0 -102.5 -50.5t-39.5 -140.5v-46z" />
    <glyph glyph-name="sigma" unicode="&#x3c3;" horiz-adv-x="570" 
d="M545 471q1 -7 2 -13.5t2 -11.5l2 -12q-30 -5 -60 -7t-60 -3q38 -34 60.5 -87.5t22.5 -126.5q0 -63 -19 -111.5t-51 -82t-76 -51t-93 -17.5q-50 0 -93.5 17.5t-75.5 51t-51 82t-19 111.5q0 66 18.5 116t50.5 84t75.5 51.5t94.5 17.5q67 2 133 8t131 20zM275 411
q-39 0 -67.5 -16t-47 -44t-27.5 -64.5t-9 -76.5q0 -46 11.5 -82t31.5 -61t47.5 -38t60.5 -13t60.5 13t47.5 38t31.5 61t11.5 82q0 40 -9 76.5t-27.5 64.5t-47 44t-67.5 16z" />
    <glyph glyph-name="tau" unicode="&#x3c4;" horiz-adv-x="530" 
d="M21 391v77h488v-77h-205v-335q0 -20 6.5 -30t23.5 -10q14 0 28.5 10t26.5 25l36 -42q-46 -61 -106 -61q-100 0 -100 115v328h-198z" />
    <glyph glyph-name="upsilon" unicode="&#x3c5;" horiz-adv-x="555" 
d="M432 480q14 -30 26.5 -65.5t22.5 -73.5t15.5 -77t5.5 -77q0 -48 -11 -91.5t-37 -76.5t-69 -52t-106 -19q-97 0 -155 55.5t-58 156.5v308h83v-302q0 -67 36 -103t90 -36q41 0 69 12.5t44.5 33.5t23.5 49.5t7 61.5q0 36 -7 75t-17.5 76t-22.5 70t-22 57l82 18v0z" />
    <glyph glyph-name="phi" unicode="&#x3c6;" horiz-adv-x="550" 
d="M234 -159v111q-42 6 -78.5 26t-63 53t-41.5 78t-15 101q0 59 15 105.5t41 80t62.5 53.5t79.5 27v109h83v-110q43 -7 79 -27t62 -53.5t41 -80t15 -104.5q0 -56 -15 -100.5t-41.5 -77.5t-62.5 -53t-78 -27v-111h-83zM124 210q0 -78 30 -126.5t80 -62.5v384
q-29 -8 -49.5 -26.5t-34 -44.5t-20 -58t-6.5 -66zM426 210q0 34 -6.5 66t-20 58t-34 44.5t-48.5 26.5v-383q49 14 79 62.5t30 125.5z" />
    <glyph glyph-name="chi" unicode="&#x3c7;" horiz-adv-x="550" 
d="M226 113l-207 354h97l158 -271l159 271h97l-207 -354l207 -354h-96l-160 272l-159 -272h-96z" />
    <glyph glyph-name="psi" unicode="&#x3c8;" horiz-adv-x="680" 
d="M385 37q31 5 58 18.5t47 36t31 54.5t11 75v247h89v-234q0 -68 -18.5 -117t-50.5 -82t-75 -51.5t-92 -23.5v-200h-89v200q-49 5 -92 23.5t-75.5 51.5t-51 82t-18.5 117v234h89v-247q0 -44 11 -76t31 -54.5t47 -35.5t59 -18v431h89v-431z" />
    <glyph glyph-name="omega" unicode="&#x3c9;" horiz-adv-x="720" 
d="M485 -52q-33 0 -65.5 14t-60.5 43q-28 -29 -60 -43t-65 -14q-48 0 -84.5 19t-61 50.5t-36.5 73t-12 86.5q0 94 26 166t83 131l66 -42q-45 -46 -66 -111t-21 -143q0 -26 5 -52.5t17 -47.5t32.5 -34.5t52.5 -13.5q16 0 31.5 6.5t27.5 17.5t19.5 25t7.5 29v185h77v-185
q0 -15 7.5 -29t19.5 -25t27.5 -17.5t31.5 -6.5q32 0 52.5 13.5t32.5 34.5t17 47.5t5 52.5q0 78 -21 143t-66 111l66 42q57 -59 83 -131t26 -166q0 -45 -12 -86.5t-36.5 -73t-61 -50.5t-84.5 -19z" />
    <glyph glyph-name="uni0401" unicode="&#x401;" horiz-adv-x="560" 
d="M165 257v-220h346v-77h-435v648h419v-77h-330v-198h314v-76h-314zM231 677h-101v101h101v-101zM439 677h-101v101h101v-101z" />
    <glyph glyph-name="uni0410" unicode="&#x410;" horiz-adv-x="600" 
d="M250 668h99l233 -708h-91l-58 184h-268l-57 -184h-91zM187 213h225l-112 360h-1z" />
    <glyph glyph-name="uni0411" unicode="&#x411;" horiz-adv-x="570" 
d="M297 37q64 0 103 29.5t39 100.5q0 62 -42.5 91t-109.5 29h-123v-250h133zM264 363q85 0 136.5 -19t79.5 -48.5t37 -64.5t9 -66q0 -105 -55 -155t-161 -50h-234v708h407v-77h-319v-228h100z" />
    <glyph glyph-name="uni0412" unicode="&#x412;" horiz-adv-x="570" 
d="M275 668q106 0 162 -43.5t56 -134.5q0 -54 -21.5 -93t-73.5 -65q66 -15 97 -59.5t31 -107.5q0 -105 -55 -155t-161 -50h-234v708h199zM297 37q64 0 103 29.5t39 100.5q0 62 -42.5 91t-109.5 29h-123v-250h133zM264 363q62 0 102 30t40 95q0 28 -10.5 48t-28.5 32
t-42 17.5t-52 5.5h-109v-228h100z" />
    <glyph glyph-name="uni0413" unicode="&#x413;" horiz-adv-x="530" 
d="M495 668v-77h-330v-631h-89v708h419z" />
    <glyph glyph-name="uni0414" unicode="&#x414;" horiz-adv-x="720" 
d="M579 -143v135h-438v-135h-89v170q100 109 151 232.5t52 262.5v146h354v-598h59v-213h-89zM521 592h-186v-78q0 -56 -10 -115t-29 -117t-46.5 -112.5t-61.5 -99.5h333v522z" />
    <glyph glyph-name="uni0415" unicode="&#x415;" horiz-adv-x="560" 
d="M165 287v-250h346v-77h-435v708h419v-77h-330v-228h314v-76h-314z" />
    <glyph glyph-name="uni0416" unicode="&#x416;" horiz-adv-x="940" 
d="M512 351h61q6 76 30 135t63.5 99.5t92.5 61.5t116 21h14v-73h-14q-54 0 -95 -22.5t-68.5 -61.5t-41.5 -91.5t-14 -113.5t15 -111t43 -86t69 -55.5t92 -19.5h8v-74h-8q-64 0 -117.5 20.5t-93 60.5t-63.5 99t-28 135h-61v-315h-85v315h-61q-4 -76 -28 -135t-64 -99
t-93.5 -60.5t-116.5 -20.5h-8v74h8q51 0 92 19.5t69 55.5t43 86t15 111t-14 113.5t-41.5 91.5t-68.5 61.5t-95 22.5h-14v73h14q63 0 116 -21t92 -61.5t63 -99.5t30 -135h62v317h85v-317z" />
    <glyph glyph-name="uni0417" unicode="&#x417;" horiz-adv-x="540" 
d="M492 170q0 -48 -17.5 -86.5t-47.5 -65.5t-70.5 -41.5t-86.5 -14.5q-50 0 -90.5 15t-70 42.5t-45.5 67t-16 89.5v13h86q0 -32 8 -59.5t24.5 -47.5t41.5 -31.5t59 -11.5q66 0 100.5 34t34.5 100q0 34 -13.5 61t-39.5 41q-43 20 -135 20v79q56 0 83.5 5t47.5 19q41 26 41 87
q0 24 -9 43.5t-24 33t-35.5 21t-43.5 7.5q-66 0 -94 -37.5t-30 -101.5h-82q0 48 14.5 88t41.5 68.5t65 44.5t86 16q41 0 76.5 -12.5t62 -35.5t41.5 -57t15 -76q0 -96 -79 -147q51 -24 76 -68.5t25 -101.5z" />
    <glyph glyph-name="uni0418" unicode="&#x418;" horiz-adv-x="665" 
d="M76 668h83v-618l310 618h123v-708h-83v626l-312 -626h-121v708z" />
    <glyph glyph-name="uni0419" unicode="&#x419;" horiz-adv-x="665" 
d="M76 608h83v-558l310 558h123v-648h-83v566l-312 -566h-121v648zM466 769q-5 -57 -38 -87.5t-86 -30.5t-86 30.5t-38 87.5h70q2 -28 16 -46t38 -18q26 0 39.5 18t14.5 46h70z" />
    <glyph glyph-name="uni041A" unicode="&#x41a;" horiz-adv-x="593" 
d="M165 344l300 324h105l-278 -301l296 -407h-105l-249 345l-69 -75v-270h-89v708h89v-324z" />
    <glyph glyph-name="uni041B" unicode="&#x41b;" horiz-adv-x="690" 
d="M614 668v-708h-89v631h-294v-448q0 -42 -11 -76t-35.5 -58.5t-64 -39.5t-96.5 -19l-7 70q31 4 54.5 11.5t40 22t25 36t8.5 53.5v525h469z" />
    <glyph glyph-name="uni041C" unicode="&#x41c;" horiz-adv-x="780" 
d="M444 -40h-108l-174 586v-586h-86v708h126l188 -622l188 622h126v-708h-86v586z" />
    <glyph glyph-name="uni041D" unicode="&#x41d;" horiz-adv-x="660" 
d="M165 363h329v305h89v-708h-89v327h-329v-327h-89v708h89v-305z" />
    <glyph glyph-name="uni041E" unicode="&#x41e;" horiz-adv-x="700" 
d="M350 -52q-67 0 -122.5 24.5t-95.5 71t-62.5 112.5t-22.5 150q0 87 22 155t62 115.5t95.5 72.5t123.5 25q67 0 123 -25t96 -72.5t62 -115.5t22 -155q0 -84 -22.5 -150t-62.5 -112.5t-95.5 -71t-122.5 -24.5zM350 601q-54 0 -94 -23.5t-67 -63.5t-40 -93.5t-13 -114.5
t14 -113t41.5 -90t67.5 -59.5t91 -21.5t91 21.5t67.5 59.5t41.5 90t14 113t-13 114.5t-40 93.5t-67 63.5t-94 23.5z" />
    <glyph glyph-name="uni041F" unicode="&#x41f;" horiz-adv-x="660" 
d="M583 -40h-89v632h-329v-632h-89v708h507v-708z" />
    <glyph glyph-name="uni0420" unicode="&#x420;" horiz-adv-x="557" 
d="M300 668q109 0 162.5 -56t53.5 -158q0 -100 -54 -157.5t-162 -57.5h-136v-279h-88v708h224zM296 316q60 0 97 33.5t37 102.5t-37 104t-97 35h-132v-275h132z" />
    <glyph glyph-name="uni0421" unicode="&#x421;" horiz-adv-x="600" 
d="M43 311q0 71 19 136.5t58.5 116t100.5 80.5t144 30q54 0 102 -15t86 -44l-46 -64q-26 20 -60.5 33.5t-82.5 13.5q-60 0 -103.5 -24t-72 -64t-42.5 -92t-14 -107q0 -53 14 -104t42.5 -91.5t72 -65.5t103.5 -25q96 0 159 57l49 -57q-40 -38 -93.5 -57t-113.5 -19
q-83 0 -144 31t-100.5 81.5t-58.5 115.5t-19 134z" />
    <glyph glyph-name="uni0422" unicode="&#x422;" horiz-adv-x="530" 
d="M19 591v77h492v-77h-205v-631h-89v631h-198z" />
    <glyph glyph-name="uni0423" unicode="&#x423;" horiz-adv-x="500" 
d="M65 30q22 -7 43 -9t39 4t32.5 20.5t22.5 39.5l23 70l-201 513h84l153 -413l133 413h84l-201 -613q-19 -57 -58 -82t-88 -25q-42 0 -78 13l12 69v0z" />
    <glyph glyph-name="uni0424" unicode="&#x424;" horiz-adv-x="640" 
d="M364 564q48 -7 89 -28.5t71 -54.5t47 -77.5t17 -97.5q0 -54 -17 -98.5t-47 -77.5t-71 -54t-89 -28v-88h-89v88q-48 7 -89 28t-71 54.5t-47 78t-17 97.5t17 97.5t47 77.5t71 54.5t89 28.5v104h89v-104zM500 306q0 71 -36.5 119t-99.5 61v-361q63 14 99.5 62t36.5 119z
M139 307q0 -72 37 -119.5t99 -61.5v360q-62 -14 -99 -61.5t-37 -117.5z" />
    <glyph glyph-name="uni0425" unicode="&#x425;" horiz-adv-x="590" 
d="M248 314l-228 354h99l176 -281l177 281h99l-228 -354l228 -354h-98l-178 282l-177 -282h-98z" />
    <glyph glyph-name="uni0426" unicode="&#x426;" horiz-adv-x="660" 
d="M583 36h45v-179h-89v103h-463v708h89v-632h329v632h89v-632z" />
    <glyph glyph-name="uni0427" unicode="&#x427;" horiz-adv-x="564" 
d="M151 323q0 -49 26.5 -77t78.5 -28q25 0 49.5 10t46 26.5t39 38.5t27.5 46v329h86v-708h-86v277q-13 -21 -33 -37.5t-43 -28t-48 -17t-48 -5.5q-44 0 -77.5 13t-56.5 36.5t-35 55.5t-12 70v344h86v-345v0z" />
    <glyph glyph-name="uni0428" unicode="&#x428;" horiz-adv-x="880" 
d="M802 -40h-725v708h89v-632h229v632h89v-632h229v632h89v-708z" />
    <glyph glyph-name="uni0429" unicode="&#x429;" horiz-adv-x="880" 
d="M802 36h46v-179h-89v103h-682v708h89v-632h229v632h89v-632h229v632h89v-632z" />
    <glyph glyph-name="uni042A" unicode="&#x42a;" horiz-adv-x="620" 
d="M19 668h197v-305h100q85 0 136.5 -19t79.5 -48.5t37 -64.5t9 -66q0 -105 -55 -155t-161 -50h-234v631h-109v77zM349 37q64 0 103 29.5t39 100.5q0 62 -42.5 91t-109.5 29h-123v-250h133z" />
    <glyph glyph-name="uni042B" unicode="&#x42b;" horiz-adv-x="780" 
d="M297 37q64 0 103 29.5t39 100.5q0 62 -42.5 91t-109.5 29h-123v-250h133zM264 363q85 0 136.5 -19t79.5 -48.5t37 -64.5t9 -66q0 -105 -55 -155t-161 -50h-234v708h88v-305h100zM615 668h89v-708h-89v708z" />
    <glyph glyph-name="uni042C" unicode="&#x42c;" horiz-adv-x="570" 
d="M297 37q64 0 103 29.5t39 100.5q0 62 -42.5 91t-109.5 29h-123v-250h133zM264 363q85 0 136.5 -19t79.5 -48.5t37 -64.5t9 -66q0 -105 -55 -155t-161 -50h-234v708h88v-305h100z" />
    <glyph glyph-name="uni042D" unicode="&#x42d;" horiz-adv-x="600" 
d="M572 311q0 -69 -19 -134t-58.5 -115.5t-100.5 -81.5t-144 -31q-60 0 -113.5 19t-93.5 57l49 57q63 -57 159 -57q55 0 96.5 21t70 56t44.5 80.5t20 94.5h-360v76h359q-5 49 -21 93.5t-44.5 78t-69.5 53.5t-95 20q-48 0 -82.5 -13.5t-60.5 -33.5l-46 64q38 29 86 44t102 15
q83 0 144 -30t100.5 -80.5t58.5 -116t19 -136.5z" />
    <glyph glyph-name="uni042E" unicode="&#x42e;" 
d="M165 363h104q7 73 32 131t64 98t91 61t114 21q67 0 123 -25t96 -72.5t62 -115.5t22 -155q0 -84 -22.5 -150t-62.5 -112.5t-95.5 -71t-122.5 -24.5q-65 0 -119.5 23t-94.5 67t-63 106.5t-26 142.5h-102v-327h-89v708h89v-305zM570 601q-54 0 -94 -23.5t-67 -63.5
t-40 -93.5t-13 -114.5t14 -113t41.5 -90t67.5 -59.5t91 -21.5t91 21.5t67.5 59.5t41.5 90t14 113t-13 114.5t-40 93.5t-67 63.5t-94 23.5z" />
    <glyph glyph-name="uni042F" unicode="&#x42f;" horiz-adv-x="570" 
d="M496 668v-708h-88v289h-113l-186 -289h-95l189 296q-73 16 -110 68t-37 135q0 102 53.5 155.5t162.5 53.5h224zM408 326v265h-132q-60 0 -97 -32.5t-37 -101.5t37 -100t97 -31h132z" />
    <glyph glyph-name="uni0430" unicode="&#x430;" horiz-adv-x="484" 
d="M35 94q0 45 19.5 81t57.5 60t95 34.5t131 4.5v20q0 15 -4 35t-16.5 38t-35.5 30.5t-61 12.5q-31 0 -66.5 -13.5t-61.5 -34.5l-29 61q30 24 74 40t97 16q57 0 93.5 -18t58 -47.5t29.5 -66.5t8 -75v-312h-83v64q-10 -15 -26.5 -29t-38 -24.5t-46 -16.5t-51.5 -6
q-38 0 -65 12.5t-44.5 33t-26 47t-8.5 53.5zM334 104q4 15 4 29v76q-40 6 -78.5 3.5t-68.5 -15.5t-48.5 -35.5t-18.5 -56.5q0 -46 21.5 -67t55.5 -21q25 0 47 7.5t39.5 20t29.5 28t17 31.5z" />
    <glyph glyph-name="uni0431" unicode="&#x431;" horiz-adv-x="550" 
d="M275 -52q-50 0 -93.5 17.5t-75.5 51t-51 82t-19 111.5q0 83 23 159t72 135t124 95.5t179 39.5l8 -78q-69 2 -135.5 -20.5t-118.5 -82.5q18 10 41.5 15.5t45.5 5.5q51 0 94.5 -17.5t75.5 -51.5t50.5 -84t18.5 -116q0 -63 -19 -111.5t-51 -82t-76 -51t-93 -17.5zM275 411
q-39 0 -67.5 -16t-47 -44t-27.5 -64.5t-9 -76.5q0 -46 11.5 -82t31.5 -61t47.5 -38t60.5 -13t60.5 13t47.5 38t31.5 61t11.5 82q0 40 -9 76.5t-27.5 64.5t-47 44t-67.5 16z" />
    <glyph glyph-name="uni0432" unicode="&#x432;" horiz-adv-x="480" 
d="M273 468q77 0 118.5 -32t41.5 -101q0 -33 -12 -60t-39 -46q39 -14 56.5 -45t17.5 -73q0 -78 -40.5 -114.5t-118.5 -36.5h-231v508h207zM286 32q40 0 63.5 18t23.5 63q0 38 -26.5 55.5t-68.5 17.5h-129v-154h137zM263 257q38 0 63 18t25 59q0 34 -24 48t-59 14h-119v-139
h114z" />
    <glyph glyph-name="uni0433" unicode="&#x433;" horiz-adv-x="470" 
d="M435 468v-77h-280v-431h-89v508h369z" />
    <glyph glyph-name="uni0434" unicode="&#x434;" horiz-adv-x="620" 
d="M537 12h44v-179h-89v127h-367v-127h-87v151q89 84 126.5 196.5t37.5 247.5v39h335v-455zM457 389h-180v-26q0 -39 -7 -85t-19.5 -91t-30.5 -85t-39 -68h276v355z" />
    <glyph glyph-name="uni0435" unicode="&#x435;" horiz-adv-x="510" 
d="M391 264q-1 19 -7.5 44.5t-21 48t-39.5 38t-62 15.5q-39 0 -64.5 -15.5t-41 -38t-22.5 -48t-9 -44.5h267zM461 10q-45 -30 -90 -45t-97 -15q-48 0 -91 17t-75 50.5t-50.5 83t-18.5 114.5q0 57 15 105.5t43.5 84t69.5 55t94 19.5q61 0 103 -22.5t67.5 -61.5t35.5 -91
t7 -111h-350q1 -45 14 -78t34 -54.5t49.5 -31.5t60.5 -10q78 0 155 46z" />
    <glyph glyph-name="uni0436" unicode="&#x436;" horiz-adv-x="740" 
d="M411 247h47q5 57 25 100t51.5 72.5t72 44.5t87.5 15v-68q-40 0 -69.5 -16t-48.5 -44t-28.5 -64.5t-9.5 -76.5q0 -46 11.5 -82t32.5 -61t49.5 -38t62.5 -13v-68q-46 0 -86.5 15t-72 44t-52 71t-25.5 97h-47v-215h-83v215h-48q-5 -55 -25 -97t-51.5 -71t-72 -44t-86.5 -15
v68q34 0 62.5 13t49.5 38t32.5 61t11.5 82q0 40 -9.5 76.5t-28.5 64.5t-48.5 44t-69.5 16v68q47 0 87.5 -15t72 -44.5t51 -72.5t24.5 -100h48v221h83v-221z" />
    <glyph glyph-name="uni0437" unicode="&#x437;" horiz-adv-x="460" 
d="M425 107q0 -42 -18 -72t-46.5 -49.5t-63.5 -28.5t-70 -9q-40 0 -76 10.5t-63 31.5t-42.5 53.5t-15.5 76.5h85q0 -49 32.5 -77t80.5 -28q20 0 39.5 5.5t35 17t25 29t9.5 42.5t-10.5 41.5t-27.5 26t-39.5 13t-47.5 3.5h-25v65h26q17 0 36 3.5t34.5 12t26 23t10.5 37.5
q0 42 -27 59.5t-62 17.5q-46 0 -73 -27.5t-29 -78.5h-80q0 42 14 74.5t39 54.5t58.5 33.5t71.5 11.5q33 0 64.5 -8.5t56 -26t39.5 -45t15 -65.5q0 -69 -69 -103q45 -12 66 -44t21 -80z" />
    <glyph glyph-name="uni0438" unicode="&#x438;" horiz-adv-x="520" 
d="M66 468h81v-418l197 418h118v-508h-81v426l-199 -426h-116v508z" />
    <glyph glyph-name="uni0439" unicode="&#x439;" horiz-adv-x="520" 
d="M66 468h81v-418l197 418h118v-508h-81v426l-199 -426h-116v508zM393 648q-5 -57 -38 -87.5t-86 -30.5t-86 30.5t-38 87.5h70q2 -28 16 -46t38 -18q26 0 39.5 18t14.5 46h70z" />
    <glyph glyph-name="uni043A" unicode="&#x43a;" horiz-adv-x="480" 
d="M150 272l210 196h107l-225 -212l229 -296h-99l-186 244l-36 -35v-209h-85v508h85v-196z" />
    <glyph glyph-name="uni043B" unicode="&#x43b;" horiz-adv-x="580" 
d="M514 468v-508h-86v431h-197v-248q0 -42 -11 -76t-35.5 -58.5t-64 -39.5t-96.5 -19l-7 70q31 4 54.5 11.5t40 22t25 36t8.5 53.5v325h369z" />
    <glyph glyph-name="uni043C" unicode="&#x43c;" horiz-adv-x="580" 
d="M333 -40h-82l-109 359v-359h-77v508h102l124 -413l125 413h102v-508h-76v359z" />
    <glyph glyph-name="uni043D" unicode="&#x43d;" horiz-adv-x="550" 
d="M152 261h252v207h86v-508h-86v225h-252v-225h-86v508h86v-207z" />
    <glyph glyph-name="uni043E" unicode="&#x43e;" horiz-adv-x="550" 
d="M275 -52q-50 0 -93.5 17.5t-75.5 51t-51 82t-19 111.5q0 66 18.5 116t50.5 84t75.5 51.5t94.5 17.5t94.5 -17.5t75.5 -51.5t50.5 -84t18.5 -116q0 -63 -19 -111.5t-51 -82t-76 -51t-93 -17.5zM275 411q-39 0 -67.5 -16t-47 -44t-27.5 -64.5t-9 -76.5q0 -46 11.5 -82
t31.5 -61t47.5 -38t60.5 -13t60.5 13t47.5 38t31.5 61t11.5 82q0 40 -9 76.5t-27.5 64.5t-47 44t-67.5 16z" />
    <glyph glyph-name="uni043F" unicode="&#x43f;" horiz-adv-x="550" 
d="M490 -40h-86v432h-252v-432h-86v508h424v-508z" />
    <glyph glyph-name="uni0440" unicode="&#x440;" horiz-adv-x="570" 
d="M142 468v-79q29 49 72 69.5t97 20.5q42 0 82.5 -17t72 -51t51 -85t19.5 -119q0 -58 -15.5 -105.5t-43.5 -81.5t-67 -53t-85 -19q-61 0 -104.5 23t-69.5 65v-275h-86v707h77zM151 173q0 -29 11 -57t30.5 -50t46 -35.5t56.5 -13.5q39 0 67.5 16t47.5 42.5t28.5 61.5t9.5 73
q0 43 -10 80t-29.5 63.5t-48.5 41.5t-67 15q-31 0 -57 -12.5t-45 -33t-29.5 -47t-10.5 -54.5v-90z" />
    <glyph glyph-name="uni0441" unicode="&#x441;" horiz-adv-x="460" 
d="M431 -22q-17 -9 -54.5 -19.5t-88.5 -10.5q-56 0 -102 19t-79 54t-51 83.5t-18 108.5t18.5 109t53 84t83.5 54t111 19q40 0 73.5 -8.5t51.5 -19.5l-20 -70q-17 9 -42.5 16.5t-62.5 7.5q-43 0 -75.5 -14t-55 -39t-34 -59.5t-11.5 -74.5q0 -45 13.5 -81t37.5 -61.5t56 -39
t70 -13.5t64.5 8t46.5 16l15 -69v0z" />
    <glyph glyph-name="uni0442" unicode="&#x442;" horiz-adv-x="489" 
d="M19 391v77h452v-77h-186v-431h-87v431h-179z" />
    <glyph glyph-name="uni0443" unicode="&#x443;" horiz-adv-x="473" 
d="M50 -157q22 -7 43 -9t39 4t32.5 20.5t22.5 39.5l23 70l-201 500h84l153 -400l133 400h84l-201 -600q-19 -57 -58 -82t-88 -25q-42 0 -78 13l12 69v0z" />
    <glyph glyph-name="uni0444" unicode="&#x444;" horiz-adv-x="550" 
d="M318 475q42 -7 78 -27t62.5 -53.5t41 -80t14.5 -104.5q0 -56 -15 -100.5t-41.5 -77.5t-62 -53t-77.5 -27v-172h-86v172q-42 7 -78 27t-62 53t-41 77.5t-15 100.5q0 58 14.5 104.5t40.5 80t62 53.5t79 27v193h86v-193zM124 210q0 -77 29.5 -125t78.5 -63v383
q-28 -8 -48 -26.5t-33.5 -44.5t-20 -58t-6.5 -66zM426 210q0 34 -6.5 66t-20 58t-33.5 44.5t-48 26.5v-383q48 15 78 63t30 125z" />
    <glyph glyph-name="uni0445" unicode="&#x445;" horiz-adv-x="468" 
d="M6 468h91l137 -194l138 194h91l-182 -254l182 -254h-91l-138 194l-137 -194h-91l182 254z" />
    <glyph glyph-name="uni0446" unicode="&#x446;" horiz-adv-x="570" 
d="M152 36h252v432h86v-456h44v-179h-89v127h-379v508h86v-432z" />
    <glyph glyph-name="uni0447" unicode="&#x447;" horiz-adv-x="564" 
d="M151 122q0 -49 26.5 -77t78.5 -28q25 0 49.5 10t46 26.5t39 38.5t27.5 46v329h86v-708h-86v277q-13 -21 -33 -37.5t-43 -28t-48 -17t-48 -5.5q-44 0 -77.5 13t-56.5 36.5t-35 55.5t-12 70v344h86v-345v0z" />
    <glyph glyph-name="uni0448" unicode="&#x448;" horiz-adv-x="655" 
d="M592 -40h-525v508h86v-432h133v432h86v-432h134v432h86v-508z" />
    <glyph glyph-name="uni0449" unicode="&#x449;" horiz-adv-x="670" 
d="M592 12h42v-179h-89v127h-478v508h86v-432h133v432h86v-432h134v432h86v-456z" />
    <glyph glyph-name="uni044A" unicode="&#x44a;" horiz-adv-x="520" 
d="M303 257q92 0 135 -36t43 -110q0 -78 -40.5 -114.5t-118.5 -36.5h-221v432h-81v76h167v-211h116zM311 32q40 0 63.5 18t23.5 63q0 38 -26.5 55.5t-68.5 17.5h-116v-154h124z" />
    <glyph glyph-name="uni044B" unicode="&#x44b;" horiz-adv-x="640" 
d="M247 257q92 0 135 -36t43 -110q0 -78 -40.5 -114.5t-118.5 -36.5h-201v508h86v-211h96zM255 32q40 0 63.5 18t23.5 63q0 38 -26.5 55.5t-68.5 17.5h-96v-154h104zM486 468h86v-508h-86v508z" />
    <glyph glyph-name="uni044C" unicode="&#x44c;" horiz-adv-x="480" 
d="M267 257q92 0 135 -36t43 -110q0 -78 -40.5 -114.5t-118.5 -36.5h-221v508h86v-211h116zM275 32q40 0 63.5 18t23.5 63q0 38 -26.5 55.5t-68.5 17.5h-116v-154h124z" />
    <glyph glyph-name="uni044D" unicode="&#x44d;" horiz-adv-x="460" 
d="M53 47q20 -8 46.5 -16t64.5 -8q66 0 113.5 40.5t59.5 112.5h-221v76h222q-9 67 -53 110t-120 43q-37 0 -62.5 -7.5t-42.5 -16.5l-20 70q18 11 51.5 19.5t73.5 8.5q61 0 110.5 -19t84 -54t53 -84t18.5 -109t-18 -108.5t-51 -83.5t-79 -54t-102 -19q-51 0 -88.5 10.5
t-54.5 19.5z" />
    <glyph glyph-name="uni044E" unicode="&#x44e;" horiz-adv-x="745" 
d="M465 -52q-47 0 -89 15.5t-73.5 46t-51.5 74.5t-24 101h-75v-225h-86v508h86v-207h77q7 53 27.5 94t52 68.5t71.5 41.5t85 14q51 0 94.5 -17.5t75.5 -51.5t50.5 -84t18.5 -116q0 -63 -19 -111.5t-51 -82t-76 -51t-93 -17.5zM465 411q-39 0 -67.5 -16t-47 -44t-27.5 -64.5
t-9 -76.5q0 -46 11.5 -82t31.5 -61t47.5 -38t60.5 -13t60.5 13t47.5 38t31.5 61t11.5 82q0 40 -9 76.5t-27.5 64.5t-47 44t-67.5 16z" />
    <glyph glyph-name="uni044F" unicode="&#x44f;" horiz-adv-x="430" 
d="M368 468v-508h-80v199h-66l-127 -199h-87l132 207q-48 15 -72 52.5t-24 94.5q0 75 39.5 114.5t119.5 39.5h165zM288 232v164h-82q-37 0 -60 -20t-23 -63t23 -62t60 -19h82z" />
    <glyph glyph-name="uni0451" unicode="&#x451;" horiz-adv-x="510" 
d="M391 264q-1 19 -7.5 44.5t-21 48t-39.5 38t-62 15.5q-39 0 -64.5 -15.5t-41 -38t-22.5 -48t-9 -44.5h267zM461 10q-45 -30 -90 -45t-97 -15q-48 0 -91 17t-75 50.5t-50.5 83t-18.5 114.5q0 57 15 105.5t43.5 84t69.5 55t94 19.5q61 0 103 -22.5t67.5 -61.5t35.5 -91
t7 -111h-350q1 -45 14 -78t34 -54.5t49.5 -31.5t60.5 -10q78 0 155 46zM206 547h-101v101h101v-101zM414 547h-101v101h101v-101z" />
    <glyph glyph-name="quoteleft" unicode="&#x2018;" horiz-adv-x="250" 
d="M83 751h84v-232h-84v232z" />
    <glyph glyph-name="quoteright" unicode="&#x2019;" horiz-adv-x="250" 
d="M83 751h84v-232h-84v232z" />
    <glyph glyph-name="quotedblleft" unicode="&#x201c;" horiz-adv-x="400" 
d="M72 751h84v-232h-84v232zM243 751h84v-232h-84v232z" />
    <glyph glyph-name="quotedblright" unicode="&#x201d;" horiz-adv-x="400" 
d="M72 751h84v-232h-84v232zM243 751h84v-232h-84v232z" />
    <glyph glyph-name="dagger" unicode="&#x2020;" horiz-adv-x="640" 
d="M357 366v-438h-75v438h-199v71h199v227h75v-227h199v-71h-199z" />
    <glyph glyph-name="daggerdbl" unicode="&#x2021;" horiz-adv-x="640" 
d="M282 335v125h-199v71h199v133h75v-133h199v-71h-199v-125h199v-71h-199v-336h-75v336h-199v71h199z" />
    <glyph glyph-name="twodotenleader" unicode="&#x2025;" horiz-adv-x="800" 
d="M284 246h-111v111h111v-111zM627 246h-111v111h111v-111z" />
    <glyph glyph-name="ellipsis" unicode="&#x2026;" horiz-adv-x="800" 
d="M187 246h-111v111h111v-111zM455 246h-111v111h111v-111zM723 246h-111v111h111v-111z" />
    <glyph glyph-name="perthousand" unicode="&#x2030;" horiz-adv-x="940" 
d="M158 284q-64 0 -93.5 46t-29.5 134t29 138t94 50t94 -50t29 -138t-29.5 -134t-93.5 -46zM158 591q-15 0 -24.5 -10t-15 -27.5t-7.5 -40.5t-2 -49q0 -54 9.5 -86.5t40.5 -32.5q29 0 38.5 32.5t9.5 86.5q0 26 -2 49t-7.5 40.5t-15 27.5t-24.5 10zM429 668h66l-262 -708h-66
zM501 -19q-64 0 -93.5 46t-29.5 134t29 138t94 50t94 -50t29 -138t-29.5 -134t-93.5 -46zM501 288q-15 0 -24.5 -10t-15 -27.5t-7.5 -40.5t-2 -49q0 -54 9.5 -86.5t40.5 -32.5q29 0 38.5 32.5t9.5 86.5q0 26 -2 49t-7.5 40.5t-15 27.5t-24.5 10zM781 -19q-64 0 -93.5 46
t-29.5 134t29 138t94 50t94 -50t29 -138t-29.5 -134t-93.5 -46zM781 288q-15 0 -24.5 -10t-15 -27.5t-7.5 -40.5t-2 -49q0 -54 9.5 -86.5t40.5 -32.5q29 0 38.5 32.5t9.5 86.5q0 26 -2 49t-7.5 40.5t-15 27.5t-24.5 10z" />
    <glyph glyph-name="minute" unicode="&#x2032;" horiz-adv-x="340" 
d="M139 465h-64l98 244h107z" />
    <glyph glyph-name="second" unicode="&#x2033;" horiz-adv-x="540" 
d="M139 465h-64l98 244h107zM316 465h-64l98 244h107z" />
    <glyph glyph-name="uni203B" unicode="&#x203b;" horiz-adv-x="800" 
d="M394 369l205 296h90l-250 -361l249 -359h-89l-205 295l-204 -295h-89l249 359l-250 361h90zM450 702v-108h-111v108h111zM715 367v-108h-111v108h111zM195 367v-108h-111v108h111zM450 12v-108h-111v108h111z" />
    <glyph glyph-name="uni2074" unicode="&#x2074;" horiz-adv-x="340" 
d="M38 481v45l154 263h66v-251h44v-57h-44v-67h-61v67h-159zM104 538h93v156z" />
    <glyph glyph-name="uni207F" unicode="&#x207f;" horiz-adv-x="400" 
d="M281 662q0 41 -22 57.5t-56 16.5q-20 0 -44.5 -16t-39.5 -45v-259h-63v363h63v-41q20 25 45.5 37t53.5 12q56 0 90.5 -32t34.5 -92v-247h-62v246v0z" />
    <glyph glyph-name="uni2081" unicode="&#x2081;" horiz-adv-x="340" 
d="M80 141l92 48h48v-372h-62v303l-52 -29z" />
    <glyph glyph-name="uni2082" unicode="&#x2082;" horiz-adv-x="340" 
d="M51 -143q47 45 79 77t51.5 56.5t28.5 43.5t10 37q2 26 -12.5 42t-46.5 16q-20 0 -41 -13.5t-41 -35.5l-34 49q54 59 125 59q29 0 50.5 -10t35.5 -25.5t21 -35.5t7 -40q-2 -26 -11 -49.5t-25.5 -47.5t-41 -50.5t-57.5 -57.5h145v-59h-243v44v0z" />
    <glyph glyph-name="uni2083" unicode="&#x2083;" horiz-adv-x="340" 
d="M73 -109q16 -8 37.5 -16t44.5 -8q21 0 35.5 5.5t23.5 13.5t13 18.5t4 19.5q0 31 -26.5 44.5t-60.5 13.5h-30v54h30q13 0 26 3t23.5 9.5t17 16t6.5 23.5q0 17 -12 29.5t-44 12.5q-20 0 -40 -8.5t-34 -19.5l-26 48q49 39 109 39q29 0 50 -8t34.5 -21.5t20 -30t6.5 -34.5
q0 -23 -11.5 -46t-33.5 -37q26 -11 42 -33.5t16 -55.5q0 -23 -8.5 -43.5t-26 -36t-43.5 -25t-60 -9.5q-32 0 -58.5 8.5t-52.5 23.5l28 50v0z" />
    <glyph glyph-name="uni2084" unicode="&#x2084;" horiz-adv-x="340" 
d="M38 -119v45l154 263h66v-251h44v-57h-44v-67h-61v67h-159zM104 -62h93v156z" />
    <glyph glyph-name="uni2103" unicode="&#x2103;" horiz-adv-x="900" 
d="M104 668q0 -30 18 -49.5t50 -19.5t50 19.5t18 49.5t-18 49t-50 19t-50 -19t-18 -49zM302 300q0 128 14 210t46.5 129.5t86 66t131.5 18.5q71 0 117.5 -21.5t75 -56t42 -79t17.5 -89.5h-90q-10 89 -51 127.5t-113 38.5q-46 0 -81 -9t-58 -43.5t-35 -103.5t-12 -188
q0 -117 11.5 -185t35 -103.5t59 -45.5t82.5 -10q37 0 66 9.5t49.5 31.5t33 58t17.5 89h90q-5 -52 -17.5 -100.5t-40.5 -85.5t-75 -59.5t-121 -22.5q-81 0 -135 18.5t-86.5 66.5t-45.5 130t-13 209zM285 668q0 -50 -31 -81.5t-82 -31.5t-82 31.5t-31 81.5t31 81t82 31t82 -31
t31 -81z" />
    <glyph glyph-name="uni2109" unicode="&#x2109;" horiz-adv-x="720" 
d="M224 638q0 -18 -7 -34.5t-19.5 -28.5t-29 -19.5t-34.5 -7.5t-34.5 7.5t-29 19.5t-20 28.5t-7.5 34.5t7.5 34.5t20 28.5t29 19.5t34.5 7.5t34.5 -7.5t29 -19.5t19.5 -28.5t7 -34.5zM175 638q0 17 -12 29.5t-29 12.5q-18 0 -30 -12.5t-12 -29.5t12 -29.5t30 -12.5
q17 0 29 12.5t12 29.5zM689 629v-77h-310v-209h299v-76h-299v-307h-89v669h399z" />
    <glyph glyph-name="uni2113" unicode="&#x2113;" horiz-adv-x="430" 
d="M21 52q45 28 83 65q-5 32 -7.5 66t-2.5 70q0 98 12.5 176t35.5 133t56 84t75 29q59 0 86 -40.5t27 -106.5q0 -48 -14.5 -103.5t-40.5 -113t-63.5 -114t-83.5 -105.5q14 -75 50 -75q19 0 36.5 21t31.5 59l61 -32q-27 -67 -60 -92t-78 -25q-35 0 -60 24.5t-41 65.5
q-14 -12 -29.5 -22.5t-31.5 -20.5zM267 597q-21 0 -39.5 -36t-31.5 -94t-19 -130t-2 -145q63 86 94.5 173t34.5 152q3 80 -37 80z" />
    <glyph glyph-name="uni2116" unicode="&#x2116;" horiz-adv-x="940" 
d="M393 -40h-108l-160 575v-575h-83v708h110l158 -572v572h83v-708zM610 -51q-47 0 -79.5 22t-52.5 58t-29 83.5t-9 98.5q0 54 8.5 102.5t28.5 85t52.5 58.5t80.5 22t80.5 -22t52.5 -58.5t28.5 -85t8.5 -102.5q0 -51 -9 -98.5t-29 -83.5t-52.5 -58t-79.5 -22zM610 413
q-25 0 -41.5 -17t-26.5 -45.5t-14 -65t-4 -74.5q0 -43 6 -79t17.5 -62t27 -40.5t35.5 -14.5t36 14.5t27 40.5t17 62t6 79q0 38 -4 74.5t-14 65t-26.5 45.5t-41.5 17zM901 -40h-101v101h101v-101z" />
    <glyph glyph-name="uni2121" unicode="&#x2121;" horiz-adv-x="940" 
d="M11 591v77h412v-77h-165v-631h-89v631h-158zM631 264q-1 19 -6 44.5t-15.5 48t-28.5 38t-45 15.5q-29 0 -48 -15.5t-31 -38t-18 -48t-7 -44.5h199zM705 10q-38 -30 -76 -45t-82 -15q-41 0 -77 17t-63 50.5t-43 83t-16 114.5q0 57 12.5 105.5t36.5 84t59 55t80 19.5
q52 0 87.5 -22.5t57 -61.5t30 -91t5.5 -111h-284q2 -91 34.5 -132.5t86.5 -41.5q67 0 132 46zM876 698v-738h-86v738h86z" />
    <glyph glyph-name="trademark" unicode="&#x2122;" horiz-adv-x="800" 
d="M672 366v196l-79 -196h-44l-82 196v-196h-73v350h71l106 -250l101 250h73v-350h-73zM233 647v-281h-77v281h-112v69h303v-69h-114z" />
    <glyph glyph-name="Omega" unicode="&#x2126;" horiz-adv-x="760" 
d="M380 600q-57 0 -99.5 -20t-71 -54.5t-42.5 -81.5t-14 -101q0 -53 14 -102.5t37.5 -92t54.5 -75.5t64 -52v-61h-273v76h145q-27 22 -51 54t-41.5 71t-28 85t-10.5 96q0 75 21.5 136t62 104.5t99.5 67t133 23.5t133 -23.5t99.5 -67t62 -104.5t21.5 -136q0 -50 -10.5 -96
t-28 -85t-41.5 -71t-51 -54h145v-76h-273v61q33 19 64 52t54.5 75.5t37.5 92t14 102.5q0 54 -14 101t-42.5 81.5t-71 54.5t-99.5 20z" />
    <glyph glyph-name="uni212B" unicode="&#x212b;" horiz-adv-x="600" 
d="M433 114h-268l-59 -154h-89l233 588h99l233 -588h-89zM192 183h214l-106 275h-1zM389 689q0 -18 -7 -34.5t-19.5 -28.5t-29 -19.5t-34.5 -7.5t-34.5 7.5t-29 19.5t-20 28.5t-7.5 34.5t7.5 34.5t20 28.5t29 19.5t34.5 7.5t34.5 -7.5t29 -19.5t19.5 -28.5t7 -34.5zM340 689
q0 17 -12 29.5t-29 12.5q-18 0 -30 -12.5t-12 -29.5t12 -29.5t30 -12.5q17 0 29 12.5t12 29.5z" />
    <glyph glyph-name="onethird" unicode="&#x2153;" horiz-adv-x="720" 
d="M46 599l92 48h48v-372h-62v303l-52 -29zM134 -40h-59l433 691h59zM452 57q16 -8 37.5 -16t44.5 -8q21 0 35.5 5.5t23.5 13.5t13 18.5t4 19.5q0 31 -26.5 44.5t-60.5 13.5h-30v54h30q13 0 26 3t23.5 9.5t17 16t6.5 23.5q0 17 -12 29.5t-44 12.5q-20 0 -40 -8.5t-34 -19.5
l-26 48q49 39 109 39q29 0 50 -8t34.5 -21.5t20 -30t6.5 -34.5q0 -23 -11.5 -46t-33.5 -37q26 -11 42 -33.5t16 -55.5q0 -23 -8.5 -43.5t-26 -36t-43.5 -25t-60 -9.5q-32 0 -58.5 8.5t-52.5 23.5z" />
    <glyph glyph-name="twothirds" unicode="&#x2154;" horiz-adv-x="720" 
d="M188 -40h-59l433 691h59zM457 57q16 -8 37.5 -16t44.5 -8q21 0 35.5 5.5t23.5 13.5t13 18.5t4 19.5q0 31 -26.5 44.5t-60.5 13.5h-30v54h30q13 0 26 3t23.5 9.5t17 16t6.5 23.5q0 17 -12 29.5t-44 12.5q-20 0 -40 -8.5t-34 -19.5l-26 48q49 39 109 39q29 0 50 -8
t34.5 -21.5t20 -30t6.5 -34.5q0 -23 -11.5 -46t-33.5 -37q26 -11 42 -33.5t16 -55.5q0 -23 -8.5 -43.5t-26 -36t-43.5 -25t-60 -9.5q-32 0 -58.5 8.5t-52.5 23.5zM46 319q47 45 79 77t51.5 56.5t28.5 43.5t10 37q2 26 -12.5 42t-46.5 16q-20 0 -41 -13.5t-41 -35.5l-34 49
q54 59 125 59q29 0 50.5 -10t35.5 -25.5t21 -35.5t7 -40q-2 -26 -11 -49.5t-25.5 -47.5t-41 -50.5t-57.5 -57.5h145v-59h-243v44z" />
    <glyph glyph-name="oneeighth" unicode="&#x215b;" horiz-adv-x="720" 
d="M672 87q0 -26 -10 -46.5t-27 -35t-40 -22.5t-50 -8q-58 0 -91.5 30.5t-33.5 73.5q0 26 14 51t45 42q-27 17 -36.5 39t-9.5 41q0 48 32.5 75.5t83.5 27.5q27 0 48 -8t34.5 -21.5t20.5 -30.5t7 -36q0 -17 -11.5 -39t-37.5 -41q33 -17 47.5 -41t14.5 -51zM609 81
q0 25 -17.5 40.5t-51.5 27.5q-29 -12 -43 -29t-14 -34q0 -23 16.5 -40t46.5 -17q28 0 45.5 15t17.5 37zM491 256q0 -20 14 -32.5t46 -24.5q50 22 50 56q0 19 -14 33.5t-40 14.5t-41 -14t-15 -33zM46 599l92 48h48v-372h-62v303l-52 -29zM134 -40h-59l433 691h59z" />
    <glyph glyph-name="threeeighths" unicode="&#x215c;" horiz-adv-x="720" 
d="M687 87q0 -26 -10 -46.5t-27 -35t-40 -22.5t-50 -8q-58 0 -91.5 30.5t-33.5 73.5q0 26 14 51t45 42q-27 17 -36.5 39t-9.5 41q0 48 32.5 75.5t83.5 27.5q27 0 48 -8t34.5 -21.5t20.5 -30.5t7 -36q0 -17 -11.5 -39t-37.5 -41q33 -17 47.5 -41t14.5 -51zM624 81
q0 25 -17.5 40.5t-51.5 27.5q-29 -12 -43 -29t-14 -34q0 -23 16.5 -40t46.5 -17q28 0 45.5 15t17.5 37zM506 256q0 -20 14 -32.5t46 -24.5q50 22 50 56q0 19 -14 33.5t-40 14.5t-41 -14t-15 -33zM164 -40h-59l433 691h59zM48 353q16 -8 37.5 -16t44.5 -8q21 0 35.5 5.5
t23.5 13.5t13 18.5t4 19.5q0 31 -26.5 44.5t-60.5 13.5h-30v54h30q13 0 26 3t23.5 9.5t17 16t6.5 23.5q0 17 -12 29.5t-44 12.5q-20 0 -40 -8.5t-34 -19.5l-26 48q49 39 109 39q29 0 50 -8t34.5 -21.5t20 -30t6.5 -34.5q0 -23 -11.5 -46t-33.5 -37q26 -11 42 -33.5t16 -55.5
q0 -23 -8.5 -43.5t-26 -36t-43.5 -25t-60 -9.5q-32 0 -58.5 8.5t-52.5 23.5z" />
    <glyph glyph-name="fiveeighths" unicode="&#x215d;" horiz-adv-x="720" 
d="M130 591l-12 -73q5 1 16 1q27 0 51 -7t42.5 -21.5t29.5 -36.5t11 -52q0 -29 -10.5 -53.5t-29 -42t-44 -27.5t-55.5 -10q-31 0 -56 8.5t-42 19.5l17 56q14 -9 36.5 -17t44.5 -8q33 0 55 18t22 50q0 29 -22 48.5t-72 19.5q-15 0 -30.5 -1.5t-30.5 -3.5l26 190h184v-58h-131
zM687 87q0 -26 -10 -46.5t-27 -35t-40 -22.5t-50 -8q-58 0 -91.5 30.5t-33.5 73.5q0 26 14 51t45 42q-27 17 -36.5 39t-9.5 41q0 48 32.5 75.5t83.5 27.5q27 0 48 -8t34.5 -21.5t20.5 -30.5t7 -36q0 -17 -11.5 -39t-37.5 -41q33 -17 47.5 -41t14.5 -51zM624 81
q0 25 -17.5 40.5t-51.5 27.5q-29 -12 -43 -29t-14 -34q0 -23 16.5 -40t46.5 -17q28 0 45.5 15t17.5 37zM506 256q0 -20 14 -32.5t46 -24.5q50 22 50 56q0 19 -14 33.5t-40 14.5t-41 -14t-15 -33zM164 -40h-59l433 691h59z" />
    <glyph glyph-name="seveneighths" unicode="&#x215e;" horiz-adv-x="720" 
d="M298 606l-159 -336h-67l152 320h-166v59h240v-43zM677 87q0 -26 -10 -46.5t-27 -35t-40 -22.5t-50 -8q-58 0 -91.5 30.5t-33.5 73.5q0 26 14 51t45 42q-27 17 -36.5 39t-9.5 41q0 48 32.5 75.5t83.5 27.5q27 0 48 -8t34.5 -21.5t20.5 -30.5t7 -36q0 -17 -11.5 -39
t-37.5 -41q33 -17 47.5 -41t14.5 -51zM614 81q0 25 -17.5 40.5t-51.5 27.5q-29 -12 -43 -29t-14 -34q0 -23 16.5 -40t46.5 -17q28 0 45.5 15t17.5 37zM496 256q0 -20 14 -32.5t46 -24.5q50 22 50 56q0 19 -14 33.5t-40 14.5t-41 -14t-15 -33zM135 -40h-59l433 691h59z" />
    <glyph glyph-name="uni2160" unicode="&#x2160;" horiz-adv-x="940" 
d="M514 -40h-89v708h89v-708z" />
    <glyph glyph-name="uni2161" unicode="&#x2161;" horiz-adv-x="940" 
d="M394 -40h-89v708h89v-708zM635 -40h-89v708h89v-708z" />
    <glyph glyph-name="uni2162" unicode="&#x2162;" horiz-adv-x="940" 
d="M274 -40h-89v708h89v-708zM515 -40h-89v708h89v-708zM754 -40h-89v708h89v-708z" />
    <glyph glyph-name="uni2163" unicode="&#x2163;" horiz-adv-x="940" 
d="M231 -40h-89v708h89v-708zM575 55h1l191 613h91l-233 -708h-99l-233 708h91z" />
    <glyph glyph-name="uni2164" unicode="&#x2164;" horiz-adv-x="940" 
d="M469 55h1l191 613h91l-233 -708h-99l-233 708h91z" />
    <glyph glyph-name="uni2165" unicode="&#x2165;" horiz-adv-x="940" 
d="M709 668h89v-708h-89v708zM363 55h1l191 613h91l-233 -708h-99l-233 708h91z" />
    <glyph glyph-name="uni2166" unicode="&#x2166;" horiz-adv-x="940" 
d="M288 66l134 602h89l-173 -708h-99l-173 708h89zM663 -40h-89v708h89v-708zM833 -40h-89v708h89v-708z" />
    <glyph glyph-name="uni2167" unicode="&#x2167;" horiz-adv-x="940" 
d="M216 112l86 556h87l-123 -708h-99l-123 708h87zM836 -40h-87v708h87v-708zM680 -40h-87v708h87v-708zM523 -40h-87v708h87v-708z" />
    <glyph glyph-name="uni2168" unicode="&#x2168;" horiz-adv-x="940" 
d="M241 -40h-89v708h89v-708zM528 314l-228 354h99l176 -281l177 281h99l-228 -354l228 -354h-98l-178 282l-177 -282h-98z" />
    <glyph glyph-name="uni2169" unicode="&#x2169;" horiz-adv-x="940" 
d="M422 314l-228 354h99l176 -281l177 281h99l-228 -354l228 -354h-98l-178 282l-177 -282h-98z" />
    <glyph glyph-name="uni2170" unicode="&#x2170;" horiz-adv-x="940" 
d="M427 468h86v-508h-86v508zM513 557h-86v111h86v-111z" />
    <glyph glyph-name="uni2171" unicode="&#x2171;" horiz-adv-x="940" 
d="M307 468h86v-508h-86v508zM393 557h-86v111h86v-111zM547 468h86v-508h-86v508zM633 557h-86v111h86v-111z" />
    <glyph glyph-name="uni2172" unicode="&#x2172;" horiz-adv-x="940" 
d="M187 468h86v-508h-86v508zM273 557h-86v111h86v-111zM427 468h86v-508h-86v508zM513 557h-86v111h86v-111zM667 468h86v-508h-86v508zM753 557h-86v111h86v-111z" />
    <glyph glyph-name="uni2173" unicode="&#x2173;" horiz-adv-x="940" 
d="M173 468h86v-508h-86v508zM259 557h-86v111h86v-111zM741 468h86l-190 -508h-104l-188 508h89l152 -431z" />
    <glyph glyph-name="uni2174" unicode="&#x2174;" horiz-adv-x="940" 
d="M625 468h86l-190 -508h-104l-188 508h89l152 -431z" />
    <glyph glyph-name="uni2175" unicode="&#x2175;" horiz-adv-x="940" 
d="M767 -40h-86v508h86v-508zM681 668h86v-111h-86v111zM354 37l152 431h89l-188 -508h-104l-190 508h86z" />
    <glyph glyph-name="uni2176" unicode="&#x2176;" horiz-adv-x="940" 
d="M289 37l132 431h89l-168 -508h-104l-170 508h86zM576 468h86v-508h-86v508zM662 557h-86v111h86v-111zM746 468h86v-508h-86v508zM832 557h-86v111h86v-111z" />
    <glyph glyph-name="uni2177" unicode="&#x2177;" horiz-adv-x="940" 
d="M224 68l83 400h88l-118 -508h-104l-120 508h85zM599 468h84v-508h-84v508zM757 468h84v-508h-84v508zM441 468h84v-508h-84v508zM525 557h-84v111h84v-111zM841 557h-84v111h84v-111zM683 557h-84v111h84v-111z" />
    <glyph glyph-name="uni2178" unicode="&#x2178;" horiz-adv-x="940" 
d="M175 468h86v-508h-86v508zM261 557h-86v111h86v-111zM348 468h91l137 -194l138 194h91l-182 -254l182 -254h-91l-138 194l-137 -194h-91l182 254z" />
    <glyph glyph-name="uni2179" unicode="&#x2179;" horiz-adv-x="940" 
d="M241 468h91l137 -194l138 194h91l-182 -254l182 -254h-91l-138 194l-137 -194h-91l182 254z" />
    <glyph glyph-name="arrowleft" unicode="&#x2190;" horiz-adv-x="940" 
d="M11 300l270 168v-134h647v-68h-647v-134z" />
    <glyph glyph-name="arrowup" unicode="&#x2191;" horiz-adv-x="800" 
d="M437 480v-627h-75v627h-130l168 269l168 -269h-131z" />
    <glyph glyph-name="arrowright" unicode="&#x2192;" horiz-adv-x="940" 
d="M658 132v134h-647v68h647v134l270 -168z" />
    <glyph glyph-name="arrowdown" unicode="&#x2193;" horiz-adv-x="800" 
d="M568 122l-168 -269l-168 269h130v627h75v-627h131z" />
    <glyph glyph-name="arrowboth" unicode="&#x2194;" horiz-adv-x="940" 
d="M300 334h358v134l270 -168l-270 -168v134h-358v-134l-270 168l270 168v-134z" />
    <glyph glyph-name="arrowupdn" unicode="&#x2195;" horiz-adv-x="700" 
d="M517 59l-168 -229l-168 229h130v483h-130l168 229l168 -229h-131v-483h131z" />
    <glyph glyph-name="uni2196" unicode="&#x2196;" horiz-adv-x="940" 
d="M198 645l700 -775l-47 -40l-698 772l-95 -105l-16 263l265 -13z" />
    <glyph glyph-name="uni2197" unicode="&#x2197;" horiz-adv-x="940" 
d="M633 747l265 13l-16 -263l-95 105l-698 -772l-47 40l700 775z" />
    <glyph glyph-name="uni2198" unicode="&#x2198;" horiz-adv-x="940" 
d="M742 -55l-700 775l47 40l698 -772l95 105l16 -263l-265 13z" />
    <glyph glyph-name="uni2199" unicode="&#x2199;" horiz-adv-x="940" 
d="M307 -157l-265 -13l16 263l95 -105l698 772l47 -40l-700 -775z" />
    <glyph glyph-name="arrowdblright" unicode="&#x21d2;" horiz-adv-x="940" 
d="M697 167h-661v66h726l67 67l-68 68h-725v65h661l-107 108l41 45l283 -286l-283 -287l-41 46z" />
    <glyph glyph-name="arrowdblboth" unicode="&#x21d4;" horiz-adv-x="940" 
d="M697 167h-453l107 -108l-41 -46l-283 287l283 286l41 -45l-107 -108h453l-107 108l41 45l283 -286l-283 -287l-41 46zM178 233h584l67 67l-68 68h-582l-67 -68z" />
    <glyph glyph-name="universal" unicode="&#x2200;" horiz-adv-x="600" 
d="M17 668h91l57 -184h268l58 184h91l-233 -708h-99zM299 55h1l112 360h-225z" />
    <glyph glyph-name="partialdiff" unicode="&#x2202;" horiz-adv-x="600" 
d="M115 610q77 31 145 31q66 0 117.5 -27t87 -74t54 -110.5t18.5 -135.5q0 -81 -21 -148t-57.5 -115t-87 -74t-109.5 -26q-49 0 -86.5 17.5t-62.5 47t-38 68.5t-13 83q0 58 18 106.5t49 83t73.5 54t90.5 19.5q54 0 94 -22t66 -61q-3 52 -18 95.5t-41 75t-62.5 49t-83.5 17.5
q-26 0 -53 -5t-59 -18zM268 4q36 0 66 15.5t53 43.5t37.5 65t19.5 81q2 13 0 23t-5 18q-16 39 -50 64.5t-76 25.5q-72 0 -112.5 -44.5t-48.5 -120.5q-8 -78 21 -124.5t95 -46.5z" />
    <glyph glyph-name="existential" unicode="&#x2203;" horiz-adv-x="560" 
d="M78 287v76h314v228h-330v77h419v-708h-435v77h346v250h-314z" />
    <glyph glyph-name="gradient" unicode="&#x2207;" horiz-adv-x="940" 
d="M114 590h711l-352 -630zM746 550h-495l255 -451z" />
    <glyph glyph-name="element" unicode="&#x2208;" horiz-adv-x="940" 
d="M373 14q-58 0 -104 23t-77.5 62t-48.5 91t-17 110t19 107.5t52.5 86.5t80 58t100.5 21h436v-71h-438q-35 0 -65 -14t-52.5 -38t-36 -55t-15.5 -65h607v-72h-607q2 -35 15.5 -66.5t35.5 -55t51 -37.5t63 -14h442v-71h-441z" />
    <glyph glyph-name="suchthat" unicode="&#x220b;" horiz-adv-x="940" 
d="M126 14v71h442q34 0 63 14t51 37.5t35.5 55t15.5 66.5h-607v72h607q-2 34 -15.5 65t-36 55t-52.5 38t-65 14h-438v71h436q54 0 100.5 -21t80 -58t52.5 -86.5t19 -107.5t-17 -110t-48.5 -91t-77.5 -62t-104 -23h-441z" />
    <glyph glyph-name="product" unicode="&#x220f;" horiz-adv-x="688" 
d="M536 592v-642h-94v642h-207v-642h-91v642h-124v75h640v-75h-124z" />
    <glyph glyph-name="summation" unicode="&#x2211;" horiz-adv-x="700" 
d="M72 -40v35l304 319l-304 297v57h554v-78h-427l286 -270l-273 -281h415v-79h-555z" />
    <glyph glyph-name="radical" unicode="&#x221a;" horiz-adv-x="520" 
d="M365 -181h-18l-214 476l-92 -59l-28 47l154 94l168 -376l137 764h68z" />
    <glyph glyph-name="proportional" unicode="&#x221d;" horiz-adv-x="940" 
d="M825 140q-57 -41 -128 -41q-32 0 -58.5 10t-49 27t-41.5 39.5t-35 48.5q-42 -66 -91 -95.5t-109 -29.5q-41 0 -76.5 16.5t-61.5 44t-41.5 64t-15.5 76.5q0 42 14.5 79.5t40.5 65t61.5 43.5t78.5 16q63 0 111.5 -28t88.5 -95q39 60 82 90.5t103 30.5q72 0 128 -39l-34 -62
q-44 29 -96 29q-26 0 -46.5 -10.5t-37 -28t-30.5 -40.5t-27 -47q10 -21 23.5 -44.5t31 -43t40 -32.5t50.5 -13q23 0 44 5.5t47 24.5zM469 303q-14 26 -30 49.5t-34.5 41.5t-41.5 29t-50 11t-49 -11t-37.5 -29.5t-24 -42.5t-8.5 -51q0 -24 9.5 -47.5t25.5 -41.5t38 -29.5
t46 -11.5q29 0 51 10t40 27.5t33.5 42t31.5 53.5z" />
    <glyph glyph-name="infinity" unicode="&#x221e;" horiz-adv-x="800" 
d="M731 327q0 -35 -13 -65t-35.5 -53t-52.5 -36t-64 -13q-101 0 -166 104q-29 -51 -67.5 -76t-100.5 -25q-35 0 -64.5 13t-52 36t-35 53t-12.5 65t13.5 65.5t36.5 53t54 35t66 12.5q99 0 161 -104q31 54 71.5 79t94.5 25q35 0 65.5 -13t53 -36t35 -53.5t12.5 -66.5zM667 328
q0 21 -8 40.5t-22 34.5t-32 24t-39 9q-25 0 -44 -8t-34 -22.5t-27.5 -34t-25.5 -43.5q23 -46 53 -77t77 -31q22 0 41 8.5t32.5 23.5t21 34.5t7.5 41.5zM234 223q24 0 43 7.5t34 21.5t28 32.5t26 41.5q-11 21 -24 41t-29 35.5t-34.5 24.5t-41.5 9q-44 0 -73.5 -30.5
t-29.5 -74.5q0 -22 7.5 -41.5t21 -34.5t32 -23.5t40.5 -8.5z" />
    <glyph glyph-name="angle" unicode="&#x2220;" horiz-adv-x="800" 
d="M96 -20v47l470 559l54 -40l-418 -497h506v-69h-612z" />
    <glyph glyph-name="logicaland" unicode="&#x2227;" horiz-adv-x="940" 
d="M802 -20h-81l-250 510l-254 -510h-80l334 663z" />
    <glyph glyph-name="logicalor" unicode="&#x2228;" horiz-adv-x="940" 
d="M471 -40l-334 663h80l254 -510l250 510h81z" />
    <glyph glyph-name="intersection" unicode="&#x2229;" horiz-adv-x="800" 
d="M671 -41h-77v413q0 46 -13 84t-37.5 65t-61 42t-82.5 15q-94 0 -144.5 -55t-50.5 -149v-415h-77v424q0 58 19.5 107.5t55.5 84.5t86 55t111 20q57 0 106.5 -19.5t86 -55t57.5 -84t21 -106.5v-426z" />
    <glyph glyph-name="union" unicode="&#x222a;" horiz-adv-x="800" 
d="M671 224q0 -58 -21 -106.5t-57.5 -84t-86 -55t-106.5 -19.5q-61 0 -111 20t-86 55t-55.5 84t-19.5 108v424h77v-415q0 -94 50.5 -149t144.5 -55q46 0 82.5 15t61 42t37.5 65t13 84v413h77v-426v0z" />
    <glyph glyph-name="integral" unicode="&#x222b;" horiz-adv-x="440" 
d="M273 13q1 -32 -4.5 -58.5t-20 -45.5t-39.5 -30t-61 -11q-17 0 -36.5 2.5t-42.5 9.5v70q19 -6 34 -8.5t27 -2.5q35 0 49.5 21t14.5 53l-27 574q-2 31 4 58t20.5 46t39.5 30t61 11q32 0 79 -12v-70q-39 11 -61 11q-36 0 -50 -21t-14 -53z" />
    <glyph glyph-name="uni222C" unicode="&#x222c;" horiz-adv-x="680" 
d="M268 13q1 -32 -4.5 -58.5t-20 -45.5t-39.5 -30t-61 -11q-17 0 -36.5 2.5t-42.5 9.5v70q19 -6 34 -8.5t27 -2.5q35 0 50.5 21t13.5 53l-27 574q-2 31 4 58t20.5 46t39.5 30t61 11q32 0 79 -12v-70q-39 11 -61 11q-36 0 -51 -21t-13 -53zM517 13q1 -32 -4.5 -58.5
t-20 -45.5t-39.5 -30t-61 -11q-17 0 -36.5 2.5t-42.5 9.5v70q19 -6 34 -8.5t27 -2.5q35 0 50.5 21t13.5 53l-27 574q-2 31 4 58t20.5 46t39.5 30t61 11q32 0 79 -12v-70q-39 11 -61 11q-36 0 -51 -21t-13 -53z" />
    <glyph glyph-name="uni222E" unicode="&#x222e;" horiz-adv-x="600" 
d="M356 472q62 -14 101.5 -57.5t39.5 -112.5q0 -39 -13.5 -70.5t-37.5 -54t-56 -35t-69 -15.5l-11 -114q-3 -32 -12.5 -58.5t-27 -45.5t-44 -30t-62.5 -11q-17 0 -36.5 2.5t-40.5 9.5l10 70q18 -6 32.5 -8.5t26.5 -2.5q35 0 52.5 21t22.5 53l12 119q-60 14 -98.5 57.5
t-38.5 112.5q0 39 13 69.5t36.5 53t55 36t67.5 16.5l11 110q3 31 12.5 58t27 46t44 30t62.5 11q32 0 77 -12l-10 -70q-18 5 -32.5 8t-26.5 3q-36 0 -53 -21t-22 -53zM421 302q0 38 -19 64.5t-53 37.5l-21 -209q43 8 68 36t25 71zM182 303q0 -37 18 -63t50 -38l21 206
q-41 -8 -65 -35.5t-24 -69.5z" />
    <glyph glyph-name="therefore" unicode="&#x2234;" horiz-adv-x="940" 
d="M535 516q0 -28 -19.5 -48t-47.5 -20t-47.5 20t-19.5 48q0 27 19.5 47t47.5 20t47.5 -20t19.5 -47zM771 117q0 -29 -19.5 -48.5t-47.5 -19.5q-27 0 -47.5 20t-20.5 48q0 27 20.5 46.5t47.5 19.5q28 0 47.5 -19.5t19.5 -46.5zM303 117q0 -28 -20 -48t-47 -20
q-29 0 -48.5 20t-19.5 48q0 27 20 46.5t48 19.5q27 0 47 -19.5t20 -46.5z" />
    <glyph glyph-name="uni2235" unicode="&#x2235;" horiz-adv-x="940" 
d="M535 116q0 -27 -19.5 -47t-47.5 -20t-47.5 20t-19.5 47q0 28 19.5 48t47.5 20t47.5 -20t19.5 -48zM771 515q0 -27 -19.5 -46.5t-47.5 -19.5q-27 0 -47.5 19.5t-20.5 46.5q0 28 20.5 48t47.5 20q28 0 47.5 -19.5t19.5 -48.5zM303 515q0 -27 -20 -46.5t-47 -19.5
q-28 0 -48 19.5t-20 46.5q0 28 19.5 48t48.5 20q27 0 47 -20t20 -48z" />
    <glyph glyph-name="similar" unicode="&#x223c;" horiz-adv-x="940" 
d="M805 323q-100 -82 -211 -82q-68 0 -141 45q-59 35 -113 35q-103 0 -182 -58l-24 26q107 89 206 89q64 0 132 -38q70 -40 122 -40q54 0 101 13t86 37l24 -27v0z" />
    <glyph glyph-name="uni223D" unicode="&#x223d;" horiz-adv-x="940" 
d="M867 299q0 -42 -15.5 -78.5t-42.5 -64t-63.5 -43.5t-78.5 -16q-24 0 -54 8.5t-62 30.5l36 54q19 -11 41.5 -18t38.5 -7q27 0 49.5 11t39.5 29.5t26.5 42.5t9.5 51q0 25 -9.5 48t-26.5 40t-39.5 27.5t-49.5 10.5q-29 0 -52 -10t-42 -28.5t-35.5 -44t-32.5 -56.5
q-23 -43 -44.5 -77.5t-47.5 -59t-59.5 -38t-80.5 -14.5q-45 -1 -82 13t-63.5 40.5t-41 64t-14.5 84.5q0 44 15.5 80t43 61.5t64 39.5t78.5 14q28 0 58.5 -7t58.5 -22l-32 -61q-26 14 -48.5 18t-37.5 4q-27 0 -50 -9.5t-40 -26.5t-26.5 -40t-9.5 -50q0 -28 9.5 -52.5
t26.5 -42.5t40 -27.5t50 -8.5q33 1 57 12t42.5 29.5t33.5 45t32 58.5q21 42 43.5 75t49 56.5t60 36t77.5 12.5t80.5 -15t63 -41.5t41.5 -62t15 -76.5z" />
    <glyph glyph-name="uni2252" unicode="&#x2252;" horiz-adv-x="740" 
d="M83 354v66h574v-66h-574zM83 181v65h574v-65h-574zM268 552q0 -26 -18.5 -44t-44.5 -18t-44 18t-18 44t18 44.5t44 18.5t44.5 -18.5t18.5 -44.5zM597 48q0 -26 -18.5 -44t-44.5 -18t-44 18t-18 44t18 44.5t44 18.5t44.5 -18.5t18.5 -44.5z" />
    <glyph glyph-name="notequal" unicode="&#x2260;" horiz-adv-x="740" 
d="M356 171l-37 -143h-70l36 143h-202v65h219l32 128h-251v66h268l33 130h71l-33 -130h235v-66h-252l-33 -128h285v-65h-301z" />
    <glyph glyph-name="equivalence" unicode="&#x2261;" horiz-adv-x="840" 
d="M132 428v70h575v-70h-575zM132 267v70h575v-70h-575zM132 106v70h575v-70h-575z" />
    <glyph glyph-name="lessequal" unicode="&#x2264;" horiz-adv-x="700" 
d="M88 366v54l524 217v-74l-409 -170l409 -170v-72zM88 17v70h524v-70h-524z" />
    <glyph glyph-name="greaterequal" unicode="&#x2265;" horiz-adv-x="700" 
d="M88 151v72l409 170l-409 170v74l524 -217v-54zM88 17v70h524v-70h-524z" />
    <glyph glyph-name="uni226A" unicode="&#x226a;" horiz-adv-x="940" 
d="M628 12l-34 -52l-494 340l487 351l36 -51l-414 -300zM839 12l-34 -52l-494 340l487 351l36 -51l-414 -300z" />
    <glyph glyph-name="uni226B" unicode="&#x226b;" horiz-adv-x="940" 
d="M730 300l-414 300l36 51l487 -351l-494 -340l-34 52zM519 300l-414 300l36 51l487 -351l-494 -340l-34 52z" />
    <glyph glyph-name="propersubset" unicode="&#x2282;" horiz-adv-x="940" 
d="M373 14q-58 0 -104 23t-77.5 62t-48.5 91t-17 110t19 107.5t52.5 86.5t80 58t100.5 21h436v-71h-438q-35 0 -66 -14t-54 -40t-36.5 -63.5t-13.5 -84.5q0 -53 13.5 -93t36 -67t52.5 -41t64 -14h442v-71h-441z" />
    <glyph glyph-name="propersuperset" unicode="&#x2283;" horiz-adv-x="940" 
d="M126 14v71h442q34 0 64 14t52.5 41t36 67t13.5 93q0 47 -13.5 84.5t-36.5 63.5t-54 40t-66 14h-438v71h436q54 0 100.5 -21t80 -58t52.5 -86.5t19 -107.5t-17 -110t-48.5 -91t-77.5 -62t-104 -23h-441z" />
    <glyph glyph-name="reflexsubset" unicode="&#x2286;" horiz-adv-x="940" 
d="M335 147q-50 0 -89.5 16t-67 45t-42.5 69t-15 88t17 86.5t46.5 66t70 42.5t87.5 15h466v-72h-468q-66 0 -104.5 -38.5t-38.5 -103.5q0 -30 10 -56.5t28 -45.5t43.5 -30t56.5 -11h473v-71h-473zM132 -19v71h677v-71h-677z" />
    <glyph glyph-name="reflexsuperset" unicode="&#x2287;" horiz-adv-x="940" 
d="M122 147v71h473q31 0 56.5 11t43.5 30t28 45.5t10 56.5q0 65 -38.5 103.5t-104.5 38.5h-468v72h466q47 0 87.5 -15t70 -42.5t46.5 -66t17 -86.5t-15 -88t-42.5 -69t-67.5 -45t-89 -16h-473zM121 -19v71h677v-71h-677z" />
    <glyph glyph-name="uni2299" unicode="&#x2299;" horiz-adv-x="940" 
d="M869 300q0 -83 -31 -155.5t-85 -126.5t-126.5 -85t-156.5 -31q-79 0 -151 29.5t-126.5 82.5t-87 126t-32.5 160q0 82 31 154.5t84.5 126.5t126 85t155.5 31q79 0 151.5 -29.5t127.5 -82t87.5 -125.5t32.5 -160zM814 300q0 71 -27 134t-73.5 109.5t-109 73.5t-134.5 27
q-69 0 -131 -25.5t-109 -71.5t-74.5 -109t-27.5 -138q0 -71 26.5 -134t72.5 -109.5t108.5 -73.5t134.5 -27q69 0 131 25.5t109.5 71t75.5 109t28 138.5zM591 300q0 -25 -10 -47t-26.5 -38.5t-38.5 -26.5t-47 -10t-47 10t-38.5 26.5t-26.5 38.5t-10 47q0 26 10 48.5t26.5 39
t38.5 25.5t47 9q24 0 46.5 -9t39 -25.5t26.5 -39t10 -48.5z" />
    <glyph glyph-name="perpendicular" unicode="&#x22a5;" horiz-adv-x="800" 
d="M74 -20v70h285v511h81v-511h285v-70h-651z" />
    <glyph glyph-name="uni2312" unicode="&#x2312;" horiz-adv-x="540" 
d="M270 686q-48 0 -80.5 -22.5t-46.5 -65.5h-76q20 72 72.5 112t130.5 40t130.5 -40t72.5 -112h-76q-14 43 -46.5 65.5t-80.5 22.5z" />
    <glyph glyph-name="uni2460" unicode="&#x2460;" horiz-adv-x="940" 
d="M363 433l-32 61l126 67h62v-516h-80v430zM913 300q0 -92 -34.5 -172.5t-94 -140.5t-140.5 -94.5t-174 -34.5q-88 0 -168 33t-140.5 92t-96.5 140t-36 177q0 91 34 171.5t93.5 140.5t140 94.5t173.5 34.5q88 0 168.5 -32.5t141.5 -91t97 -139.5t36 -178zM852 300
q0 79 -29.5 148.5t-81.5 121.5t-121.5 82t-149.5 30q-76 0 -145 -28.5t-121 -79.5t-83 -121t-31 -153q0 -79 29.5 -148.5t80.5 -121.5t120.5 -82t149.5 -30q76 0 145.5 28.5t122 79t83.5 120.5t31 154z" />
    <glyph glyph-name="uni2461" unicode="&#x2461;" horiz-adv-x="940" 
d="M311 100q66 63 111 108.5t72.5 80t40.5 61.5t14 54q2 38 -18 62t-68 24q-29 0 -59.5 -18.5t-56.5 -46.5l-42 60q36 38 77.5 59t92.5 21q40 0 69.5 -13.5t49 -35t29 -49t8.5 -55.5q-2 -36 -15 -69.5t-37.5 -68t-60.5 -72.5t-84 -83h211v-74h-334v55zM913 300
q0 -92 -34.5 -172.5t-94 -140.5t-140.5 -94.5t-174 -34.5q-88 0 -168 33t-140.5 92t-96.5 140t-36 177q0 91 34 171.5t93.5 140.5t140 94.5t173.5 34.5q88 0 168.5 -32.5t141.5 -91t97 -139.5t36 -178zM852 300q0 79 -29.5 148.5t-81.5 121.5t-121.5 82t-149.5 30
q-76 0 -145 -28.5t-121 -79.5t-83 -121t-31 -153q0 -79 29.5 -148.5t80.5 -121.5t120.5 -82t149.5 -30q76 0 145.5 28.5t122 79t83.5 120.5t31 154z" />
    <glyph glyph-name="uni2462" unicode="&#x2462;" horiz-adv-x="940" 
d="M341 143q20 -13 49.5 -23.5t64.5 -10.5q32 0 53.5 8t34 20.5t18 27.5t5.5 29q0 23 -10.5 39.5t-28 26.5t-40.5 14.5t-48 4.5h-39v69h39q19 0 38.5 4.5t35 14.5t25 24t9.5 34q0 26 -18 44.5t-65 18.5q-28 0 -56.5 -11.5t-47.5 -25.5l-35 60q68 52 151 52q40 0 68.5 -11
t47 -29t27.5 -41t9 -47q0 -30 -16.5 -62.5t-56.5 -55.5q38 -14 65 -45t27 -80q0 -31 -11.5 -59.5t-35.5 -50t-60 -34.5t-83 -13q-44 0 -80.5 11.5t-71.5 31.5zM913 300q0 -92 -34.5 -172.5t-94 -140.5t-140.5 -94.5t-174 -34.5q-88 0 -168 33t-140.5 92t-96.5 140t-36 177
q0 91 34 171.5t93.5 140.5t140 94.5t173.5 34.5q88 0 168.5 -32.5t141.5 -91t97 -139.5t36 -178zM852 300q0 79 -29.5 148.5t-81.5 121.5t-121.5 82t-149.5 30q-76 0 -145 -28.5t-121 -79.5t-83 -121t-31 -153q0 -79 29.5 -148.5t80.5 -121.5t120.5 -82t149.5 -30
q76 0 145.5 28.5t122 79t83.5 120.5t31 154z" />
    <glyph glyph-name="uni2463" unicode="&#x2463;" horiz-adv-x="940" 
d="M485 139h-223v57l216 368h85v-353h63v-72h-63v-94h-78v94zM485 440l-135 -229h135v229zM913 300q0 -92 -34.5 -172.5t-94 -140.5t-140.5 -94.5t-174 -34.5q-88 0 -168 33t-140.5 92t-96.5 140t-36 177q0 91 34 171.5t93.5 140.5t140 94.5t173.5 34.5q88 0 168.5 -32.5
t141.5 -91t97 -139.5t36 -178zM852 300q0 79 -29.5 148.5t-81.5 121.5t-121.5 82t-149.5 30q-76 0 -145 -28.5t-121 -79.5t-83 -121t-31 -153q0 -79 29.5 -148.5t80.5 -121.5t120.5 -82t149.5 -30q76 0 145.5 28.5t122 79t83.5 120.5t31 154z" />
    <glyph glyph-name="uni2464" unicode="&#x2464;" horiz-adv-x="940" 
d="M439 485l-15 -108q6 1 12 1h12q37 0 70 -10t58.5 -30.5t40.5 -51t15 -71.5q0 -39 -14 -72t-39.5 -57t-60.5 -37.5t-77 -13.5t-76.5 11t-56.5 25l23 72q18 -11 48 -22.5t62 -11.5q48 0 80 26t32 72q0 44 -32 71.5t-105 27.5q-17 0 -31 -1t-26 -3q-2 0 -11 -0.5t-11 -0.5
l33 258h252v-74h-183zM913 300q0 -92 -34.5 -172.5t-94 -140.5t-140.5 -94.5t-174 -34.5q-88 0 -168 33t-140.5 92t-96.5 140t-36 177q0 91 34 171.5t93.5 140.5t140 94.5t173.5 34.5q88 0 168.5 -32.5t141.5 -91t97 -139.5t36 -178zM852 300q0 79 -29.5 148.5t-81.5 121.5
t-121.5 82t-149.5 30q-76 0 -145 -28.5t-121 -79.5t-83 -121t-31 -153q0 -79 29.5 -148.5t80.5 -121.5t120.5 -82t149.5 -30q76 0 145.5 28.5t122 79t83.5 120.5t31 154z" />
    <glyph glyph-name="uni2465" unicode="&#x2465;" horiz-adv-x="940" 
d="M597 493q-51 2 -94 -11.5t-74 -44.5q-17 -17 -28.5 -37.5t-18.5 -47.5q45 39 102 39q34 0 62 -12t48 -34.5t31.5 -54t11.5 -69.5q0 -36 -11.5 -69.5t-33 -59t-52.5 -41t-71 -15.5t-72.5 15.5t-56 44.5t-36 70t-12.5 91q0 76 23 134t61 97q41 42 94.5 59.5t119.5 19.5z
M470 107q42 0 63.5 29.5t21.5 79.5q0 49 -22.5 77.5t-67.5 28.5q-27 0 -50 -16.5t-37 -41.5q-5 -10 -5 -24q0 -28 6.5 -52.5t19 -42.5t30.5 -28t41 -10zM913 300q0 -92 -34.5 -172.5t-94 -140.5t-140.5 -94.5t-174 -34.5q-88 0 -168 33t-140.5 92t-96.5 140t-36 177
q0 91 34 171.5t93.5 140.5t140 94.5t173.5 34.5q88 0 168.5 -32.5t141.5 -91t97 -139.5t36 -178zM852 300q0 79 -29.5 148.5t-81.5 121.5t-121.5 82t-149.5 30q-76 0 -145 -28.5t-121 -79.5t-83 -121t-31 -153q0 -79 29.5 -148.5t80.5 -121.5t120.5 -82t149.5 -30
q76 0 145.5 28.5t122 79t83.5 120.5t31 154z" />
    <glyph glyph-name="uni2466" unicode="&#x2466;" horiz-adv-x="940" 
d="M641 490l-217 -460h-87l210 442h-229v74h323v-56zM913 300q0 -92 -34.5 -172.5t-94 -140.5t-140.5 -94.5t-174 -34.5q-88 0 -168 33t-140.5 92t-96.5 140t-36 177q0 91 34 171.5t93.5 140.5t140 94.5t173.5 34.5q88 0 168.5 -32.5t141.5 -91t97 -139.5t36 -178zM852 300
q0 79 -29.5 148.5t-81.5 121.5t-121.5 82t-149.5 30q-76 0 -145 -28.5t-121 -79.5t-83 -121t-31 -153q0 -79 29.5 -148.5t80.5 -121.5t120.5 -82t149.5 -30q76 0 145.5 28.5t122 79t83.5 120.5t31 154z" />
    <glyph glyph-name="uni2467" unicode="&#x2467;" horiz-adv-x="940" 
d="M913 300q0 -92 -34.5 -172.5t-94 -140.5t-140.5 -94.5t-174 -34.5q-88 0 -168 33t-140.5 92t-96.5 140t-36 177q0 91 34 171.5t93.5 140.5t140 94.5t173.5 34.5q88 0 168.5 -32.5t141.5 -91t97 -139.5t36 -178zM852 300q0 79 -29.5 148.5t-81.5 121.5t-121.5 82
t-149.5 30q-76 0 -145 -28.5t-121 -79.5t-83 -121t-31 -153q0 -79 29.5 -148.5t80.5 -121.5t120.5 -82t149.5 -30q76 0 145.5 28.5t122 79t83.5 120.5t31 154zM644 189q0 -35 -13.5 -63t-37 -48t-55.5 -31t-68 -11q-40 0 -72 11.5t-54.5 31t-34.5 45t-12 54.5q0 38 19 73
t67 60q-41 23 -54.5 53.5t-13.5 58.5q0 32 12 58t33.5 44.5t50.5 28.5t64 10q37 0 66 -11t48 -29.5t29 -42t10 -48.5q0 -13 -3 -28t-10.5 -30.5t-21.5 -30t-35 -27.5q46 -23 66 -56.5t20 -71.5zM563 181q0 37 -25.5 60t-74.5 40q-45 -17 -64.5 -42t-19.5 -51q0 -35 24 -59
t68 -24q41 0 66.5 22t25.5 54zM391 428q0 -32 21 -50t68 -34q35 14 52.5 36t17.5 46q0 28 -19.5 49.5t-58.5 21.5q-38 0 -59.5 -20.5t-21.5 -48.5z" />
    <glyph glyph-name="uni2468" unicode="&#x2468;" horiz-adv-x="940" 
d="M355 110q45 -2 79.5 8t59.5 29t41 46.5t24 61.5q-21 -17 -46 -27t-54 -10q-33 0 -61.5 12.5t-49.5 35t-33 53t-13 66.5q-2 36 8.5 68.5t32 57t53.5 38.5t75 14q37 0 68.5 -15.5t55 -44t36.5 -68.5t13 -90q0 -78 -21 -136.5t-59.5 -97t-91.5 -57.5t-117 -19v75zM467 492
q-46 0 -67 -29t-20 -74q0 -47 23.5 -74t65.5 -27q14 0 30.5 4.5t31 12.5t24 20.5t9.5 28.5q0 29 -7 54t-20 44t-30.5 29.5t-39.5 10.5zM913 300q0 -92 -34.5 -172.5t-94 -140.5t-140.5 -94.5t-174 -34.5q-88 0 -168 33t-140.5 92t-96.5 140t-36 177q0 91 34 171.5
t93.5 140.5t140 94.5t173.5 34.5q88 0 168.5 -32.5t141.5 -91t97 -139.5t36 -178zM852 300q0 79 -29.5 148.5t-81.5 121.5t-121.5 82t-149.5 30q-76 0 -145 -28.5t-121 -79.5t-83 -121t-31 -153q0 -79 29.5 -148.5t80.5 -121.5t120.5 -82t149.5 -30q76 0 145.5 28.5t122 79
t83.5 120.5t31 154z" />
    <glyph glyph-name="uni2469" unicode="&#x2469;" horiz-adv-x="940" 
d="M505 304q0 -103 20.5 -149t54.5 -46t54.5 46t20.5 149t-20.5 148.5t-54.5 45.5t-54.5 -45.5t-20.5 -148.5zM424 304q0 132 40.5 198t115.5 66t115.5 -66t40.5 -198t-40.5 -198t-115.5 -66t-115.5 66t-40.5 198zM228 447l-31 57l107 57h60v-516h-78v432zM913 300
q0 -92 -34.5 -172.5t-94 -140.5t-140.5 -94.5t-174 -34.5q-88 0 -168 33t-140.5 92t-96.5 140t-36 177q0 91 34 171.5t93.5 140.5t140 94.5t173.5 34.5q88 0 168.5 -32.5t141.5 -91t97 -139.5t36 -178zM852 300q0 79 -29.5 148.5t-81.5 121.5t-121.5 82t-149.5 30
q-76 0 -145 -28.5t-121 -79.5t-83 -121t-31 -153q0 -79 29.5 -148.5t80.5 -121.5t120.5 -82t149.5 -30q76 0 145.5 28.5t122 79t83.5 120.5t31 154z" />
    <glyph glyph-name="uni246A" unicode="&#x246a;" horiz-adv-x="940" 
d="M262 447l-31 57l107 57h60v-516h-78v432zM913 300q0 -92 -34.5 -172.5t-94 -140.5t-140.5 -94.5t-174 -34.5q-88 0 -168 33t-140.5 92t-96.5 140t-36 177q0 91 34 171.5t93.5 140.5t140 94.5t173.5 34.5q88 0 168.5 -32.5t141.5 -91t97 -139.5t36 -178zM852 300
q0 79 -29.5 148.5t-81.5 121.5t-121.5 82t-149.5 30q-76 0 -145 -28.5t-121 -79.5t-83 -121t-31 -153q0 -79 29.5 -148.5t80.5 -121.5t120.5 -82t149.5 -30q76 0 145.5 28.5t122 79t83.5 120.5t31 154zM522 447l-31 57l107 57h60v-516h-78v432z" />
    <glyph glyph-name="uni246B" unicode="&#x246b;" horiz-adv-x="940" 
d="M228 447l-31 57l107 57h60v-516h-78v432zM913 300q0 -92 -34.5 -172.5t-94 -140.5t-140.5 -94.5t-174 -34.5q-88 0 -168 33t-140.5 92t-96.5 140t-36 177q0 91 34 171.5t93.5 140.5t140 94.5t173.5 34.5q88 0 168.5 -32.5t141.5 -91t97 -139.5t36 -178zM852 300
q0 79 -29.5 148.5t-81.5 121.5t-121.5 82t-149.5 30q-76 0 -145 -28.5t-121 -79.5t-83 -121t-31 -153q0 -79 29.5 -148.5t80.5 -121.5t120.5 -82t149.5 -30q76 0 145.5 28.5t122 79t83.5 120.5t31 154zM425 100q55 63 93 108.5t61.5 80t34 61.5t11.5 54q2 38 -15 62t-57 24
q-25 0 -50.5 -18t-47.5 -47l-35 60q30 38 65.5 59t77.5 21q37 0 64 -13.5t44.5 -35t25.5 -49t7 -55.5q-1 -36 -13 -69.5t-33.5 -68t-52.5 -72.5t-71 -83h172v-74h-281v55z" />
    <glyph glyph-name="uni246C" unicode="&#x246c;" horiz-adv-x="940" 
d="M228 447l-31 57l107 57h60v-516h-78v432zM913 300q0 -92 -34.5 -172.5t-94 -140.5t-140.5 -94.5t-174 -34.5q-88 0 -168 33t-140.5 92t-96.5 140t-36 177q0 91 34 171.5t93.5 140.5t140 94.5t173.5 34.5q88 0 168.5 -32.5t141.5 -91t97 -139.5t36 -178zM852 300
q0 79 -29.5 148.5t-81.5 121.5t-121.5 82t-149.5 30q-76 0 -145 -28.5t-121 -79.5t-83 -121t-31 -153q0 -79 29.5 -148.5t80.5 -121.5t120.5 -82t149.5 -30q76 0 145.5 28.5t122 79t83.5 120.5t31 154zM435 143q18 -13 46.5 -23.5t60.5 -10.5q30 0 50 8t32.5 20.5t17.5 27.5
t5 29q0 23 -10 39.5t-26.5 26.5t-38 14.5t-45.5 4.5h-37v69h37q18 0 36.5 4.5t33 14.5t23.5 24t9 34q0 26 -17 44.5t-61 18.5q-26 0 -53.5 -11.5t-44.5 -25.5l-33 60q64 52 142 52q39 0 67 -11t46 -29t26.5 -41t8.5 -47q0 -30 -18 -62.5t-56 -55.5q36 -14 64 -45t28 -80
q0 -31 -11 -59.5t-34 -50t-58 -34.5t-81 -13q-41 0 -75.5 11.5t-67.5 31.5z" />
    <glyph glyph-name="uni246D" unicode="&#x246d;" horiz-adv-x="940" 
d="M228 447l-31 57l107 57h60v-516h-78v432zM913 300q0 -92 -34.5 -172.5t-94 -140.5t-140.5 -94.5t-174 -34.5q-88 0 -168 33t-140.5 92t-96.5 140t-36 177q0 91 34 171.5t93.5 140.5t140 94.5t173.5 34.5q88 0 168.5 -32.5t141.5 -91t97 -139.5t36 -178zM852 300
q0 79 -29.5 148.5t-81.5 121.5t-121.5 82t-149.5 30q-76 0 -145 -28.5t-121 -79.5t-83 -121t-31 -153q0 -79 29.5 -148.5t80.5 -121.5t120.5 -82t149.5 -30q76 0 145.5 28.5t122 79t83.5 120.5t31 154zM608 139h-193v57l186 368h85v-353h53v-72h-53v-94h-78v94zM608 442
l-113 -231h113v231z" />
    <glyph glyph-name="uni246E" unicode="&#x246e;" horiz-adv-x="940" 
d="M228 447l-31 57l107 57h60v-516h-78v432zM913 300q0 -92 -34.5 -172.5t-94 -140.5t-140.5 -94.5t-174 -34.5q-88 0 -168 33t-140.5 92t-96.5 140t-36 177q0 91 34 171.5t93.5 140.5t140 94.5t173.5 34.5q88 0 168.5 -32.5t141.5 -91t97 -139.5t36 -178zM852 300
q0 79 -29.5 148.5t-81.5 121.5t-121.5 82t-149.5 30q-76 0 -145 -28.5t-121 -79.5t-83 -121t-31 -153q0 -79 29.5 -148.5t80.5 -121.5t120.5 -82t149.5 -30q76 0 145.5 28.5t122 79t83.5 120.5t31 154zM529 485l-14 -109q8 2 13.5 2h11.5q37 0 70.5 -10t59 -30.5t40.5 -51
t15 -71.5q0 -39 -13.5 -72t-39 -57t-61.5 -37.5t-80 -13.5q-40 0 -73 11t-55 25l33 66q19 -11 44 -19.5t51 -8.5q51 0 82 26.5t31 71.5q0 43 -31.5 71t-103.5 28q-19 0 -37 -1.5t-38 -3.5l30 258h246v-74h-181z" />
    <glyph glyph-name="uni2474" unicode="&#x2474;" horiz-adv-x="940" 
d="M363 433l-32 61l126 67h62v-516h-80v430zM233 718q-37 -41 -63.5 -90.5t-44 -103.5t-26 -110.5t-8.5 -113.5q0 -56 8.5 -114t26 -113t44 -106t63.5 -94h-58q-38 41 -65.5 92t-45.5 106.5t-26.5 114t-8.5 114.5q0 114 35.5 222.5t112.5 195.5h56zM765 718
q77 -87 112.5 -195.5t35.5 -222.5q0 -56 -8.5 -114.5t-26.5 -114t-45.5 -106.5t-65.5 -92h-58q37 43 63.5 94t44 106t26 113t8.5 114q0 57 -8.5 113.5t-26 110.5t-44 103.5t-63.5 90.5h56z" />
    <glyph glyph-name="uni2475" unicode="&#x2475;" horiz-adv-x="940" 
d="M311 100q66 63 111 108.5t72.5 80t40.5 61.5t14 54q2 38 -18 62t-68 24q-29 0 -59.5 -18.5t-56.5 -46.5l-42 60q36 38 77.5 59t92.5 21q40 0 69.5 -13.5t49 -35t29 -49t8.5 -55.5q-2 -36 -15 -69.5t-37.5 -68t-60.5 -72.5t-84 -83h211v-74h-334v55zM233 718
q-37 -41 -63.5 -90.5t-44 -103.5t-26 -110.5t-8.5 -113.5q0 -56 8.5 -114t26 -113t44 -106t63.5 -94h-58q-38 41 -65.5 92t-45.5 106.5t-26.5 114t-8.5 114.5q0 114 35.5 222.5t112.5 195.5h56zM765 718q77 -87 112.5 -195.5t35.5 -222.5q0 -56 -8.5 -114.5t-26.5 -114
t-45.5 -106.5t-65.5 -92h-58q37 43 63.5 94t44 106t26 113t8.5 114q0 57 -8.5 113.5t-26 110.5t-44 103.5t-63.5 90.5h56z" />
    <glyph glyph-name="uni2476" unicode="&#x2476;" horiz-adv-x="940" 
d="M341 143q20 -13 49.5 -23.5t64.5 -10.5q32 0 53.5 8t34 20.5t18 27.5t5.5 29q0 23 -10.5 39.5t-28 26.5t-40.5 14.5t-48 4.5h-39v69h39q19 0 38.5 4.5t35 14.5t25 24t9.5 34q0 26 -18 44.5t-65 18.5q-28 0 -56.5 -11.5t-47.5 -25.5l-35 60q68 52 151 52q40 0 68.5 -11
t47 -29t27.5 -41t9 -47q0 -30 -16.5 -62.5t-56.5 -55.5q38 -14 65 -45t27 -80q0 -31 -11.5 -59.5t-35.5 -50t-60 -34.5t-83 -13q-44 0 -80.5 11.5t-71.5 31.5zM233 718q-37 -41 -63.5 -90.5t-44 -103.5t-26 -110.5t-8.5 -113.5q0 -56 8.5 -114t26 -113t44 -106t63.5 -94h-58
q-38 41 -65.5 92t-45.5 106.5t-26.5 114t-8.5 114.5q0 114 35.5 222.5t112.5 195.5h56zM765 718q77 -87 112.5 -195.5t35.5 -222.5q0 -56 -8.5 -114.5t-26.5 -114t-45.5 -106.5t-65.5 -92h-58q37 43 63.5 94t44 106t26 113t8.5 114q0 57 -8.5 113.5t-26 110.5t-44 103.5
t-63.5 90.5h56z" />
    <glyph glyph-name="uni2477" unicode="&#x2477;" horiz-adv-x="940" 
d="M485 139h-223v57l216 368h85v-353h63v-72h-63v-94h-78v94zM485 440l-135 -229h135v229zM233 718q-37 -41 -63.5 -90.5t-44 -103.5t-26 -110.5t-8.5 -113.5q0 -56 8.5 -114t26 -113t44 -106t63.5 -94h-58q-38 41 -65.5 92t-45.5 106.5t-26.5 114t-8.5 114.5
q0 114 35.5 222.5t112.5 195.5h56zM765 718q77 -87 112.5 -195.5t35.5 -222.5q0 -56 -8.5 -114.5t-26.5 -114t-45.5 -106.5t-65.5 -92h-58q37 43 63.5 94t44 106t26 113t8.5 114q0 57 -8.5 113.5t-26 110.5t-44 103.5t-63.5 90.5h56z" />
    <glyph glyph-name="uni2478" unicode="&#x2478;" horiz-adv-x="940" 
d="M439 485l-15 -108q6 1 12 1h12q37 0 70 -10t58.5 -30.5t40.5 -51t15 -71.5q0 -39 -14 -72t-39.5 -57t-60.5 -37.5t-77 -13.5t-76.5 11t-56.5 25l23 72q18 -11 48 -22.5t62 -11.5q48 0 80 26t32 72q0 44 -32 71.5t-105 27.5q-17 0 -31 -1t-26 -3q-2 0 -11 -0.5t-11 -0.5
l33 258h252v-74h-183zM233 718q-37 -41 -63.5 -90.5t-44 -103.5t-26 -110.5t-8.5 -113.5q0 -56 8.5 -114t26 -113t44 -106t63.5 -94h-58q-38 41 -65.5 92t-45.5 106.5t-26.5 114t-8.5 114.5q0 114 35.5 222.5t112.5 195.5h56zM765 718q77 -87 112.5 -195.5t35.5 -222.5
q0 -56 -8.5 -114.5t-26.5 -114t-45.5 -106.5t-65.5 -92h-58q37 43 63.5 94t44 106t26 113t8.5 114q0 57 -8.5 113.5t-26 110.5t-44 103.5t-63.5 90.5h56z" />
    <glyph glyph-name="uni2479" unicode="&#x2479;" horiz-adv-x="940" 
d="M597 493q-51 2 -94 -11.5t-74 -44.5q-17 -17 -28.5 -37.5t-18.5 -47.5q45 39 102 39q34 0 62 -12t48 -34.5t31.5 -54t11.5 -69.5q0 -36 -11.5 -69.5t-33 -59t-52.5 -41t-71 -15.5t-72.5 15.5t-56 44.5t-36 70t-12.5 91q0 76 23 134t61 97q41 42 94.5 59.5t119.5 19.5z
M470 107q42 0 63.5 29.5t21.5 79.5q0 49 -22.5 77.5t-67.5 28.5q-27 0 -50 -16.5t-37 -41.5q-5 -10 -5 -24q0 -28 6.5 -52.5t19 -42.5t30.5 -28t41 -10zM233 718q-37 -41 -63.5 -90.5t-44 -103.5t-26 -110.5t-8.5 -113.5q0 -56 8.5 -114t26 -113t44 -106t63.5 -94h-58
q-38 41 -65.5 92t-45.5 106.5t-26.5 114t-8.5 114.5q0 114 35.5 222.5t112.5 195.5h56zM765 718q77 -87 112.5 -195.5t35.5 -222.5q0 -56 -8.5 -114.5t-26.5 -114t-45.5 -106.5t-65.5 -92h-58q37 43 63.5 94t44 106t26 113t8.5 114q0 57 -8.5 113.5t-26 110.5t-44 103.5
t-63.5 90.5h56z" />
    <glyph glyph-name="uni247A" unicode="&#x247a;" horiz-adv-x="940" 
d="M641 490l-217 -460h-87l210 442h-229v74h323v-56zM233 718q-37 -41 -63.5 -90.5t-44 -103.5t-26 -110.5t-8.5 -113.5q0 -56 8.5 -114t26 -113t44 -106t63.5 -94h-58q-38 41 -65.5 92t-45.5 106.5t-26.5 114t-8.5 114.5q0 114 35.5 222.5t112.5 195.5h56zM765 718
q77 -87 112.5 -195.5t35.5 -222.5q0 -56 -8.5 -114.5t-26.5 -114t-45.5 -106.5t-65.5 -92h-58q37 43 63.5 94t44 106t26 113t8.5 114q0 57 -8.5 113.5t-26 110.5t-44 103.5t-63.5 90.5h56z" />
    <glyph glyph-name="uni247B" unicode="&#x247b;" horiz-adv-x="940" 
d="M644 189q0 -35 -13.5 -63t-37 -48t-55.5 -31t-68 -11q-40 0 -72 11.5t-54.5 31t-34.5 45t-12 54.5q0 38 19 73t67 60q-41 23 -54.5 53.5t-13.5 58.5q0 32 12 58t33.5 44.5t50.5 28.5t64 10q37 0 66 -11t48 -29.5t29 -42t10 -48.5q0 -13 -3 -28t-10.5 -30.5t-21.5 -30
t-35 -27.5q46 -23 66 -56.5t20 -71.5zM563 181q0 37 -25.5 60t-74.5 40q-45 -17 -64.5 -42t-19.5 -51q0 -35 24 -59t68 -24q41 0 66.5 22t25.5 54zM391 428q0 -32 21 -50t68 -34q35 14 52.5 36t17.5 46q0 28 -19.5 49.5t-58.5 21.5q-38 0 -59.5 -20.5t-21.5 -48.5zM233 718
q-37 -41 -63.5 -90.5t-44 -103.5t-26 -110.5t-8.5 -113.5q0 -56 8.5 -114t26 -113t44 -106t63.5 -94h-58q-38 41 -65.5 92t-45.5 106.5t-26.5 114t-8.5 114.5q0 114 35.5 222.5t112.5 195.5h56zM765 718q77 -87 112.5 -195.5t35.5 -222.5q0 -56 -8.5 -114.5t-26.5 -114
t-45.5 -106.5t-65.5 -92h-58q37 43 63.5 94t44 106t26 113t8.5 114q0 57 -8.5 113.5t-26 110.5t-44 103.5t-63.5 90.5h56z" />
    <glyph glyph-name="uni247C" unicode="&#x247c;" horiz-adv-x="940" 
d="M355 110q45 -2 79.5 8t59.5 29t41 46.5t24 61.5q-21 -17 -46 -27t-54 -10q-33 0 -61.5 12.5t-49.5 35t-33 53t-13 66.5q-2 36 8.5 68.5t32 57t53.5 38.5t75 14q37 0 68.5 -15.5t55 -44t36.5 -68.5t13 -90q0 -78 -21 -136.5t-59.5 -97t-91.5 -57.5t-117 -19v75zM467 492
q-46 0 -67 -29t-20 -74q0 -47 23.5 -74t65.5 -27q14 0 30.5 4.5t31 12.5t24 20.5t9.5 28.5q0 29 -7 54t-20 44t-30.5 29.5t-39.5 10.5zM233 718q-37 -41 -63.5 -90.5t-44 -103.5t-26 -110.5t-8.5 -113.5q0 -56 8.5 -114t26 -113t44 -106t63.5 -94h-58q-38 41 -65.5 92
t-45.5 106.5t-26.5 114t-8.5 114.5q0 114 35.5 222.5t112.5 195.5h56zM765 718q77 -87 112.5 -195.5t35.5 -222.5q0 -56 -8.5 -114.5t-26.5 -114t-45.5 -106.5t-65.5 -92h-58q37 43 63.5 94t44 106t26 113t8.5 114q0 57 -8.5 113.5t-26 110.5t-44 103.5t-63.5 90.5h56z" />
    <glyph glyph-name="uni247D" unicode="&#x247d;" horiz-adv-x="940" 
d="M505 304q0 -103 20.5 -149t54.5 -46t54.5 46t20.5 149t-20.5 148.5t-54.5 45.5t-54.5 -45.5t-20.5 -148.5zM424 304q0 132 40.5 198t115.5 66t115.5 -66t40.5 -198t-40.5 -198t-115.5 -66t-115.5 66t-40.5 198zM228 447l-31 57l107 57h60v-516h-78v432zM233 718
q-37 -41 -63.5 -90.5t-44 -103.5t-26 -110.5t-8.5 -113.5q0 -56 8.5 -114t26 -113t44 -106t63.5 -94h-58q-38 41 -65.5 92t-45.5 106.5t-26.5 114t-8.5 114.5q0 114 35.5 222.5t112.5 195.5h56zM765 718q77 -87 112.5 -195.5t35.5 -222.5q0 -56 -8.5 -114.5t-26.5 -114
t-45.5 -106.5t-65.5 -92h-58q37 43 63.5 94t44 106t26 113t8.5 114q0 57 -8.5 113.5t-26 110.5t-44 103.5t-63.5 90.5h56z" />
    <glyph glyph-name="uni247E" unicode="&#x247e;" horiz-adv-x="940" 
d="M262 447l-31 57l107 57h60v-516h-78v432zM522 447l-31 57l107 57h60v-516h-78v432zM233 718q-37 -41 -63.5 -90.5t-44 -103.5t-26 -110.5t-8.5 -113.5q0 -56 8.5 -114t26 -113t44 -106t63.5 -94h-58q-38 41 -65.5 92t-45.5 106.5t-26.5 114t-8.5 114.5q0 114 35.5 222.5
t112.5 195.5h56zM765 718q77 -87 112.5 -195.5t35.5 -222.5q0 -56 -8.5 -114.5t-26.5 -114t-45.5 -106.5t-65.5 -92h-58q37 43 63.5 94t44 106t26 113t8.5 114q0 57 -8.5 113.5t-26 110.5t-44 103.5t-63.5 90.5h56z" />
    <glyph glyph-name="uni247F" unicode="&#x247f;" horiz-adv-x="940" 
d="M228 447l-31 57l107 57h60v-516h-78v432zM425 100q55 63 93 108.5t61.5 80t34 61.5t11.5 54q2 38 -15 62t-57 24q-25 0 -50.5 -18t-47.5 -47l-35 60q30 38 65.5 59t77.5 21q37 0 64 -13.5t44.5 -35t25.5 -49t7 -55.5q-1 -36 -13 -69.5t-33.5 -68t-52.5 -72.5t-71 -83h172
v-74h-281v55zM233 718q-37 -41 -63.5 -90.5t-44 -103.5t-26 -110.5t-8.5 -113.5q0 -56 8.5 -114t26 -113t44 -106t63.5 -94h-58q-38 41 -65.5 92t-45.5 106.5t-26.5 114t-8.5 114.5q0 114 35.5 222.5t112.5 195.5h56zM765 718q77 -87 112.5 -195.5t35.5 -222.5
q0 -56 -8.5 -114.5t-26.5 -114t-45.5 -106.5t-65.5 -92h-58q37 43 63.5 94t44 106t26 113t8.5 114q0 57 -8.5 113.5t-26 110.5t-44 103.5t-63.5 90.5h56z" />
    <glyph glyph-name="uni2480" unicode="&#x2480;" horiz-adv-x="940" 
d="M228 447l-31 57l107 57h60v-516h-78v432zM435 143q18 -13 46.5 -23.5t60.5 -10.5q30 0 50 8t32.5 20.5t17.5 27.5t5 29q0 23 -10 39.5t-26.5 26.5t-38 14.5t-45.5 4.5h-37v69h37q18 0 36.5 4.5t33 14.5t23.5 24t9 34q0 26 -17 44.5t-61 18.5q-26 0 -53.5 -11.5
t-44.5 -25.5l-33 60q64 52 142 52q39 0 67 -11t46 -29t26.5 -41t8.5 -47q0 -30 -18 -62.5t-56 -55.5q36 -14 64 -45t28 -80q0 -31 -11 -59.5t-34 -50t-58 -34.5t-81 -13q-41 0 -75.5 11.5t-67.5 31.5zM233 718q-37 -41 -63.5 -90.5t-44 -103.5t-26 -110.5t-8.5 -113.5
q0 -56 8.5 -114t26 -113t44 -106t63.5 -94h-58q-38 41 -65.5 92t-45.5 106.5t-26.5 114t-8.5 114.5q0 114 35.5 222.5t112.5 195.5h56zM765 718q77 -87 112.5 -195.5t35.5 -222.5q0 -56 -8.5 -114.5t-26.5 -114t-45.5 -106.5t-65.5 -92h-58q37 43 63.5 94t44 106t26 113
t8.5 114q0 57 -8.5 113.5t-26 110.5t-44 103.5t-63.5 90.5h56z" />
    <glyph glyph-name="uni2481" unicode="&#x2481;" horiz-adv-x="940" 
d="M228 447l-31 57l107 57h60v-516h-78v432zM608 139h-193v57l186 368h85v-353h53v-72h-53v-94h-78v94zM608 442l-113 -231h113v231zM233 718q-37 -41 -63.5 -90.5t-44 -103.5t-26 -110.5t-8.5 -113.5q0 -56 8.5 -114t26 -113t44 -106t63.5 -94h-58q-38 41 -65.5 92
t-45.5 106.5t-26.5 114t-8.5 114.5q0 114 35.5 222.5t112.5 195.5h56zM765 718q77 -87 112.5 -195.5t35.5 -222.5q0 -56 -8.5 -114.5t-26.5 -114t-45.5 -106.5t-65.5 -92h-58q37 43 63.5 94t44 106t26 113t8.5 114q0 57 -8.5 113.5t-26 110.5t-44 103.5t-63.5 90.5h56z" />
    <glyph glyph-name="uni2482" unicode="&#x2482;" horiz-adv-x="940" 
d="M228 447l-31 57l107 57h60v-516h-78v432zM529 485l-14 -109q8 2 13.5 2h11.5q37 0 70.5 -10t59 -30.5t40.5 -51t15 -71.5q0 -39 -13.5 -72t-39 -57t-61.5 -37.5t-80 -13.5q-40 0 -73 11t-55 25l33 66q19 -11 44 -19.5t51 -8.5q51 0 82 26.5t31 71.5q0 43 -31.5 71
t-103.5 28q-19 0 -37 -1.5t-38 -3.5l30 258h246v-74h-181zM233 718q-37 -41 -63.5 -90.5t-44 -103.5t-26 -110.5t-8.5 -113.5q0 -56 8.5 -114t26 -113t44 -106t63.5 -94h-58q-38 41 -65.5 92t-45.5 106.5t-26.5 114t-8.5 114.5q0 114 35.5 222.5t112.5 195.5h56zM765 718
q77 -87 112.5 -195.5t35.5 -222.5q0 -56 -8.5 -114.5t-26.5 -114t-45.5 -106.5t-65.5 -92h-58q37 43 63.5 94t44 106t26 113t8.5 114q0 57 -8.5 113.5t-26 110.5t-44 103.5t-63.5 90.5h56z" />
    <glyph glyph-name="uni249C" unicode="&#x249c;" horiz-adv-x="940" 
d="M498 356q5 0 11 -0.5t13 -0.5v4q0 9 -2.5 21.5t-10 23.5t-22 18.5t-37.5 7.5q-20 0 -45.5 -11t-48.5 -29l-28 62q25 20 59.5 33t72.5 13q43 0 70.5 -13.5t43.5 -35.5t22 -50t6 -56v-228h-78v29q-19 -17 -46 -27t-58 -10q-29 0 -49.5 9.5t-34 25.5t-20 36t-6.5 41
q0 63 47 100t141 37zM519 228q3 12 3 18v44q-17 3 -29 3q-42 0 -71.5 -16t-29.5 -50q0 -27 12 -39.5t32 -12.5q31 0 54 17t29 37v-1zM233 718q-37 -41 -63.5 -90.5t-44 -103.5t-26 -110.5t-8.5 -113.5q0 -56 8.5 -114t26 -113t44 -106t63.5 -94h-58q-38 41 -65.5 92
t-45.5 106.5t-26.5 114t-8.5 114.5q0 114 35.5 222.5t112.5 195.5h56zM765 718q77 -87 112.5 -195.5t35.5 -222.5q0 -56 -8.5 -114.5t-26.5 -114t-45.5 -106.5t-65.5 -92h-58q37 43 63.5 94t44 106t26 113t8.5 114q0 57 -8.5 113.5t-26 110.5t-44 103.5t-63.5 90.5h56z" />
    <glyph glyph-name="uni249D" unicode="&#x249d;" horiz-adv-x="940" 
d="M411 588v-195q39 41 110 41q35 0 64 -14t50 -39t32.5 -60t11.5 -78q0 -50 -14.5 -87.5t-38.5 -62.5t-54 -37.5t-61 -12.5q-34 0 -60.5 8t-47.5 33v-33h-75v537h83zM409 204q0 -36 25 -63t65 -27q46 0 71.5 35t25.5 92q0 25 -6.5 47t-18.5 38.5t-30 26.5t-41 10
q-19 0 -35.5 -8t-29 -21.5t-19.5 -31t-7 -35.5v-63zM233 718q-37 -41 -63.5 -90.5t-44 -103.5t-26 -110.5t-8.5 -113.5q0 -56 8.5 -114t26 -113t44 -106t63.5 -94h-58q-38 41 -65.5 92t-45.5 106.5t-26.5 114t-8.5 114.5q0 114 35.5 222.5t112.5 195.5h56zM765 718
q77 -87 112.5 -195.5t35.5 -222.5q0 -56 -8.5 -114.5t-26.5 -114t-45.5 -106.5t-65.5 -92h-58q37 43 63.5 94t44 106t26 113t8.5 114q0 57 -8.5 113.5t-26 110.5t-44 103.5t-63.5 90.5h56z" />
    <glyph glyph-name="uni249E" unicode="&#x249e;" horiz-adv-x="940" 
d="M589 130q-18 -10 -46.5 -18t-65.5 -8q-42 0 -76 14t-58 39.5t-37.5 61.5t-13.5 80t13.5 80t39 62t62 40t81.5 14q29 0 55.5 -7t43.5 -17l-19 -68q-15 8 -35 14t-45 6q-55 0 -84 -34t-29 -86q0 -59 32.5 -93t81.5 -34q25 0 46 6.5t39 14.5zM233 718q-37 -41 -63.5 -90.5
t-44 -103.5t-26 -110.5t-8.5 -113.5q0 -56 8.5 -114t26 -113t44 -106t63.5 -94h-58q-38 41 -65.5 92t-45.5 106.5t-26.5 114t-8.5 114.5q0 114 35.5 222.5t112.5 195.5h56zM765 718q77 -87 112.5 -195.5t35.5 -222.5q0 -56 -8.5 -114.5t-26.5 -114t-45.5 -106.5t-65.5 -92
h-58q37 43 63.5 94t44 106t26 113t8.5 114q0 57 -8.5 113.5t-26 110.5t-44 103.5t-63.5 90.5h56z" />
    <glyph glyph-name="uni249F" unicode="&#x249f;" horiz-adv-x="940" 
d="M619 588v-537h-75v33q-21 -25 -47.5 -33t-60.5 -8q-31 0 -61 12.5t-54 37.5t-38.5 62.5t-14.5 87.5q0 43 11.5 78t32.5 60t50 39t64 14q71 0 110 -41v195h83zM538 267q0 18 -7 35.5t-19.5 31t-29 21.5t-35.5 8q-23 0 -41 -10t-30 -26.5t-18.5 -38.5t-6.5 -47
q0 -57 25.5 -92t71.5 -35q40 0 65 27t25 63v63zM233 718q-37 -41 -63.5 -90.5t-44 -103.5t-26 -110.5t-8.5 -113.5q0 -56 8.5 -114t26 -113t44 -106t63.5 -94h-58q-38 41 -65.5 92t-45.5 106.5t-26.5 114t-8.5 114.5q0 114 35.5 222.5t112.5 195.5h56zM765 718
q77 -87 112.5 -195.5t35.5 -222.5q0 -56 -8.5 -114.5t-26.5 -114t-45.5 -106.5t-65.5 -92h-58q37 43 63.5 94t44 106t26 113t8.5 114q0 57 -8.5 113.5t-26 110.5t-44 103.5t-63.5 90.5h56z" />
    <glyph glyph-name="uni24A0" unicode="&#x24a0;" horiz-adv-x="940" 
d="M470 428q-23 0 -38.5 -8t-25 -20t-14.5 -26.5t-7 -27.5h165q-2 13 -7 27.5t-14 26.5t-23.5 20t-35.5 8zM622 154q-38 -25 -71.5 -36.5t-71.5 -11.5q-36 0 -67.5 12.5t-55.5 37t-38 61.5t-14 85q0 42 11.5 78t32.5 61.5t52 40t70 14.5q46 0 77.5 -17.5t50 -47.5t26 -70
t5.5 -85h-245q4 -54 32.5 -78t67.5 -24q50 0 114 38zM233 718q-37 -41 -63.5 -90.5t-44 -103.5t-26 -110.5t-8.5 -113.5q0 -56 8.5 -114t26 -113t44 -106t63.5 -94h-58q-38 41 -65.5 92t-45.5 106.5t-26.5 114t-8.5 114.5q0 114 35.5 222.5t112.5 195.5h56zM765 718
q77 -87 112.5 -195.5t35.5 -222.5q0 -56 -8.5 -114.5t-26.5 -114t-45.5 -106.5t-65.5 -92h-58q37 43 63.5 94t44 106t26 113t8.5 114q0 57 -8.5 113.5t-26 110.5t-44 103.5t-63.5 90.5h56z" />
    <glyph glyph-name="uni24A1" unicode="&#x24a1;" horiz-adv-x="940" 
d="M525 498q-24 0 -33 -11.5t-9 -36.5v-55h86v-69h-86v-307h-80v307h-59v69h59v55q0 52 25.5 84.5t80.5 32.5h57v-69h-41zM233 718q-37 -41 -63.5 -90.5t-44 -103.5t-26 -110.5t-8.5 -113.5q0 -56 8.5 -114t26 -113t44 -106t63.5 -94h-58q-38 41 -65.5 92t-45.5 106.5
t-26.5 114t-8.5 114.5q0 114 35.5 222.5t112.5 195.5h56zM765 718q77 -87 112.5 -195.5t35.5 -222.5q0 -56 -8.5 -114.5t-26.5 -114t-45.5 -106.5t-65.5 -92h-58q37 43 63.5 94t44 106t26 113t8.5 114q0 57 -8.5 113.5t-26 110.5t-44 103.5t-63.5 90.5h56z" />
    <glyph glyph-name="uni24A2" unicode="&#x24a2;" horiz-adv-x="940" 
d="M634 233q0 -49 -8.5 -88.5t-29.5 -68t-56 -44t-89 -15.5q-32 0 -66 8.5t-63 27.5l25 60q26 -14 50.5 -21t55.5 -7q42 0 70.5 25t30.5 84q-39 -42 -112 -42q-35 0 -64 13.5t-50 38.5t-32.5 60t-11.5 78q0 51 14.5 88t38 61.5t53.5 36.5t62 12q34 0 60.5 -8t47.5 -33v33h74
v-299zM554 379q0 18 -6.5 34.5t-18.5 29.5t-28.5 21t-36.5 8q-46 0 -72 -34t-26 -94q0 -53 24.5 -88.5t72.5 -35.5q19 0 35.5 8.5t29 22.5t19.5 32t7 36v60zM233 718q-37 -41 -63.5 -90.5t-44 -103.5t-26 -110.5t-8.5 -113.5q0 -56 8.5 -114t26 -113t44 -106t63.5 -94h-58
q-38 41 -65.5 92t-45.5 106.5t-26.5 114t-8.5 114.5q0 114 35.5 222.5t112.5 195.5h56zM765 718q77 -87 112.5 -195.5t35.5 -222.5q0 -56 -8.5 -114.5t-26.5 -114t-45.5 -106.5t-65.5 -92h-58q37 43 63.5 94t44 106t26 113t8.5 114q0 57 -8.5 113.5t-26 110.5t-44 103.5
t-63.5 90.5h56z" />
    <glyph glyph-name="uni24A3" unicode="&#x24a3;" horiz-adv-x="940" 
d="M565 302q0 29 -16 46t-48 17q-31 0 -60.5 -22.5t-42.5 -53.5v-239h-80v537h80v-199q22 21 52.5 33t57.5 12q66 0 101.5 -37.5t35.5 -94.5v-251h-80v252zM233 718q-37 -41 -63.5 -90.5t-44 -103.5t-26 -110.5t-8.5 -113.5q0 -56 8.5 -114t26 -113t44 -106t63.5 -94h-58
q-38 41 -65.5 92t-45.5 106.5t-26.5 114t-8.5 114.5q0 114 35.5 222.5t112.5 195.5h56zM765 718q77 -87 112.5 -195.5t35.5 -222.5q0 -56 -8.5 -114.5t-26.5 -114t-45.5 -106.5t-65.5 -92h-58q37 43 63.5 94t44 106t26 113t8.5 114q0 57 -8.5 113.5t-26 110.5t-44 103.5
t-63.5 90.5h56z" />
    <glyph glyph-name="uni24A4" unicode="&#x24a4;" horiz-adv-x="940" 
d="M429 416h80v-366h-80v366zM509 478h-80v88h80v-88zM233 718q-37 -41 -63.5 -90.5t-44 -103.5t-26 -110.5t-8.5 -113.5q0 -56 8.5 -114t26 -113t44 -106t63.5 -94h-58q-38 41 -65.5 92t-45.5 106.5t-26.5 114t-8.5 114.5q0 114 35.5 222.5t112.5 195.5h56zM765 718
q77 -87 112.5 -195.5t35.5 -222.5q0 -56 -8.5 -114.5t-26.5 -114t-45.5 -106.5t-65.5 -92h-58q37 43 63.5 94t44 106t26 113t8.5 114q0 57 -8.5 113.5t-26 110.5t-44 103.5t-63.5 90.5h56z" />
    <glyph glyph-name="uni24A5" unicode="&#x24a5;" horiz-adv-x="940" 
d="M358 55q48 5 69.5 21t21.5 56v310h80v-310q0 -64 -36.5 -102t-127.5 -44zM529 504h-80v88h80v-88zM233 718q-37 -41 -63.5 -90.5t-44 -103.5t-26 -110.5t-8.5 -113.5q0 -56 8.5 -114t26 -113t44 -106t63.5 -94h-58q-38 41 -65.5 92t-45.5 106.5t-26.5 114t-8.5 114.5
q0 114 35.5 222.5t112.5 195.5h56zM765 718q77 -87 112.5 -195.5t35.5 -222.5q0 -56 -8.5 -114.5t-26.5 -114t-45.5 -106.5t-65.5 -92h-58q37 43 63.5 94t44 106t26 113t8.5 114q0 57 -8.5 113.5t-26 110.5t-44 103.5t-63.5 90.5h56z" />
    <glyph glyph-name="uni24A6" unicode="&#x24a6;" horiz-adv-x="940" 
d="M422 310l134 126h103l-170 -160l168 -216h-95l-127 165l-13 -13v-152h-79v537h79v-287zM233 718q-37 -41 -63.5 -90.5t-44 -103.5t-26 -110.5t-8.5 -113.5q0 -56 8.5 -114t26 -113t44 -106t63.5 -94h-58q-38 41 -65.5 92t-45.5 106.5t-26.5 114t-8.5 114.5
q0 114 35.5 222.5t112.5 195.5h56zM765 718q77 -87 112.5 -195.5t35.5 -222.5q0 -56 -8.5 -114.5t-26.5 -114t-45.5 -106.5t-65.5 -92h-58q37 43 63.5 94t44 106t26 113t8.5 114q0 57 -8.5 113.5t-26 110.5t-44 103.5t-63.5 90.5h56z" />
    <glyph glyph-name="uni24A7" unicode="&#x24a7;" horiz-adv-x="940" 
d="M429 566h80v-516h-80v516zM233 718q-37 -41 -63.5 -90.5t-44 -103.5t-26 -110.5t-8.5 -113.5q0 -56 8.5 -114t26 -113t44 -106t63.5 -94h-58q-38 41 -65.5 92t-45.5 106.5t-26.5 114t-8.5 114.5q0 114 35.5 222.5t112.5 195.5h56zM765 718q77 -87 112.5 -195.5
t35.5 -222.5q0 -56 -8.5 -114.5t-26.5 -114t-45.5 -106.5t-65.5 -92h-58q37 43 63.5 94t44 106t26 113t8.5 114q0 57 -8.5 113.5t-26 110.5t-44 103.5t-63.5 90.5h56z" />
    <glyph glyph-name="uni24A8" unicode="&#x24a8;" horiz-adv-x="940" 
d="M646 376q0 30 -15 42t-42 12q-18 0 -37 -12t-33 -35v-268h-80v261q0 30 -14.5 42t-42.5 12q-20 0 -38 -11t-31 -33v-271h-80v376h80v-32q16 20 38.5 29.5t45.5 9.5q35 0 61.5 -13t41.5 -36q22 26 50 37.5t53 11.5q58 0 90.5 -32.5t32.5 -88.5v-262h-80v261zM233 718
q-37 -41 -63.5 -90.5t-44 -103.5t-26 -110.5t-8.5 -113.5q0 -56 8.5 -114t26 -113t44 -106t63.5 -94h-58q-38 41 -65.5 92t-45.5 106.5t-26.5 114t-8.5 114.5q0 114 35.5 222.5t112.5 195.5h56zM765 718q77 -87 112.5 -195.5t35.5 -222.5q0 -56 -8.5 -114.5t-26.5 -114
t-45.5 -106.5t-65.5 -92h-58q37 43 63.5 94t44 106t26 113t8.5 114q0 57 -8.5 113.5t-26 110.5t-44 103.5t-63.5 90.5h56z" />
    <glyph glyph-name="uni24A9" unicode="&#x24a9;" horiz-adv-x="940" 
d="M552 369q0 34 -22.5 47.5t-51.5 13.5q-20 0 -43 -12.5t-36 -37.5v-265h-80v376h80v-30q20 20 45 28.5t48 8.5q29 0 54.5 -8.5t44 -25t29.5 -40.5t11 -54v-255h-79v254zM233 718q-37 -41 -63.5 -90.5t-44 -103.5t-26 -110.5t-8.5 -113.5q0 -56 8.5 -114t26 -113t44 -106
t63.5 -94h-58q-38 41 -65.5 92t-45.5 106.5t-26.5 114t-8.5 114.5q0 114 35.5 222.5t112.5 195.5h56zM765 718q77 -87 112.5 -195.5t35.5 -222.5q0 -56 -8.5 -114.5t-26.5 -114t-45.5 -106.5t-65.5 -92h-58q37 43 63.5 94t44 106t26 113t8.5 114q0 57 -8.5 113.5t-26 110.5
t-44 103.5t-63.5 90.5h56z" />
    <glyph glyph-name="uni24AA" unicode="&#x24aa;" horiz-adv-x="940" 
d="M470 107q-37 0 -69.5 13t-56.5 37.5t-38 60.5t-14 82q0 48 13.5 85t37.5 62t56.5 38t70.5 13q37 0 69.5 -13t56.5 -38t37.5 -62t13.5 -85q0 -46 -14 -82t-38 -60.5t-56 -37.5t-69 -13zM470 431q-25 0 -43 -10.5t-30 -28.5t-17.5 -41.5t-5.5 -50.5q0 -60 27 -93t69 -33
q41 0 68 33t27 93q0 27 -5.5 50.5t-17.5 41.5t-30 28.5t-42 10.5zM233 718q-37 -41 -63.5 -90.5t-44 -103.5t-26 -110.5t-8.5 -113.5q0 -56 8.5 -114t26 -113t44 -106t63.5 -94h-58q-38 41 -65.5 92t-45.5 106.5t-26.5 114t-8.5 114.5q0 114 35.5 222.5t112.5 195.5h56z
M765 718q77 -87 112.5 -195.5t35.5 -222.5q0 -56 -8.5 -114.5t-26.5 -114t-45.5 -106.5t-65.5 -92h-58q37 43 63.5 94t44 106t26 113t8.5 114q0 57 -8.5 113.5t-26 110.5t-44 103.5t-63.5 90.5h56z" />
    <glyph glyph-name="uni24AB" unicode="&#x24ab;" horiz-adv-x="940" 
d="M400 539v-35q21 23 48.5 32.5t60.5 9.5q31 0 61 -12.5t53.5 -37.5t38 -62.5t14.5 -87.5q0 -43 -11.5 -78t-32.5 -60t-50 -39t-63 -14q-38 0 -65 10t-47 31v-172h-80v515h73zM407 322q0 -18 7 -36t19.5 -32t29 -22.5t35.5 -8.5q24 0 42 10t30 27.5t18.5 40t6.5 47.5
q0 57 -25.5 93.5t-73.5 36.5q-20 0 -36 -8t-28 -20.5t-18.5 -29.5t-6.5 -35v-63zM233 718q-37 -41 -63.5 -90.5t-44 -103.5t-26 -110.5t-8.5 -113.5q0 -56 8.5 -114t26 -113t44 -106t63.5 -94h-58q-38 41 -65.5 92t-45.5 106.5t-26.5 114t-8.5 114.5q0 114 35.5 222.5
t112.5 195.5h56zM765 718q77 -87 112.5 -195.5t35.5 -222.5q0 -56 -8.5 -114.5t-26.5 -114t-45.5 -106.5t-65.5 -92h-58q37 43 63.5 94t44 106t26 113t8.5 114q0 57 -8.5 113.5t-26 110.5t-44 103.5t-63.5 90.5h56z" />
    <glyph glyph-name="uni24AC" unicode="&#x24ac;" horiz-adv-x="940" 
d="M626 539v-515h-80v172q-20 -21 -47 -31t-65 -10q-35 0 -63.5 14t-49.5 39t-32.5 60t-11.5 78q0 50 14.5 87.5t38 62.5t53.5 37.5t61 12.5q33 0 60.5 -9.5t48.5 -32.5v35h73zM546 385q0 18 -6.5 35t-18.5 29.5t-28.5 20.5t-35.5 8q-48 0 -73.5 -36.5t-25.5 -93.5
q0 -25 6 -47.5t18 -40t30.5 -27.5t42.5 -10q19 0 35.5 8.5t29 22.5t19.5 32t7 36v63zM233 718q-37 -41 -63.5 -90.5t-44 -103.5t-26 -110.5t-8.5 -113.5q0 -56 8.5 -114t26 -113t44 -106t63.5 -94h-58q-38 41 -65.5 92t-45.5 106.5t-26.5 114t-8.5 114.5q0 114 35.5 222.5
t112.5 195.5h56zM765 718q77 -87 112.5 -195.5t35.5 -222.5q0 -56 -8.5 -114.5t-26.5 -114t-45.5 -106.5t-65.5 -92h-58q37 43 63.5 94t44 106t26 113t8.5 114q0 57 -8.5 113.5t-26 110.5t-44 103.5t-63.5 90.5h56z" />
    <glyph glyph-name="uni24AD" unicode="&#x24ad;" horiz-adv-x="940" 
d="M459 452q14 17 34 26.5t46 9.5q13 0 27.5 -2.5t31.5 -8.5v-77q-13 6 -26.5 10.5t-26.5 4.5q-35 0 -57 -26t-26 -61v-223h-80v376h77v-29zM233 718q-37 -41 -63.5 -90.5t-44 -103.5t-26 -110.5t-8.5 -113.5q0 -56 8.5 -114t26 -113t44 -106t63.5 -94h-58q-38 41 -65.5 92
t-45.5 106.5t-26.5 114t-8.5 114.5q0 114 35.5 222.5t112.5 195.5h56zM765 718q77 -87 112.5 -195.5t35.5 -222.5q0 -56 -8.5 -114.5t-26.5 -114t-45.5 -106.5t-65.5 -92h-58q37 43 63.5 94t44 106t26 113t8.5 114q0 57 -8.5 113.5t-26 110.5t-44 103.5t-63.5 90.5h56z" />
    <glyph glyph-name="uni24AE" unicode="&#x24ae;" horiz-adv-x="940" 
d="M361 205q22 -14 45.5 -21.5t46.5 -7.5q29 0 47 10.5t18 29.5q0 20 -17 33.5t-50 26.5q-47 20 -74.5 49.5t-27.5 65.5q0 51 36 79t98 28q52 0 98 -28l-21 -64q-15 8 -35 16t-44 8t-39.5 -9.5t-15.5 -26.5q0 -20 17 -31.5t51 -24.5q49 -19 75.5 -47t26.5 -72
q0 -54 -38.5 -83t-106.5 -29q-31 0 -60 9t-52 25zM233 718q-37 -41 -63.5 -90.5t-44 -103.5t-26 -110.5t-8.5 -113.5q0 -56 8.5 -114t26 -113t44 -106t63.5 -94h-58q-38 41 -65.5 92t-45.5 106.5t-26.5 114t-8.5 114.5q0 114 35.5 222.5t112.5 195.5h56zM765 718
q77 -87 112.5 -195.5t35.5 -222.5q0 -56 -8.5 -114.5t-26.5 -114t-45.5 -106.5t-65.5 -92h-58q37 43 63.5 94t44 106t26 113t8.5 114q0 57 -8.5 113.5t-26 110.5t-44 103.5t-63.5 90.5h56z" />
    <glyph glyph-name="uni24AF" unicode="&#x24af;" horiz-adv-x="940" 
d="M482 528v-93h82v-69h-82v-200q0 -23 6.5 -34.5t30.5 -11.5q11 0 22 1.5t25 3.5l5 -62q-15 -5 -38 -9t-37 -3q-28 1 -46 11t-28.5 26t-15 36.5t-4.5 41.5v200h-59v69h59v93h80zM233 718q-37 -41 -63.5 -90.5t-44 -103.5t-26 -110.5t-8.5 -113.5q0 -56 8.5 -114t26 -113
t44 -106t63.5 -94h-58q-38 41 -65.5 92t-45.5 106.5t-26.5 114t-8.5 114.5q0 114 35.5 222.5t112.5 195.5h56zM765 718q77 -87 112.5 -195.5t35.5 -222.5q0 -56 -8.5 -114.5t-26.5 -114t-45.5 -106.5t-65.5 -92h-58q37 43 63.5 94t44 106t26 113t8.5 114q0 57 -8.5 113.5
t-26 110.5t-44 103.5t-63.5 90.5h56z" />
    <glyph glyph-name="uni24B0" unicode="&#x24b0;" horiz-adv-x="940" 
d="M388 230q0 -33 22.5 -46.5t50.5 -13.5q21 0 44 12.5t36 37.5v265h80v-376h-80v24q-20 -15 -46 -23.5t-48 -8.5q-28 0 -53 9t-44 25.5t-30 40.5t-11 54v255h79v-255zM233 718q-37 -41 -63.5 -90.5t-44 -103.5t-26 -110.5t-8.5 -113.5q0 -56 8.5 -114t26 -113t44 -106
t63.5 -94h-58q-38 41 -65.5 92t-45.5 106.5t-26.5 114t-8.5 114.5q0 114 35.5 222.5t112.5 195.5h56zM765 718q77 -87 112.5 -195.5t35.5 -222.5q0 -56 -8.5 -114.5t-26.5 -114t-45.5 -106.5t-65.5 -92h-58q37 43 63.5 94t44 106t26 113t8.5 114q0 57 -8.5 113.5t-26 110.5
t-44 103.5t-63.5 90.5h56z" />
    <glyph glyph-name="uni24B1" unicode="&#x24b1;" horiz-adv-x="940" 
d="M572 469h81l-141 -376h-85l-140 376h84l99 -284zM233 718q-37 -41 -63.5 -90.5t-44 -103.5t-26 -110.5t-8.5 -113.5q0 -56 8.5 -114t26 -113t44 -106t63.5 -94h-58q-38 41 -65.5 92t-45.5 106.5t-26.5 114t-8.5 114.5q0 114 35.5 222.5t112.5 195.5h56zM765 718
q77 -87 112.5 -195.5t35.5 -222.5q0 -56 -8.5 -114.5t-26.5 -114t-45.5 -106.5t-65.5 -92h-58q37 43 63.5 94t44 106t26 113t8.5 114q0 57 -8.5 113.5t-26 110.5t-44 103.5t-63.5 90.5h56z" />
    <glyph glyph-name="uni24B2" unicode="&#x24b2;" horiz-adv-x="940" 
d="M434 491h72l71 -280l66 280h76l-98 -376h-89l-62 249l-63 -249h-90l-98 376h78l66 -280zM233 718q-37 -41 -63.5 -90.5t-44 -103.5t-26 -110.5t-8.5 -113.5q0 -56 8.5 -114t26 -113t44 -106t63.5 -94h-58q-38 41 -65.5 92t-45.5 106.5t-26.5 114t-8.5 114.5
q0 114 35.5 222.5t112.5 195.5h56zM765 718q77 -87 112.5 -195.5t35.5 -222.5q0 -56 -8.5 -114.5t-26.5 -114t-45.5 -106.5t-65.5 -92h-58q37 43 63.5 94t44 106t26 113t8.5 114q0 57 -8.5 113.5t-26 110.5t-44 103.5t-63.5 90.5h56z" />
    <glyph glyph-name="uni24B3" unicode="&#x24b3;" horiz-adv-x="940" 
d="M291 488h88l91 -129l91 129h89l-135 -188l134 -188h-88l-91 129l-91 -129h-89l136 188zM233 718q-37 -41 -63.5 -90.5t-44 -103.5t-26 -110.5t-8.5 -113.5q0 -56 8.5 -114t26 -113t44 -106t63.5 -94h-58q-38 41 -65.5 92t-45.5 106.5t-26.5 114t-8.5 114.5
q0 114 35.5 222.5t112.5 195.5h56zM765 718q77 -87 112.5 -195.5t35.5 -222.5q0 -56 -8.5 -114.5t-26.5 -114t-45.5 -106.5t-65.5 -92h-58q37 43 63.5 94t44 106t26 113t8.5 114q0 57 -8.5 113.5t-26 110.5t-44 103.5t-63.5 90.5h56z" />
    <glyph glyph-name="uni24B4" unicode="&#x24b4;" horiz-adv-x="940" 
d="M335 86q16 -5 26 -6.5t18 -1.5q17 0 30 8.5t20 29.5l15 46l-145 360h81l100 -271l86 271h79l-145 -433q-15 -44 -44 -63t-67 -19q-15 0 -30.5 2.5t-34.5 10.5zM233 718q-37 -41 -63.5 -90.5t-44 -103.5t-26 -110.5t-8.5 -113.5q0 -56 8.5 -114t26 -113t44 -106t63.5 -94
h-58q-38 41 -65.5 92t-45.5 106.5t-26.5 114t-8.5 114.5q0 114 35.5 222.5t112.5 195.5h56zM765 718q77 -87 112.5 -195.5t35.5 -222.5q0 -56 -8.5 -114.5t-26.5 -114t-45.5 -106.5t-65.5 -92h-58q37 43 63.5 94t44 106t26 113t8.5 114q0 57 -8.5 113.5t-26 110.5t-44 103.5
t-63.5 90.5h56z" />
    <glyph glyph-name="uni24B5" unicode="&#x24b5;" horiz-adv-x="940" 
d="M326 491h281v-61l-191 -247h197v-68h-293v61l191 247h-185v68zM233 718q-37 -41 -63.5 -90.5t-44 -103.5t-26 -110.5t-8.5 -113.5q0 -56 8.5 -114t26 -113t44 -106t63.5 -94h-58q-38 41 -65.5 92t-45.5 106.5t-26.5 114t-8.5 114.5q0 114 35.5 222.5t112.5 195.5h56z
M765 718q77 -87 112.5 -195.5t35.5 -222.5q0 -56 -8.5 -114.5t-26.5 -114t-45.5 -106.5t-65.5 -92h-58q37 43 63.5 94t44 106t26 113t8.5 114q0 57 -8.5 113.5t-26 110.5t-44 103.5t-63.5 90.5h56z" />
    <glyph glyph-name="uni24D0" unicode="&#x24d0;" horiz-adv-x="940" 
d="M498 356q5 0 11 -0.5t13 -0.5v4q0 9 -2.5 21.5t-10 23.5t-22 18.5t-37.5 7.5q-20 0 -45.5 -11t-48.5 -29l-28 62q25 20 59.5 33t72.5 13q43 0 70.5 -13.5t43.5 -35.5t22 -50t6 -56v-228h-78v29q-19 -17 -46 -27t-58 -10q-29 0 -49.5 9.5t-34 25.5t-20 36t-6.5 41
q0 63 47 100t141 37zM519 228q3 12 3 18v44q-17 3 -29 3q-42 0 -71.5 -16t-29.5 -50q0 -27 12 -39.5t32 -12.5q31 0 54 17t29 37v-1zM913 300q0 -92 -34.5 -172.5t-94 -140.5t-140.5 -94.5t-174 -34.5q-88 0 -168 33t-140.5 92t-96.5 140t-36 177q0 91 34 171.5t93.5 140.5
t140 94.5t173.5 34.5q88 0 168.5 -32.5t141.5 -91t97 -139.5t36 -178zM852 300q0 79 -29.5 148.5t-81.5 121.5t-121.5 82t-149.5 30q-76 0 -145 -28.5t-121 -79.5t-83 -121t-31 -153q0 -79 29.5 -148.5t80.5 -121.5t120.5 -82t149.5 -30q76 0 145.5 28.5t122 79t83.5 120.5
t31 154z" />
    <glyph glyph-name="uni24D1" unicode="&#x24d1;" horiz-adv-x="940" 
d="M411 588v-195q39 41 110 41q35 0 64 -14t50 -39t32.5 -60t11.5 -78q0 -50 -14.5 -87.5t-38.5 -62.5t-54 -37.5t-61 -12.5q-34 0 -60.5 8t-47.5 33v-33h-75v537h83zM409 204q0 -36 25 -63t65 -27q46 0 71.5 35t25.5 92q0 25 -6.5 47t-18.5 38.5t-30 26.5t-41 10
q-19 0 -35.5 -8t-29 -21.5t-19.5 -31t-7 -35.5v-63zM913 300q0 -92 -34.5 -172.5t-94 -140.5t-140.5 -94.5t-174 -34.5q-88 0 -168 33t-140.5 92t-96.5 140t-36 177q0 91 34 171.5t93.5 140.5t140 94.5t173.5 34.5q88 0 168.5 -32.5t141.5 -91t97 -139.5t36 -178zM852 300
q0 79 -29.5 148.5t-81.5 121.5t-121.5 82t-149.5 30q-76 0 -145 -28.5t-121 -79.5t-83 -121t-31 -153q0 -79 29.5 -148.5t80.5 -121.5t120.5 -82t149.5 -30q76 0 145.5 28.5t122 79t83.5 120.5t31 154z" />
    <glyph glyph-name="uni24D2" unicode="&#x24d2;" horiz-adv-x="940" 
d="M589 130q-18 -10 -46.5 -18t-65.5 -8q-42 0 -76 14t-58 39.5t-37.5 61.5t-13.5 80t13.5 80t39 62t62 40t81.5 14q29 0 55.5 -7t43.5 -17l-19 -68q-15 8 -35 14t-45 6q-55 0 -84 -34t-29 -86q0 -59 32.5 -93t81.5 -34q25 0 46 6.5t39 14.5zM913 300q0 -92 -34.5 -172.5
t-94 -140.5t-140.5 -94.5t-174 -34.5q-88 0 -168 33t-140.5 92t-96.5 140t-36 177q0 91 34 171.5t93.5 140.5t140 94.5t173.5 34.5q88 0 168.5 -32.5t141.5 -91t97 -139.5t36 -178zM852 300q0 79 -29.5 148.5t-81.5 121.5t-121.5 82t-149.5 30q-76 0 -145 -28.5t-121 -79.5
t-83 -121t-31 -153q0 -79 29.5 -148.5t80.5 -121.5t120.5 -82t149.5 -30q76 0 145.5 28.5t122 79t83.5 120.5t31 154z" />
    <glyph glyph-name="uni24D3" unicode="&#x24d3;" horiz-adv-x="940" 
d="M619 588v-537h-75v33q-21 -25 -47.5 -33t-60.5 -8q-31 0 -61 12.5t-54 37.5t-38.5 62.5t-14.5 87.5q0 43 11.5 78t32.5 60t50 39t64 14q71 0 110 -41v195h83zM538 267q0 18 -7 35.5t-19.5 31t-29 21.5t-35.5 8q-23 0 -41 -10t-30 -26.5t-18.5 -38.5t-6.5 -47
q0 -57 25.5 -92t71.5 -35q40 0 65 27t25 63v63zM913 300q0 -92 -34.5 -172.5t-94 -140.5t-140.5 -94.5t-174 -34.5q-88 0 -168 33t-140.5 92t-96.5 140t-36 177q0 91 34 171.5t93.5 140.5t140 94.5t173.5 34.5q88 0 168.5 -32.5t141.5 -91t97 -139.5t36 -178zM852 300
q0 79 -29.5 148.5t-81.5 121.5t-121.5 82t-149.5 30q-76 0 -145 -28.5t-121 -79.5t-83 -121t-31 -153q0 -79 29.5 -148.5t80.5 -121.5t120.5 -82t149.5 -30q76 0 145.5 28.5t122 79t83.5 120.5t31 154z" />
    <glyph glyph-name="uni24D4" unicode="&#x24d4;" horiz-adv-x="940" 
d="M470 428q-23 0 -38.5 -8t-25 -20t-14.5 -26.5t-7 -27.5h165q-2 13 -7 27.5t-14 26.5t-23.5 20t-35.5 8zM622 154q-38 -25 -71.5 -36.5t-71.5 -11.5q-36 0 -67.5 12.5t-55.5 37t-38 61.5t-14 85q0 42 11.5 78t32.5 61.5t52 40t70 14.5q46 0 77.5 -17.5t50 -47.5t26 -70
t5.5 -85h-245q4 -54 32.5 -78t67.5 -24q50 0 114 38zM913 300q0 -92 -34.5 -172.5t-94 -140.5t-140.5 -94.5t-174 -34.5q-88 0 -168 33t-140.5 92t-96.5 140t-36 177q0 91 34 171.5t93.5 140.5t140 94.5t173.5 34.5q88 0 168.5 -32.5t141.5 -91t97 -139.5t36 -178zM852 300
q0 79 -29.5 148.5t-81.5 121.5t-121.5 82t-149.5 30q-76 0 -145 -28.5t-121 -79.5t-83 -121t-31 -153q0 -79 29.5 -148.5t80.5 -121.5t120.5 -82t149.5 -30q76 0 145.5 28.5t122 79t83.5 120.5t31 154z" />
    <glyph glyph-name="uni24D5" unicode="&#x24d5;" horiz-adv-x="940" 
d="M525 498q-24 0 -33 -11.5t-9 -36.5v-55h86v-69h-86v-307h-80v307h-59v69h59v55q0 52 25.5 84.5t80.5 32.5h57v-69h-41zM913 300q0 -92 -34.5 -172.5t-94 -140.5t-140.5 -94.5t-174 -34.5q-88 0 -168 33t-140.5 92t-96.5 140t-36 177q0 91 34 171.5t93.5 140.5t140 94.5
t173.5 34.5q88 0 168.5 -32.5t141.5 -91t97 -139.5t36 -178zM852 300q0 79 -29.5 148.5t-81.5 121.5t-121.5 82t-149.5 30q-76 0 -145 -28.5t-121 -79.5t-83 -121t-31 -153q0 -79 29.5 -148.5t80.5 -121.5t120.5 -82t149.5 -30q76 0 145.5 28.5t122 79t83.5 120.5t31 154z
" />
    <glyph glyph-name="uni24D6" unicode="&#x24d6;" horiz-adv-x="940" 
d="M634 233q0 -49 -8.5 -88.5t-29.5 -68t-56 -44t-89 -15.5q-32 0 -66 8.5t-63 27.5l25 60q26 -14 50.5 -21t55.5 -7q42 0 70.5 25t30.5 84q-39 -42 -112 -42q-35 0 -64 13.5t-50 38.5t-32.5 60t-11.5 78q0 51 14.5 88t38 61.5t53.5 36.5t62 12q34 0 60.5 -8t47.5 -33v33h74
v-299zM554 379q0 18 -6.5 34.5t-18.5 29.5t-28.5 21t-36.5 8q-46 0 -72 -34t-26 -94q0 -53 24.5 -88.5t72.5 -35.5q19 0 35.5 8.5t29 22.5t19.5 32t7 36v60zM913 300q0 -92 -34.5 -172.5t-94 -140.5t-140.5 -94.5t-174 -34.5q-88 0 -168 33t-140.5 92t-96.5 140t-36 177
q0 91 34 171.5t93.5 140.5t140 94.5t173.5 34.5q88 0 168.5 -32.5t141.5 -91t97 -139.5t36 -178zM852 300q0 79 -29.5 148.5t-81.5 121.5t-121.5 82t-149.5 30q-76 0 -145 -28.5t-121 -79.5t-83 -121t-31 -153q0 -79 29.5 -148.5t80.5 -121.5t120.5 -82t149.5 -30
q76 0 145.5 28.5t122 79t83.5 120.5t31 154z" />
    <glyph glyph-name="uni24D7" unicode="&#x24d7;" horiz-adv-x="940" 
d="M565 302q0 29 -16 46t-48 17q-31 0 -60.5 -22.5t-42.5 -53.5v-239h-80v537h80v-199q22 21 52.5 33t57.5 12q66 0 101.5 -37.5t35.5 -94.5v-251h-80v252zM913 300q0 -92 -34.5 -172.5t-94 -140.5t-140.5 -94.5t-174 -34.5q-88 0 -168 33t-140.5 92t-96.5 140t-36 177
q0 91 34 171.5t93.5 140.5t140 94.5t173.5 34.5q88 0 168.5 -32.5t141.5 -91t97 -139.5t36 -178zM852 300q0 79 -29.5 148.5t-81.5 121.5t-121.5 82t-149.5 30q-76 0 -145 -28.5t-121 -79.5t-83 -121t-31 -153q0 -79 29.5 -148.5t80.5 -121.5t120.5 -82t149.5 -30
q76 0 145.5 28.5t122 79t83.5 120.5t31 154z" />
    <glyph glyph-name="uni24D8" unicode="&#x24d8;" horiz-adv-x="940" 
d="M429 416h80v-366h-80v366zM509 478h-80v88h80v-88zM913 300q0 -92 -34.5 -172.5t-94 -140.5t-140.5 -94.5t-174 -34.5q-88 0 -168 33t-140.5 92t-96.5 140t-36 177q0 91 34 171.5t93.5 140.5t140 94.5t173.5 34.5q88 0 168.5 -32.5t141.5 -91t97 -139.5t36 -178zM852 300
q0 79 -29.5 148.5t-81.5 121.5t-121.5 82t-149.5 30q-76 0 -145 -28.5t-121 -79.5t-83 -121t-31 -153q0 -79 29.5 -148.5t80.5 -121.5t120.5 -82t149.5 -30q76 0 145.5 28.5t122 79t83.5 120.5t31 154z" />
    <glyph glyph-name="uni24D9" unicode="&#x24d9;" horiz-adv-x="940" 
d="M358 55q48 5 69.5 21t21.5 56v310h80v-310q0 -64 -36.5 -102t-127.5 -44zM529 504h-80v88h80v-88zM913 300q0 -92 -34.5 -172.5t-94 -140.5t-140.5 -94.5t-174 -34.5q-88 0 -168 33t-140.5 92t-96.5 140t-36 177q0 91 34 171.5t93.5 140.5t140 94.5t173.5 34.5
q88 0 168.5 -32.5t141.5 -91t97 -139.5t36 -178zM852 300q0 79 -29.5 148.5t-81.5 121.5t-121.5 82t-149.5 30q-76 0 -145 -28.5t-121 -79.5t-83 -121t-31 -153q0 -79 29.5 -148.5t80.5 -121.5t120.5 -82t149.5 -30q76 0 145.5 28.5t122 79t83.5 120.5t31 154z" />
    <glyph glyph-name="uni24DA" unicode="&#x24da;" horiz-adv-x="940" 
d="M422 310l134 126h103l-170 -160l168 -216h-95l-127 165l-13 -13v-152h-79v537h79v-287zM913 300q0 -92 -34.5 -172.5t-94 -140.5t-140.5 -94.5t-174 -34.5q-88 0 -168 33t-140.5 92t-96.5 140t-36 177q0 91 34 171.5t93.5 140.5t140 94.5t173.5 34.5q88 0 168.5 -32.5
t141.5 -91t97 -139.5t36 -178zM852 300q0 79 -29.5 148.5t-81.5 121.5t-121.5 82t-149.5 30q-76 0 -145 -28.5t-121 -79.5t-83 -121t-31 -153q0 -79 29.5 -148.5t80.5 -121.5t120.5 -82t149.5 -30q76 0 145.5 28.5t122 79t83.5 120.5t31 154z" />
    <glyph glyph-name="uni24DB" unicode="&#x24db;" horiz-adv-x="940" 
d="M429 566h80v-516h-80v516zM913 300q0 -92 -34.5 -172.5t-94 -140.5t-140.5 -94.5t-174 -34.5q-88 0 -168 33t-140.5 92t-96.5 140t-36 177q0 91 34 171.5t93.5 140.5t140 94.5t173.5 34.5q88 0 168.5 -32.5t141.5 -91t97 -139.5t36 -178zM852 300q0 79 -29.5 148.5
t-81.5 121.5t-121.5 82t-149.5 30q-76 0 -145 -28.5t-121 -79.5t-83 -121t-31 -153q0 -79 29.5 -148.5t80.5 -121.5t120.5 -82t149.5 -30q76 0 145.5 28.5t122 79t83.5 120.5t31 154z" />
    <glyph glyph-name="uni24DC" unicode="&#x24dc;" horiz-adv-x="940" 
d="M646 376q0 30 -15 42t-42 12q-18 0 -37 -12t-33 -35v-268h-80v261q0 30 -14.5 42t-42.5 12q-20 0 -38 -11t-31 -33v-271h-80v376h80v-32q16 20 38.5 29.5t45.5 9.5q35 0 61.5 -13t41.5 -36q22 26 50 37.5t53 11.5q58 0 90.5 -32.5t32.5 -88.5v-262h-80v261zM913 300
q0 -92 -34.5 -172.5t-94 -140.5t-140.5 -94.5t-174 -34.5q-88 0 -168 33t-140.5 92t-96.5 140t-36 177q0 91 34 171.5t93.5 140.5t140 94.5t173.5 34.5q88 0 168.5 -32.5t141.5 -91t97 -139.5t36 -178zM852 300q0 79 -29.5 148.5t-81.5 121.5t-121.5 82t-149.5 30
q-76 0 -145 -28.5t-121 -79.5t-83 -121t-31 -153q0 -79 29.5 -148.5t80.5 -121.5t120.5 -82t149.5 -30q76 0 145.5 28.5t122 79t83.5 120.5t31 154z" />
    <glyph glyph-name="uni24DD" unicode="&#x24dd;" horiz-adv-x="940" 
d="M552 369q0 34 -22.5 47.5t-51.5 13.5q-20 0 -43 -12.5t-36 -37.5v-265h-80v376h80v-30q20 20 45 28.5t48 8.5q29 0 54.5 -8.5t44 -25t29.5 -40.5t11 -54v-255h-79v254zM913 300q0 -92 -34.5 -172.5t-94 -140.5t-140.5 -94.5t-174 -34.5q-88 0 -168 33t-140.5 92
t-96.5 140t-36 177q0 91 34 171.5t93.5 140.5t140 94.5t173.5 34.5q88 0 168.5 -32.5t141.5 -91t97 -139.5t36 -178zM852 300q0 79 -29.5 148.5t-81.5 121.5t-121.5 82t-149.5 30q-76 0 -145 -28.5t-121 -79.5t-83 -121t-31 -153q0 -79 29.5 -148.5t80.5 -121.5t120.5 -82
t149.5 -30q76 0 145.5 28.5t122 79t83.5 120.5t31 154z" />
    <glyph glyph-name="uni24DE" unicode="&#x24de;" horiz-adv-x="940" 
d="M470 107q-37 0 -69.5 13t-56.5 37.5t-38 60.5t-14 82q0 48 13.5 85t37.5 62t56.5 38t70.5 13q37 0 69.5 -13t56.5 -38t37.5 -62t13.5 -85q0 -46 -14 -82t-38 -60.5t-56 -37.5t-69 -13zM470 431q-25 0 -43 -10.5t-30 -28.5t-17.5 -41.5t-5.5 -50.5q0 -60 27 -93t69 -33
q41 0 68 33t27 93q0 27 -5.5 50.5t-17.5 41.5t-30 28.5t-42 10.5zM913 300q0 -92 -34.5 -172.5t-94 -140.5t-140.5 -94.5t-174 -34.5q-88 0 -168 33t-140.5 92t-96.5 140t-36 177q0 91 34 171.5t93.5 140.5t140 94.5t173.5 34.5q88 0 168.5 -32.5t141.5 -91t97 -139.5
t36 -178zM852 300q0 79 -29.5 148.5t-81.5 121.5t-121.5 82t-149.5 30q-76 0 -145 -28.5t-121 -79.5t-83 -121t-31 -153q0 -79 29.5 -148.5t80.5 -121.5t120.5 -82t149.5 -30q76 0 145.5 28.5t122 79t83.5 120.5t31 154z" />
    <glyph glyph-name="uni24DF" unicode="&#x24df;" horiz-adv-x="940" 
d="M400 539v-35q21 23 48.5 32.5t60.5 9.5q31 0 61 -12.5t53.5 -37.5t38 -62.5t14.5 -87.5q0 -43 -11.5 -78t-32.5 -60t-50 -39t-63 -14q-38 0 -65 10t-47 31v-172h-80v515h73zM407 322q0 -18 7 -36t19.5 -32t29 -22.5t35.5 -8.5q24 0 42 10t30 27.5t18.5 40t6.5 47.5
q0 57 -25.5 93.5t-73.5 36.5q-20 0 -36 -8t-28 -20.5t-18.5 -29.5t-6.5 -35v-63zM913 300q0 -92 -34.5 -172.5t-94 -140.5t-140.5 -94.5t-174 -34.5q-88 0 -168 33t-140.5 92t-96.5 140t-36 177q0 91 34 171.5t93.5 140.5t140 94.5t173.5 34.5q88 0 168.5 -32.5t141.5 -91
t97 -139.5t36 -178zM852 300q0 79 -29.5 148.5t-81.5 121.5t-121.5 82t-149.5 30q-76 0 -145 -28.5t-121 -79.5t-83 -121t-31 -153q0 -79 29.5 -148.5t80.5 -121.5t120.5 -82t149.5 -30q76 0 145.5 28.5t122 79t83.5 120.5t31 154z" />
    <glyph glyph-name="uni24E0" unicode="&#x24e0;" horiz-adv-x="940" 
d="M626 539v-515h-80v172q-20 -21 -47 -31t-65 -10q-35 0 -63.5 14t-49.5 39t-32.5 60t-11.5 78q0 50 14.5 87.5t38 62.5t53.5 37.5t61 12.5q33 0 60.5 -9.5t48.5 -32.5v35h73zM546 385q0 18 -6.5 35t-18.5 29.5t-28.5 20.5t-35.5 8q-48 0 -73.5 -36.5t-25.5 -93.5
q0 -25 6 -47.5t18 -40t30.5 -27.5t42.5 -10q19 0 35.5 8.5t29 22.5t19.5 32t7 36v63zM913 300q0 -92 -34.5 -172.5t-94 -140.5t-140.5 -94.5t-174 -34.5q-88 0 -168 33t-140.5 92t-96.5 140t-36 177q0 91 34 171.5t93.5 140.5t140 94.5t173.5 34.5q88 0 168.5 -32.5
t141.5 -91t97 -139.5t36 -178zM852 300q0 79 -29.5 148.5t-81.5 121.5t-121.5 82t-149.5 30q-76 0 -145 -28.5t-121 -79.5t-83 -121t-31 -153q0 -79 29.5 -148.5t80.5 -121.5t120.5 -82t149.5 -30q76 0 145.5 28.5t122 79t83.5 120.5t31 154z" />
    <glyph glyph-name="uni24E1" unicode="&#x24e1;" horiz-adv-x="940" 
d="M459 452q14 17 34 26.5t46 9.5q13 0 27.5 -2.5t31.5 -8.5v-77q-13 6 -26.5 10.5t-26.5 4.5q-35 0 -57 -26t-26 -61v-223h-80v376h77v-29zM913 300q0 -92 -34.5 -172.5t-94 -140.5t-140.5 -94.5t-174 -34.5q-88 0 -168 33t-140.5 92t-96.5 140t-36 177q0 91 34 171.5
t93.5 140.5t140 94.5t173.5 34.5q88 0 168.5 -32.5t141.5 -91t97 -139.5t36 -178zM852 300q0 79 -29.5 148.5t-81.5 121.5t-121.5 82t-149.5 30q-76 0 -145 -28.5t-121 -79.5t-83 -121t-31 -153q0 -79 29.5 -148.5t80.5 -121.5t120.5 -82t149.5 -30q76 0 145.5 28.5t122 79
t83.5 120.5t31 154z" />
    <glyph glyph-name="uni24E2" unicode="&#x24e2;" horiz-adv-x="940" 
d="M361 205q22 -14 45.5 -21.5t46.5 -7.5q29 0 47 10.5t18 29.5q0 20 -17 33.5t-50 26.5q-47 20 -74.5 49.5t-27.5 65.5q0 51 36 79t98 28q52 0 98 -28l-21 -64q-15 8 -35 16t-44 8t-39.5 -9.5t-15.5 -26.5q0 -20 17 -31.5t51 -24.5q49 -19 75.5 -47t26.5 -72
q0 -54 -38.5 -83t-106.5 -29q-31 0 -60 9t-52 25zM913 300q0 -92 -34.5 -172.5t-94 -140.5t-140.5 -94.5t-174 -34.5q-88 0 -168 33t-140.5 92t-96.5 140t-36 177q0 91 34 171.5t93.5 140.5t140 94.5t173.5 34.5q88 0 168.5 -32.5t141.5 -91t97 -139.5t36 -178zM852 300
q0 79 -29.5 148.5t-81.5 121.5t-121.5 82t-149.5 30q-76 0 -145 -28.5t-121 -79.5t-83 -121t-31 -153q0 -79 29.5 -148.5t80.5 -121.5t120.5 -82t149.5 -30q76 0 145.5 28.5t122 79t83.5 120.5t31 154z" />
    <glyph glyph-name="uni24E3" unicode="&#x24e3;" horiz-adv-x="940" 
d="M482 528v-93h82v-69h-82v-200q0 -23 6.5 -34.5t30.5 -11.5q11 0 22 1.5t25 3.5l5 -62q-15 -5 -38 -9t-37 -3q-28 1 -46 11t-28.5 26t-15 36.5t-4.5 41.5v200h-59v69h59v93h80zM913 300q0 -92 -34.5 -172.5t-94 -140.5t-140.5 -94.5t-174 -34.5q-88 0 -168 33t-140.5 92
t-96.5 140t-36 177q0 91 34 171.5t93.5 140.5t140 94.5t173.5 34.5q88 0 168.5 -32.5t141.5 -91t97 -139.5t36 -178zM852 300q0 79 -29.5 148.5t-81.5 121.5t-121.5 82t-149.5 30q-76 0 -145 -28.5t-121 -79.5t-83 -121t-31 -153q0 -79 29.5 -148.5t80.5 -121.5t120.5 -82
t149.5 -30q76 0 145.5 28.5t122 79t83.5 120.5t31 154z" />
    <glyph glyph-name="uni24E4" unicode="&#x24e4;" horiz-adv-x="940" 
d="M388 230q0 -33 22.5 -46.5t50.5 -13.5q21 0 44 12.5t36 37.5v265h80v-376h-80v24q-20 -15 -46 -23.5t-48 -8.5q-28 0 -53 9t-44 25.5t-30 40.5t-11 54v255h79v-255zM913 300q0 -92 -34.5 -172.5t-94 -140.5t-140.5 -94.5t-174 -34.5q-88 0 -168 33t-140.5 92t-96.5 140
t-36 177q0 91 34 171.5t93.5 140.5t140 94.5t173.5 34.5q88 0 168.5 -32.5t141.5 -91t97 -139.5t36 -178zM852 300q0 79 -29.5 148.5t-81.5 121.5t-121.5 82t-149.5 30q-76 0 -145 -28.5t-121 -79.5t-83 -121t-31 -153q0 -79 29.5 -148.5t80.5 -121.5t120.5 -82t149.5 -30
q76 0 145.5 28.5t122 79t83.5 120.5t31 154z" />
    <glyph glyph-name="uni24E5" unicode="&#x24e5;" horiz-adv-x="940" 
d="M572 469h81l-141 -376h-85l-140 376h84l99 -284zM913 300q0 -92 -34.5 -172.5t-94 -140.5t-140.5 -94.5t-174 -34.5q-88 0 -168 33t-140.5 92t-96.5 140t-36 177q0 91 34 171.5t93.5 140.5t140 94.5t173.5 34.5q88 0 168.5 -32.5t141.5 -91t97 -139.5t36 -178zM852 300
q0 79 -29.5 148.5t-81.5 121.5t-121.5 82t-149.5 30q-76 0 -145 -28.5t-121 -79.5t-83 -121t-31 -153q0 -79 29.5 -148.5t80.5 -121.5t120.5 -82t149.5 -30q76 0 145.5 28.5t122 79t83.5 120.5t31 154z" />
    <glyph glyph-name="uni24E6" unicode="&#x24e6;" horiz-adv-x="940" 
d="M434 491h72l71 -280l66 280h76l-98 -376h-89l-62 249l-63 -249h-90l-98 376h78l66 -280zM913 300q0 -92 -34.5 -172.5t-94 -140.5t-140.5 -94.5t-174 -34.5q-88 0 -168 33t-140.5 92t-96.5 140t-36 177q0 91 34 171.5t93.5 140.5t140 94.5t173.5 34.5q88 0 168.5 -32.5
t141.5 -91t97 -139.5t36 -178zM852 300q0 79 -29.5 148.5t-81.5 121.5t-121.5 82t-149.5 30q-76 0 -145 -28.5t-121 -79.5t-83 -121t-31 -153q0 -79 29.5 -148.5t80.5 -121.5t120.5 -82t149.5 -30q76 0 145.5 28.5t122 79t83.5 120.5t31 154z" />
    <glyph glyph-name="uni24E7" unicode="&#x24e7;" horiz-adv-x="940" 
d="M291 488h88l91 -129l91 129h89l-135 -188l134 -188h-88l-91 129l-91 -129h-89l136 188zM913 300q0 -92 -34.5 -172.5t-94 -140.5t-140.5 -94.5t-174 -34.5q-88 0 -168 33t-140.5 92t-96.5 140t-36 177q0 91 34 171.5t93.5 140.5t140 94.5t173.5 34.5q88 0 168.5 -32.5
t141.5 -91t97 -139.5t36 -178zM852 300q0 79 -29.5 148.5t-81.5 121.5t-121.5 82t-149.5 30q-76 0 -145 -28.5t-121 -79.5t-83 -121t-31 -153q0 -79 29.5 -148.5t80.5 -121.5t120.5 -82t149.5 -30q76 0 145.5 28.5t122 79t83.5 120.5t31 154z" />
    <glyph glyph-name="uni24E8" unicode="&#x24e8;" horiz-adv-x="940" 
d="M335 86q16 -5 26 -6.5t18 -1.5q17 0 30 8.5t20 29.5l15 46l-145 360h81l100 -271l86 271h79l-145 -433q-15 -44 -44 -63t-67 -19q-15 0 -30.5 2.5t-34.5 10.5zM913 300q0 -92 -34.5 -172.5t-94 -140.5t-140.5 -94.5t-174 -34.5q-88 0 -168 33t-140.5 92t-96.5 140
t-36 177q0 91 34 171.5t93.5 140.5t140 94.5t173.5 34.5q88 0 168.5 -32.5t141.5 -91t97 -139.5t36 -178zM852 300q0 79 -29.5 148.5t-81.5 121.5t-121.5 82t-149.5 30q-76 0 -145 -28.5t-121 -79.5t-83 -121t-31 -153q0 -79 29.5 -148.5t80.5 -121.5t120.5 -82t149.5 -30
q76 0 145.5 28.5t122 79t83.5 120.5t31 154z" />
    <glyph glyph-name="uni24E9" unicode="&#x24e9;" horiz-adv-x="940" 
d="M326 491h281v-61l-191 -247h197v-68h-293v61l191 247h-185v68zM913 300q0 -92 -34.5 -172.5t-94 -140.5t-140.5 -94.5t-174 -34.5q-88 0 -168 33t-140.5 92t-96.5 140t-36 177q0 91 34 171.5t93.5 140.5t140 94.5t173.5 34.5q88 0 168.5 -32.5t141.5 -91t97 -139.5
t36 -178zM852 300q0 79 -29.5 148.5t-81.5 121.5t-121.5 82t-149.5 30q-76 0 -145 -28.5t-121 -79.5t-83 -121t-31 -153q0 -79 29.5 -148.5t80.5 -121.5t120.5 -82t149.5 -30q76 0 145.5 28.5t122 79t83.5 120.5t31 154z" />
    <glyph glyph-name="SF100000" unicode="&#x2500;" horiz-adv-x="940" 
d="M0 286v29h940v-29h-940z" />
    <glyph glyph-name="uni2501" unicode="&#x2501;" horiz-adv-x="940" 
d="M0 271v54h920v-54h-920z" />
    <glyph glyph-name="SF110000" unicode="&#x2502;" horiz-adv-x="940" 
d="M455 -200v1000h29v-1000h-29z" />
    <glyph glyph-name="uni2503" unicode="&#x2503;" horiz-adv-x="940" 
d="M442 -200v1000h54v-1000h-54z" />
    <glyph glyph-name="SF010000" unicode="&#x250c;" horiz-adv-x="940" 
d="M484 286v-486h-29v515h485v-29h-456z" />
    <glyph glyph-name="uni250D" unicode="&#x250d;" horiz-adv-x="940" 
d="M488 264v-464h-38v536h490v-72h-452z" />
    <glyph glyph-name="uni250E" unicode="&#x250e;" horiz-adv-x="940" 
d="M507 282v-482h-76v518h509v-36h-433z" />
    <glyph glyph-name="uni250F" unicode="&#x250f;" horiz-adv-x="940" 
d="M496 271v-471h-54v525h498v-54h-444z" />
    <glyph glyph-name="SF030000" unicode="&#x2510;" horiz-adv-x="940" 
d="M455 -200v486h-455v29h484v-515h-29z" />
    <glyph glyph-name="uni2511" unicode="&#x2511;" horiz-adv-x="940" 
d="M450 -200v464h-450v72h488v-536h-38z" />
    <glyph glyph-name="uni2512" unicode="&#x2512;" horiz-adv-x="940" 
d="M431 -200v482h-431v36h507v-518h-76z" />
    <glyph glyph-name="uni2513" unicode="&#x2513;" horiz-adv-x="940" 
d="M442 -200v471h-442v54h496v-525h-54z" />
    <glyph glyph-name="SF020000" unicode="&#x2514;" horiz-adv-x="940" 
d="M455 286v514h29v-485h426v-29h-455z" />
    <glyph glyph-name="uni2515" unicode="&#x2515;" horiz-adv-x="940" 
d="M450 264v536h38v-464h452v-72h-490z" />
    <glyph glyph-name="uni2516" unicode="&#x2516;" horiz-adv-x="940" 
d="M431 282v518h76v-482h433v-36h-509z" />
    <glyph glyph-name="uni2517" unicode="&#x2517;" horiz-adv-x="940" 
d="M442 271v529h54v-475h444v-54h-498z" />
    <glyph glyph-name="SF040000" unicode="&#x2518;" horiz-adv-x="940" 
d="M0 286v29h455v485h29v-514h-484z" />
    <glyph glyph-name="uni2519" unicode="&#x2519;" horiz-adv-x="940" 
d="M0 264v72h450v464h38v-536h-488z" />
    <glyph glyph-name="uni251A" unicode="&#x251a;" horiz-adv-x="940" 
d="M0 282v36h431v482h76v-518h-507z" />
    <glyph glyph-name="uni251B" unicode="&#x251b;" horiz-adv-x="940" 
d="M0 271v54h442v475h54v-529h-496z" />
    <glyph glyph-name="SF080000" unicode="&#x251c;" horiz-adv-x="940" 
d="M484 286v-486h-29v1000h29v-485h436v-29h-436z" />
    <glyph glyph-name="uni251D" unicode="&#x251d;" horiz-adv-x="940" 
d="M488 264v-464h-38v1000h38v-464h452v-72h-452z" />
    <glyph glyph-name="uni251E" unicode="&#x251e;" horiz-adv-x="940" 
d="M487 282v-482h-37v500h-19v500h76v-482h433v-36h-453z" />
    <glyph glyph-name="uni251F" unicode="&#x251f;" horiz-adv-x="940" 
d="M507 282v-482h-76v500h19v500h38v-482h452v-36h-433z" />
    <glyph glyph-name="uni2520" unicode="&#x2520;" horiz-adv-x="940" 
d="M507 282v-482h-76v1000h76v-482h433v-36h-433z" />
    <glyph glyph-name="uni2521" unicode="&#x2521;" horiz-adv-x="940" 
d="M488 264v-464h-38v500h-19v500h76v-464h433v-72h-452z" />
    <glyph glyph-name="uni2522" unicode="&#x2522;" horiz-adv-x="940" 
d="M507 264v-464h-76v500h19v500h38v-464h452v-72h-433z" />
    <glyph glyph-name="uni2523" unicode="&#x2523;" horiz-adv-x="940" 
d="M496 271v-471h-54v1000h54v-475h444v-54h-444z" />
    <glyph glyph-name="SF090000" unicode="&#x2524;" horiz-adv-x="940" 
d="M455 -200v486h-455v29h455v485h29v-1000h-29z" />
    <glyph glyph-name="uni2525" unicode="&#x2525;" horiz-adv-x="940" 
d="M450 -200v464h-450v72h450v464h38v-1000h-38z" />
    <glyph glyph-name="uni2526" unicode="&#x2526;" horiz-adv-x="940" 
d="M488 300v-500h-38v482h-450v36h431v482h76v-500h-19z" />
    <glyph glyph-name="uni2527" unicode="&#x2527;" horiz-adv-x="940" 
d="M431 -200v482h-431v36h450v482h38v-500h19v-500h-76z" />
    <glyph glyph-name="uni2528" unicode="&#x2528;" horiz-adv-x="940" 
d="M431 -200v482h-431v36h431v482h76v-1000h-76z" />
    <glyph glyph-name="uni2529" unicode="&#x2529;" horiz-adv-x="940" 
d="M488 300v-500h-38v464h-450v72h431v464h76v-500h-19z" />
    <glyph glyph-name="uni252A" unicode="&#x252a;" horiz-adv-x="940" 
d="M431 -200v464h-431v72h450v464h38v-500h19v-500h-76z" />
    <glyph glyph-name="uni252B" unicode="&#x252b;" horiz-adv-x="940" 
d="M442 -200v471h-442v54h442v475h54v-1000h-54z" />
    <glyph glyph-name="SF060000" unicode="&#x252c;" horiz-adv-x="940" 
d="M484 286v-486h-29v486h-455v29h940v-29h-456z" />
    <glyph glyph-name="uni252D" unicode="&#x252d;" horiz-adv-x="940" 
d="M488 282v-482h-38v464h-450v72h469v-18h471v-36h-452z" />
    <glyph glyph-name="uni252E" unicode="&#x252e;" horiz-adv-x="940" 
d="M488 264v-464h-38v482h-450v36h469v18h471v-72h-452z" />
    <glyph glyph-name="uni252F" unicode="&#x252f;" horiz-adv-x="940" 
d="M488 264v-464h-38v464h-450v72h940v-72h-452z" />
    <glyph glyph-name="uni2530" unicode="&#x2530;" horiz-adv-x="940" 
d="M507 282v-482h-76v482h-431v36h940v-36h-433z" />
    <glyph glyph-name="uni2531" unicode="&#x2531;" horiz-adv-x="940" 
d="M507 282v-482h-76v464h-431v72h469v-18h471v-36h-433z" />
    <glyph glyph-name="uni2532" unicode="&#x2532;" horiz-adv-x="940" 
d="M507 264v-464h-76v482h-431v36h469v18h471v-72h-433z" />
    <glyph glyph-name="uni2533" unicode="&#x2533;" horiz-adv-x="940" 
d="M496 271v-471h-54v471h-442v54h920v-54h-424z" />
    <glyph glyph-name="SF070000" unicode="&#x2534;" horiz-adv-x="940" 
d="M0 286v29h455v485h29v-485h436v-29h-920z" />
    <glyph glyph-name="uni2535" unicode="&#x2535;" horiz-adv-x="940" 
d="M469 282v-18h-469v72h450v464h38v-482h452v-36h-471z" />
    <glyph glyph-name="uni2536" unicode="&#x2536;" horiz-adv-x="940" 
d="M469 264v18h-469v36h450v482h38v-464h452v-72h-471z" />
    <glyph glyph-name="uni2537" unicode="&#x2537;" horiz-adv-x="940" 
d="M0 264v72h450v464h38v-464h452v-72h-940z" />
    <glyph glyph-name="uni2538" unicode="&#x2538;" horiz-adv-x="940" 
d="M0 282v36h431v482h76v-482h433v-36h-940z" />
    <glyph glyph-name="uni2539" unicode="&#x2539;" horiz-adv-x="940" 
d="M469 282v-18h-469v72h431v464h76v-482h433v-36h-471z" />
    <glyph glyph-name="uni253A" unicode="&#x253a;" horiz-adv-x="940" 
d="M469 264v18h-469v36h431v482h76v-464h433v-72h-471z" />
    <glyph glyph-name="uni253B" unicode="&#x253b;" horiz-adv-x="940" 
d="M0 271v54h442v475h54v-475h444v-54h-940z" />
    <glyph glyph-name="SF050000" unicode="&#x253c;" horiz-adv-x="940" 
d="M484 285v-485h-29v485h-455v29h455v486h29v-486h436v-29h-436z" />
    <glyph glyph-name="uni253D" unicode="&#x253d;" horiz-adv-x="940" 
d="M488 282v-482h-38v464h-450v76h450v460h38v-482h452v-36h-452z" />
    <glyph glyph-name="uni253E" unicode="&#x253e;" horiz-adv-x="940" 
d="M488 264v-464h-38v482h-450v36h450v482h38v-464h452v-72h-452z" />
    <glyph glyph-name="uni253F" unicode="&#x253f;" horiz-adv-x="940" 
d="M488 264v-464h-38v464h-450v72h450v464h38v-464h452v-72h-452z" />
    <glyph glyph-name="uni2540" unicode="&#x2540;" horiz-adv-x="940" 
d="M488 282v-482h-38v482h-450v36h431v482h76v-482h433v-36h-452z" />
    <glyph glyph-name="uni2541" unicode="&#x2541;" horiz-adv-x="940" 
d="M507 282v-482h-76v482h-431v36h450v482h38v-482h452v-36h-433z" />
    <glyph glyph-name="uni2542" unicode="&#x2542;" horiz-adv-x="940" 
d="M507 282v-482h-76v482h-431v36h431v482h76v-482h433v-36h-433z" />
    <glyph glyph-name="uni2543" unicode="&#x2543;" horiz-adv-x="940" 
d="M488 282v-482h-38v464h-450v72h431v464h76v-482h433v-36h-452z" />
    <glyph glyph-name="uni2544" unicode="&#x2544;" horiz-adv-x="940" 
d="M488 264v-464h-38v482h-450v36h431v482h76v-464h433v-72h-452z" />
    <glyph glyph-name="uni2545" unicode="&#x2545;" horiz-adv-x="940" 
d="M507 282v-482h-76v464h-431v72h450v464h38v-482h452v-36h-433z" />
    <glyph glyph-name="uni2546" unicode="&#x2546;" horiz-adv-x="940" 
d="M507 264v-464h-76v482h-431v36h450v482h38v-464h452v-72h-433z" />
    <glyph glyph-name="uni2547" unicode="&#x2547;" horiz-adv-x="940" 
d="M488 264v-464h-38v464h-450v72h431v464h76v-464h433v-72h-452z" />
    <glyph glyph-name="uni2548" unicode="&#x2548;" horiz-adv-x="940" 
d="M507 264v-464h-76v464h-431v72h450v464h38v-464h452v-72h-433z" />
    <glyph glyph-name="uni2549" unicode="&#x2549;" horiz-adv-x="940" 
d="M507 282v-482h-76v464h-431v72h431v464h76v-482h433v-36h-433z" />
    <glyph glyph-name="uni254A" unicode="&#x254a;" horiz-adv-x="940" 
d="M507 264v-464h-76v482h-431v36h431v482h76v-464h433v-72h-433z" />
    <glyph glyph-name="uni254B" unicode="&#x254b;" horiz-adv-x="940" 
d="M496 271v-471h-54v471h-442v54h442v475h54v-475h444v-54h-444z" />
    <glyph glyph-name="shade" unicode="&#x2592;" horiz-adv-x="940" 
d="M886 680q0 -15 -10 -24t-23 -9q-15 0 -25.5 9t-10.5 24t10.5 24.5t25.5 9.5q13 0 23 -9.5t10 -24.5zM759 680q0 -15 -10 -24t-25 -9t-25 9t-10 24t10 25t25 10t25 -10t10 -25zM886 553q0 -15 -10 -25t-23 -10q-15 0 -25.5 9.5t-10.5 25.5q0 15 10.5 24.5t25.5 9.5
q13 0 23 -9.5t10 -24.5zM632 680q0 -15 -9.5 -24t-24.5 -9t-25 9t-10 24t10 25t25 10t24.5 -10t9.5 -25zM759 554q0 -16 -10 -26t-25 -10t-25 10t-10 26q0 15 10 24.5t25 9.5t25 -9.5t10 -24.5zM886 425q0 -15 -10 -24.5t-23 -9.5q-15 0 -25.5 9.5t-10.5 24.5t10.5 25
t25.5 10q13 0 23 -10t10 -25zM632 554q0 -16 -9.5 -26t-24.5 -10t-25 10t-10 26q0 15 10 24.5t25 9.5t24.5 -9.5t9.5 -24.5zM504 680q0 -15 -9.5 -24t-25.5 -9q-14 0 -23.5 9t-9.5 24t9.5 24.5t23.5 9.5q16 0 25.5 -9.5t9.5 -24.5zM759 426q0 -16 -10 -25.5t-25 -9.5t-25 10
t-10 25t10 24.5t25 9.5t25 -9.5t10 -24.5zM886 297q0 -13 -10 -23t-23 -10q-15 0 -25.5 10t-10.5 23q0 15 10.5 25t25.5 10q13 0 23 -10t10 -25zM632 426q0 -15 -9.5 -25t-24.5 -10t-25 10t-10 25t10 24.5t25 9.5t24.5 -9.5t9.5 -24.5zM504 553q0 -16 -9.5 -25.5t-25.5 -9.5
q-14 0 -23.5 10t-9.5 25t9.5 24.5t23.5 9.5q16 0 25.5 -9.5t9.5 -24.5zM886 171q0 -14 -10 -24.5t-23 -10.5q-15 0 -25.5 10.5t-10.5 24.5t10.5 24t25.5 10q13 0 23 -10t10 -24zM376 680q0 -15 -9.5 -24t-25.5 -9q-15 0 -24.5 9t-9.5 24t9.5 24.5t24.5 9.5q16 0 25.5 -9.5
t9.5 -24.5zM758 297q0 -13 -9.5 -23t-24.5 -10t-25 10t-10 23q0 15 10 25t25 10t24.5 -10t9.5 -25zM504 425q0 -15 -9.5 -24.5t-25.5 -9.5q-14 0 -23.5 9.5t-9.5 24.5t9.5 25t23.5 10q16 0 25.5 -10t9.5 -25zM631 297q0 -13 -9 -23t-24 -10t-25 10t-10 23q0 15 10 25t25 10
t24 -10t9 -25zM887 43q0 -14 -10 -24.5t-23 -10.5q-17 0 -27 10.5t-10 24.5q0 16 10 26t27 10q13 0 23 -10.5t10 -25.5zM250 680q0 -15 -10.5 -24t-25.5 -9t-25 9t-10 24t10 25t25 10t25.5 -10t10.5 -25zM376 553q0 -16 -9.5 -25.5t-25.5 -9.5q-15 0 -24.5 10t-9.5 25
t9.5 24.5t24.5 9.5q16 0 25.5 -9.5t9.5 -24.5zM758 171q0 -14 -9.5 -24.5t-24.5 -10.5t-25 10.5t-10 24.5t10 24t25 10t24.5 -10t9.5 -24zM504 297q0 -13 -9.5 -23t-25.5 -10q-14 0 -23.5 10t-9.5 23q0 15 9.5 25t23.5 10q16 0 25.5 -10t9.5 -25zM631 171q0 -14 -9 -24.5
t-24 -10.5t-25 10.5t-10 24.5t10 24t25 10t24 -10t9 -24zM887 -84q0 -15 -10 -25t-23 -10q-17 0 -27 10t-10 25q0 14 10 24t27 10q13 0 23 -10t10 -24zM250 554q0 -16 -10.5 -26t-25.5 -10t-25 10t-10 26q0 15 10 24.5t25 9.5t25.5 -9.5t10.5 -24.5zM376 425
q0 -15 -9.5 -24.5t-25.5 -9.5q-15 0 -24.5 9.5t-9.5 24.5t9.5 25t24.5 10q16 0 25.5 -10t9.5 -25zM759 43q0 -14 -10 -24.5t-25 -10.5q-14 0 -24.5 10.5t-10.5 24.5q0 15 10 25.5t25 10.5t25 -10.5t10 -25.5zM121 680q0 -15 -10.5 -24t-25.5 -9q-13 0 -23 9t-10 24t10 24.5
t23 9.5q15 0 25.5 -9.5t10.5 -24.5zM504 171q0 -14 -9.5 -24.5t-25.5 -10.5q-14 0 -23.5 10.5t-9.5 24.5t9.5 24t23.5 10q16 0 25.5 -10t9.5 -24zM632 43q0 -14 -9.5 -24.5t-24.5 -10.5t-25 10.5t-10 24.5q0 15 10 25.5t25 10.5t24.5 -10.5t9.5 -25.5zM250 426
q0 -15 -10.5 -25t-25.5 -10t-25 9.5t-10 25.5q0 15 10 24.5t25 9.5t25.5 -9.5t10.5 -24.5zM376 297q0 -13 -9.5 -23t-25.5 -10q-15 0 -24.5 10t-9.5 23q0 15 9.5 25t24.5 10q16 0 25.5 -10t9.5 -25zM759 -84q0 -15 -10 -25t-25 -10q-14 0 -24.5 10.5t-10.5 24.5t10 24t25 10
t25 -10t10 -24zM121 553q0 -15 -10.5 -25t-25.5 -10q-13 0 -23 10t-10 25t10 24.5t23 9.5q15 0 25.5 -9.5t10.5 -24.5zM505 43q0 -14 -9.5 -24.5t-26.5 -10.5q-14 0 -23.5 10.5t-9.5 24.5q0 15 9.5 25.5t23.5 10.5q17 0 26.5 -10t9.5 -26zM632 -84q0 -14 -9.5 -24.5
t-24.5 -10.5t-25 10.5t-10 24.5t10 24t25 10t24.5 -10t9.5 -24zM376 171q0 -14 -9.5 -24.5t-25.5 -10.5q-15 0 -24.5 10.5t-9.5 24.5t9.5 24t24.5 10q16 0 25.5 -10t9.5 -24zM121 424q0 -14 -10.5 -23.5t-25.5 -9.5q-13 0 -23 9.5t-10 23.5q0 17 10 26.5t23 9.5
q15 0 25.5 -9.5t10.5 -26.5zM249 297q0 -13 -10.5 -23t-24.5 -10q-15 0 -25 10t-10 23q0 15 10 25t25 10t25 -10t10 -25zM505 -84q0 -15 -9.5 -25t-26.5 -10q-14 0 -23.5 10t-9.5 25q0 14 9.5 24t23.5 10q17 0 26.5 -10t9.5 -24zM377 43q0 -14 -9.5 -24.5t-25.5 -10.5
q-15 0 -25 10.5t-10 24.5q0 15 10 25.5t25 10.5q16 0 25.5 -10.5t9.5 -25.5zM249 171q0 -14 -10.5 -24.5t-24.5 -10.5q-15 0 -25 10.5t-10 24.5t10 24t25 10t25 -10t10 -24zM121 296q0 -14 -10.5 -23.5t-25.5 -9.5q-13 0 -23 9.5t-10 23.5q0 15 10 24.5t23 9.5
q15 0 25.5 -9.5t10.5 -24.5zM377 -84q0 -15 -9.5 -25t-25.5 -10q-15 0 -25 10t-10 25q0 14 10 24t25 10q16 0 25.5 -10t9.5 -24zM250 43q0 -14 -10.5 -24.5t-25.5 -10.5t-25 10.5t-10 24.5q0 15 10 25.5t25 10.5t25.5 -10.5t10.5 -25.5zM121 171q0 -14 -10.5 -24.5
t-25.5 -10.5q-13 0 -23 10.5t-10 24.5t10 23.5t23 9.5q36 0 36 -33zM250 -84q0 -14 -10.5 -24.5t-25.5 -10.5t-25 10t-10 25q0 14 10 24t25 10t25.5 -10t10.5 -24zM121 43q0 -14 -10.5 -24.5t-25.5 -10.5q-13 0 -23 10.5t-10 24.5t10 24t23 10q15 0 25.5 -10t10.5 -24z
M121 -84q0 -15 -10.5 -25t-25.5 -10q-13 0 -23 10t-10 25q0 14 10 24t23 10q15 0 25.5 -10t10.5 -24z" />
    <glyph glyph-name="filledbox" unicode="&#x25a0;" horiz-adv-x="940" 
d="M95 -73v750h750v-750h-750z" />
    <glyph glyph-name="H22073" unicode="&#x25a1;" horiz-adv-x="940" 
d="M95 -73v750h750v-750h-750zM798 630h-657v-656h657v656z" />
    <glyph glyph-name="uni25A3" unicode="&#x25a3;" horiz-adv-x="940" 
d="M95 -73v750h750v-750h-750zM798 630h-657v-656h657v656zM657 115h-375v374h375v-374z" />
    <glyph glyph-name="uni25A4" unicode="&#x25a4;" horiz-adv-x="940" 
d="M52 -118v829h835v-829h-835zM851 676h-764v-78h764v78zM851 562h-764v-83h764v83zM851 445h-764v-74h764v74zM851 334h-764v-79h764v79zM851 219h-764v-81h764v81zM851 103h-764v-75h764v75zM851 -8h-764v-74h764v74z" />
    <glyph glyph-name="uni25A5" unicode="&#x25a5;" horiz-adv-x="940" 
d="M52 -118v828h835v-828h-835zM852 674h-77v-756h77v756zM740 674h-74v-756h74v756zM629 674h-80v-756h80v756zM513 674h-80v-756h80v756zM396 674h-76v-756h76v756zM285 674h-83v-756h83v756zM166 674h-79v-756h79v756z" />
    <glyph glyph-name="uni25A6" unicode="&#x25a6;" horiz-adv-x="940" 
d="M52 -118v829h835v-829h-835zM851 676h-81v-79h81v79zM737 676h-78v-79h78v79zM851 564h-81v-86h81v86zM626 676h-83v-79h83v79zM737 564h-78v-86h78v86zM851 446h-81v-78h81v78zM626 564h-83v-86h83v86zM511 676h-86v-79h86v79zM737 446h-78v-78h78v78zM851 335h-81v-81
h81v81zM737 335h-78v-81h78v81zM393 676h-76v-79h76v79zM626 446h-83v-78h83v78zM511 564h-86v-86h86v86zM851 221h-81v-84h81v84zM285 676h-85v-79h85v79zM626 335h-83v-81h83v81zM737 221h-78v-84h78v84zM851 105h-81v-78h81v78zM393 564h-76v-86h76v86zM511 446h-86v-78
h86v78zM851 -5h-81v-77h81v77zM737 105h-78v-78h78v78zM167 676h-80v-79h80v79zM626 221h-83v-84h83v84zM285 564h-85v-86h85v86zM511 335h-86v-81h86v81zM393 446h-76v-78h76v78zM737 -5h-78v-77h78v77zM626 105h-83v-78h83v78zM393 335h-76v-81h76v81zM285 446h-85v-78h85
v78zM167 564h-80v-86h80v86zM511 221h-86v-84h86v84zM626 -5h-83v-77h83v77zM285 335h-85v-81h85v81zM511 105h-86v-78h86v78zM393 221h-76v-84h76v84zM167 446h-80v-78h80v78zM511 -5h-86v-77h86v77zM167 335h-80v-81h80v81zM285 221h-85v-84h85v84zM393 105h-76v-78h76v78
zM393 -5h-76v-77h76v77zM285 105h-85v-78h85v78zM167 221h-80v-84h80v84zM285 -5h-85v-77h85v77zM167 105h-80v-78h80v78zM167 -5h-80v-77h80v77z" />
    <glyph glyph-name="uni25A7" unicode="&#x25a7;" horiz-adv-x="940" 
d="M52 -119v830h835v-830h-835zM664 675q48 -48 92.5 -92t91.5 -91v183h-184zM478 675q94 -94 185 -185.5t185 -185.5v142q-57 57 -114 114.5t-114 114.5h-142zM289 675q141 -140 279 -278.5t280 -279.5v142q-106 104 -209.5 207.5t-210.5 208.5h-139zM112 675
q186 -186 368 -366.5t368 -365.5v125q-154 153 -304.5 303.5t-305.5 303.5h-126zM822 -82q-186 185 -368 366.5t-368 367.5v-125q155 -154 306 -305t306 -304h124zM650 -82q-141 142 -281.5 282t-282.5 281v-143q107 -107 211 -210.5t210 -209.5h143zM456 -82
q-94 94 -185 185.5t-185 185.5v-146q59 -57 115.5 -113t113.5 -112h141zM264 -82q-45 46 -89 90.5t-89 91.5v-182h178z" />
    <glyph glyph-name="uni25A8" unicode="&#x25a8;" horiz-adv-x="940" 
d="M52 710h835v-828h-835v828zM478 -82h142l228 227v141zM289 -82h139l420 415v142zM664 -82h184v181zM112 -82h126l610 604v127zM86 64v-123l736 733h-124zM86 254v-144l564 564h-143zM86 448v-146l370 372h-141zM86 491l178 183h-178v-183z" />
    <glyph glyph-name="uni25A9" unicode="&#x25a9;" horiz-adv-x="940" 
d="M53 -119v829h834v-829h-834zM360 208q-18 19 -36.5 37.5l-36.5 36.5q-18 -18 -36 -36.5t-37 -36.5q19 -18 37.5 -36.5l36.5 -36.5zM554 408q18 18 36 35t36 35l-72 72l-72 -72q18 -18 36 -35t36 -35zM650 503q18 18 35 36t35 36l-70 71q-18 -18 -36 -35.5t-36 -35.5z
M189 42q18 18 35.5 36t35.5 37l-69 69l-71 -72zM382 42l35.5 35.5t36.5 35.5l-70 70l-71 -71q18 -18 34.5 -35t34.5 -35zM816 478l-69 70q-18 -18 -36 -35.5t-36 -35.5l71 -69zM286 -52q18 18 36 35l36 34l-70 70l-72 -72q18 -18 35 -33.5t35 -33.5zM456 505q18 18 35.5 36
t35.5 36q-17 18 -32.5 34t-32.5 33l-36 -36t-37 -36l34 -34zM652 314q18 18 34 34.5t34 33.5q-18 18 -34 35t-34 35q-18 -18 -34 -34.5t-34 -33.5zM473 -50q19 18 37 35.5t36 35.5l-66 65l-70 -71q15 -16 31 -32t32 -33zM258 308q-17 16 -32.5 32t-32.5 33
q-18 -18 -35.5 -35t-35.5 -35q16 -16 32 -32.5t33 -33.5zM744 219q17 18 35 35t36 35l-33 33t-34 32l-69 -69l33 -33t32 -33zM269 646q-17 -16 -32.5 -31.5l-31.5 -31.5q18 -18 36 -35.5t36 -35.5l62 63zM189 425q16 16 32 31.5t32 31.5q-18 17 -36.5 34.5t-36.5 35.5
l-62 -62zM564 224q30 32 62 62q-18 18 -35 36t-35 36q-15 -17 -31 -32.5t-32 -32.5zM468 322q16 16 30.5 31.5t30.5 31.5l-69 69q-16 -16 -31.5 -31t-30.5 -31zM380 234q15 16 30.5 31t30.5 31q-18 18 -35 35.5t-35 35.5l-60 -63q18 -17 34.5 -34.5t34.5 -35.5zM537 199
q-17 18 -33.5 35t-33.5 35q-17 -16 -32.5 -31t-30.5 -31q17 -18 34.5 -34.5t35.5 -34.5zM750 38q17 16 32 32t31 32q-17 17 -32.5 33t-33.5 33q-16 -16 -31.5 -31t-31.5 -32l33 -33t33 -34zM433 481l-33 33t-33 32q-33 -32 -63 -63q16 -16 32 -31.5t34 -32.5zM281 330
q16 17 31 32.5t31 31.5q-16 17 -32 33l-32 32q-16 -15 -31.5 -31t-31.5 -32q17 -17 32.5 -33t32.5 -33zM657 132q16 17 31 32l31 31l-65 66q-16 -16 -31.5 -32t-30.5 -32zM725 13l-66 66l-62 -62q18 -17 34 -32.5t32 -33.5zM570 47q16 14 30.5 29.5t29.5 30.5
q-16 17 -31.5 33t-31.5 33q-16 -15 -31.5 -30.5t-30.5 -32.5q17 -16 32.5 -32t32.5 -31zM849 647q-22 -20 -40.5 -39t-38.5 -39l79 -78v156zM87 -60l39 39t40 39q-21 20 -40 40t-39 40v-158zM87 322l39 39t40 39l-79 78v-156zM652 -82q-21 19 -39.5 38t-39.5 38
q-20 -19 -39 -38t-39 -38h157zM849 269q-20 -19 -39 -38l-38 -38l77 -77v153zM87 136q19 20 38 39l39 39q-20 19 -39 37t-38 37v-152zM740 599q20 19 39 38t38 37h-154q20 -18 39 -37zM774 380q18 -20 37 -38.5t38 -37.5v150q-19 -19 -38 -37t-37 -37zM364 600l37.5 37.5
t37.5 36.5h-150zM192 -10q-19 -18 -37 -36t-37 -36h149zM458 -82q-19 18 -37.5 35.5t-36.5 35.5l-72 -71h146zM551 602q18 18 35.5 36t35.5 36h-143zM849 80l-70 -69l70 -69v138zM753 -15q-18 -18 -34.5 -33.5t-34.5 -33.5h136zM153 585l-66 66v-132zM176 609
q18 17 33.5 32.5l32.5 32.5h-131z" />
    <glyph glyph-name="triagup" unicode="&#x25b2;" horiz-adv-x="940" 
d="M473 630l392 -630h-791z" />
    <glyph glyph-name="uni25B3" unicode="&#x25b3;" horiz-adv-x="940" 
d="M473 630l392 -630h-791zM473 545l-322 -505h635z" />
    <glyph glyph-name="uni25B6" unicode="&#x25b6;" horiz-adv-x="940" 
d="M162 -78v764l615 -384z" />
    <glyph glyph-name="uni25B7" unicode="&#x25b7;" horiz-adv-x="940" 
d="M162 -78v764l615 -384zM207 607v-608l491 302z" />
    <glyph glyph-name="triagdn" unicode="&#x25bc;" horiz-adv-x="940" 
d="M74 590h791l-392 -630z" />
    <glyph glyph-name="uni25BD" unicode="&#x25bd;" horiz-adv-x="940" 
d="M74 590h791l-392 -630zM786 550h-635l322 -505z" />
    <glyph glyph-name="uni25C0" unicode="&#x25c0;" horiz-adv-x="940" 
d="M162 302l615 384v-764z" />
    <glyph glyph-name="uni25C1" unicode="&#x25c1;" horiz-adv-x="940" 
d="M162 302l615 384v-764zM241 301l491 -302v608z" />
    <glyph glyph-name="uni25C6" unicode="&#x25c6;" horiz-adv-x="940" 
d="M469 -137l-443 441l443 441l444 -441z" />
    <glyph glyph-name="uni25C7" unicode="&#x25c7;" horiz-adv-x="940" 
d="M469 -137l-443 441l443 441l444 -441zM848 304l-379 379l-378 -379l378 -378z" />
    <glyph glyph-name="uni25C8" unicode="&#x25c8;" horiz-adv-x="940" 
d="M469 -137l-443 441l443 441l444 -441zM848 304l-379 379l-378 -379l378 -378zM469 71l-233 233l233 233l233 -233z" />
    <glyph glyph-name="circle" unicode="&#x25cb;" horiz-adv-x="940" 
d="M869 300q0 -83 -31 -155.5t-85 -126.5t-126.5 -85t-156.5 -31q-79 0 -151 29.5t-126.5 82.5t-87 126t-32.5 160q0 82 31 154.5t84.5 126.5t126 85t155.5 31q79 0 151.5 -29.5t127.5 -82t87.5 -125.5t32.5 -160zM814 300q0 71 -27 134t-73.5 109.5t-109 73.5t-134.5 27
q-69 0 -131 -25.5t-109 -71.5t-74.5 -109t-27.5 -138q0 -71 26.5 -134t72.5 -109.5t108.5 -73.5t134.5 -27q69 0 131 25.5t109.5 71t75.5 109t28 138.5z" />
    <glyph glyph-name="uni25CE" unicode="&#x25ce;" horiz-adv-x="940" 
d="M869 300q0 -83 -31 -155.5t-85 -126.5t-126.5 -85t-156.5 -31q-79 0 -151 29.5t-126.5 82.5t-87 126t-32.5 160q0 82 31 154.5t84.5 126.5t126 85t155.5 31q79 0 151.5 -29.5t127.5 -82t87.5 -125.5t32.5 -160zM814 300q0 71 -27 134t-73.5 109.5t-109 73.5t-134.5 27
q-69 0 -131 -25.5t-109 -71.5t-74.5 -109t-27.5 -138q0 -71 26.5 -134t72.5 -109.5t108.5 -73.5t134.5 -27q69 0 131 25.5t109.5 71t75.5 109t28 138.5zM722 300q0 -53 -19.5 -98.5t-53.5 -79.5t-80 -53.5t-99 -19.5q-50 0 -95 18.5t-79.5 52t-55 79.5t-20.5 101
q0 52 19.5 97.5t53 79.5t79 53.5t98.5 19.5q50 0 96 -18.5t80.5 -51.5t55 -79t20.5 -101zM672 300q0 42 -15.5 78.5t-43 64t-64.5 43.5t-79 16q-40 0 -76.5 -15t-64 -42t-43.5 -64t-16 -81q0 -42 15.5 -79t42.5 -64t63.5 -43t78.5 -16q40 0 77 15t64.5 42t44 64t16.5 81z
" />
    <glyph glyph-name="H18533" unicode="&#x25cf;" horiz-adv-x="940" 
d="M869 300q0 -83 -31 -155.5t-85 -126.5t-126.5 -85t-156.5 -31q-79 0 -151 29.5t-126.5 82.5t-87 126t-32.5 160q0 82 31 154.5t84.5 126.5t126 85t155.5 31q79 0 151.5 -29.5t127.5 -82t87.5 -125.5t32.5 -160z" />
    <glyph glyph-name="uni25D0" unicode="&#x25d0;" horiz-adv-x="940" 
d="M867 302q0 -84 -31.5 -157t-86 -126.5t-127.5 -84.5t-157 -31q-81 0 -153 31.5t-125 85.5t-84 126.5t-31 155.5q0 82 31 154.5t84.5 125.5t125 84t152.5 31q84 0 157 -30.5t127.5 -83.5t86 -125t31.5 -156zM829 301q0 73 -28 137.5t-77 113t-114 76.5t-139 28v-712
q73 0 138 28.5t114 77t77.5 113.5t28.5 138z" />
    <glyph glyph-name="uni25D1" unicode="&#x25d1;" horiz-adv-x="940" 
d="M72 302q0 84 31.5 156t86 125t127.5 83.5t157 30.5q81 0 152.5 -31t125 -84t84.5 -125.5t31 -154.5q0 -83 -31 -155.5t-84 -126.5t-125 -85.5t-153 -31.5q-84 0 -157 31t-127.5 84.5t-86 126.5t-31.5 157zM110 301q0 -73 28.5 -138t77.5 -113.5t114 -77t138 -28.5v712
q-74 0 -139 -28t-114 -76.5t-77 -113t-28 -137.5z" />
    <glyph glyph-name="uni2605" unicode="&#x2605;" horiz-adv-x="940" 
d="M623 253l103 -297l-259 189l-254 -184l97 296l-241 182h303l96 277l97 -277h305z" />
    <glyph glyph-name="uni2606" unicode="&#x2606;" horiz-adv-x="940" 
d="M623 253l103 -297l-259 189l-254 -184l97 296l-241 182h303l96 277l97 -277h305zM536 405l-67 202l-69 -202h-225l180 -139l-76 -215l187 139l189 -139l-77 214l185 140h-227z" />
    <glyph glyph-name="uni260E" unicode="&#x260e;" horiz-adv-x="940" 
d="M913 391q0 -64 -50 -64q-45 0 -103 19q-74 23 -74 55q0 13 9 36q10 21 10 33q0 11 -16.5 20t-33.5 9q-13 0 -13 -14v-29q0 -68 30 -119q7 -12 23 -31.5t41 -46.5q22 -23 36.5 -45.5t22.5 -43.5q8 -17 12 -46q3 -17 5.5 -29t4.5 -17q1 -7 12 -25q8 -14 8 -25
q0 -23 -20.5 -38t-51.5 -15h-632q-39 0 -39 45q0 17 9 32q5 8 8.5 15t4.5 12q2 14 5 27t6 27q5 19 10.5 34t12.5 26q12 19 60 70q22 22 37 41t23 35q28 49 28 115v42q0 9 -8 9q-16 0 -33 -13t-17 -29q0 -8 7.5 -26.5t7.5 -33.5q0 -37 -75 -62q-60 -21 -106 -21q-47 0 -47 61
q0 134 167 191q112 39 276 39q152 0 271 -38q172 -57 172 -182zM587 523q-34 -4 -62.5 -6t-53.5 -2q-26 0 -55.5 2.5t-63.5 7.5v-87q0 -39 58 -39h110q67 0 67 41v83zM633 203q0 35 -12.5 65.5t-35 52.5t-52.5 34.5t-66 12.5q-35 0 -65.5 -12.5t-53 -34.5t-35 -52.5
t-12.5 -65.5t13 -65t35.5 -51.5t52.5 -34t65 -12.5t65 12t52.5 34t35.5 52t13 65z" />
    <glyph glyph-name="uni260F" unicode="&#x260f;" horiz-adv-x="940" 
d="M913 391q0 -64 -50 -64q-45 0 -103 19q-74 23 -74 55q0 13 9 36q10 21 10 33q0 11 -16.5 20t-33.5 9q-13 0 -13 -14v-29q0 -68 30 -119q7 -12 23 -31.5t41 -46.5q22 -23 36.5 -45.5t22.5 -43.5q8 -17 12 -46q3 -17 5.5 -29t4.5 -17q1 -7 12 -25q8 -14 8 -25
q0 -23 -20.5 -38t-51.5 -15h-632q-39 0 -39 45q0 17 9 32q5 8 8.5 15t4.5 12q2 14 5 27t6 27q5 19 10.5 34t12.5 26q12 19 60 70q22 22 37 41t23 35q28 49 28 115v42q0 9 -8 9q-16 0 -33 -13t-17 -29q0 -8 7.5 -26.5t7.5 -33.5q0 -37 -75 -62q-60 -21 -106 -21q-47 0 -47 61
q0 134 167 191q112 39 276 39q152 0 271 -38q172 -57 172 -182zM885 386q0 114 -161 168q-107 37 -253 37q-142 0 -258 -38q-162 -54 -162 -170q0 -43 29 -43q30 0 86 18q66 21 66 45q0 5 -9 25q-9 21 -9 36q0 25 28 44q29 20 58 20q24 0 24 -47q0 -57 -12.5 -104t-41.5 -83
q-23 -29 -47.5 -54.5t-47.5 -53.5q-16 -18 -25 -56q-3 -14 -6 -29t-6 -29q-2 -9 -12 -28q-7 -13 -7 -26q0 -21 23 -21h616q52 0 52 32q0 11 -8 30q-7 13 -10 20.5t-4 9.5q-2 14 -5.5 35t-13.5 48q-8 22 -24.5 43.5t-38.5 44.5q-49 54 -62 78q-28 52 -28 134q0 50 28 50
q27 0 54 -12q34 -15 34 -39q0 -16 -10 -36t-10 -33q0 -21 61 -39q52 -15 81 -15q31 0 31 38zM587 440q0 -41 -67 -41h-110q-58 0 -58 39v87q34 -5 63.5 -7.5t55.5 -2.5q25 0 53.5 2t62.5 6v-83zM633 203q0 -35 -13 -65t-35.5 -52t-52.5 -34t-65 -12t-65 12.5t-52.5 34
t-35.5 51.5t-13 65t12.5 65.5t35 52.5t53 34.5t65.5 12.5q36 0 66 -12.5t52.5 -34.5t35 -52.5t12.5 -65.5zM562 502q-17 -4 -40 -5.5t-52 -1.5q-54 0 -94 9v-62q0 -22 37 -22h111q38 0 38 23v59zM604 204q0 28 -10 54t-28 45t-43 30.5t-55 11.5t-55.5 -11t-44 -29.5
t-29 -44.5t-10.5 -56t9.5 -55.5t27.5 -44.5t43 -29.5t56 -10.5q30 0 55 11t44 29.5t29.5 44t10.5 55.5z" />
    <glyph glyph-name="uni261C" unicode="&#x261c;" horiz-adv-x="940" 
d="M780 187v21h-26q-13 -6 -25.5 -12t-25.5 -11q-26 -11 -54.5 -19t-60.5 -13q-31 -4 -112 -3q-74 2 -77 3q-20 0 -36 9q-19 10 -19 29q0 20 16 26q-22 0 -32 16q-6 9 -6 18q0 14 11 28q-12 0 -23.5 10t-12.5 22q0 36 81 39l-3 8q-23 1 -65 3t-103 5q-74 3 -75 4
q-49 7 -46 40q2 27 50 32q17 2 33 2t32 1q46 2 115.5 3.5t166.5 1.5q89 0 116 -3q75 -11 124 -55q2 -3 59 -5v31h73v-231h-75zM782 370q-1 0 -6.5 0.5l-16.5 1.5q-6 1 -11 1h-10q4 -9 4 -16q0 -3 -2 -3t-20 19q-22 21 -44 35q-43 28 -159 28q-18 0 -21 -1q-42 -9 -65 -24
q-11 -6 -21 -25q-11 -20 -20 -26q-1 -1 2.5 -4t10.5 -3t18 3q9 4 25 18q16 15 19 15q2 0 3 -1q3 -6 -4 -15q0 -2 17 -4q16 -2 24 0q5 2 11.5 4t13.5 6q13 7 14 7q2 0 2 -1q2 -10 -14 -23q5 -5 10.5 -10t11.5 -10q24 -21 55 -31q25 -7 65 -12q26 -5 26 -9q0 -6 -31 -5
q-30 2 -55 9q-41 12 -72 39l-26 26q-17 -3 -22 -3q-24 0 -42 7l-14 -13q8 -2 15.5 -3.5t14.5 -3.5q31 -9 33 -17q3 -8 3 -13q0 -14 -14 -28q9 0 20.5 -11.5t11.5 -20.5q0 -14 -16 -26q11 -3 16 -7q15 -9 16 -22q1 -18 -13 -32h4t8 -1h12t10 1q36 2 72 11.5t73 25.5
q55 22 58 27v-11q1 -1 20 0v151zM445 435q-61 0 -121.5 -1t-121.5 -3q-28 -1 -46.5 -2t-26.5 -3q-26 -5 -27 -19q0 -15 23 -21q17 -3 77 -6q39 -2 84.5 -3.5t99.5 -3.5q3 4 8 11.5t12 18.5q10 18 39 32zM839 401h-43v-198h43v198zM480 293q9 7 9 17q0 19 -28 23q-36 7 -87 3
q-34 1 -53 -12q-6 -5 -6 -12q0 -20 23 -20q2 -2 56 -2q78 0 86 3zM506 253q0 23 -44 23h-96q-10 0 -18.5 -7.5t-8.5 -15.5q0 -12 14 -20q2 -1 15.5 -2t36.5 -2q43 -2 48 0q17 0 30 4q22 6 23 16v4zM522 197q-3 17 -31 17h-48h-26.5t-35.5 -1q-19 -1 -19 -20q0 -16 13 -20
q16 -5 63 -6q45 0 47 2q11 0 23 6q17 9 14 22z" />
    <glyph glyph-name="uni261E" unicode="&#x261e;" horiz-adv-x="940" 
d="M158 418v-31q55 1 59 5q49 44 124 55q27 3 116 3q97 0 166.5 -1.5t115.5 -3.5q16 -1 32 -1t33 -2q48 -5 50 -32q3 -33 -46 -40q-1 -1 -75 -4q-61 -3 -103 -5t-65 -3l-3 -8q81 -3 81 -39q-1 -12 -12.5 -22t-23.5 -10q11 -14 11 -28q0 -9 -6 -18q-10 -16 -32 -16
q16 -6 16 -26q0 -19 -19 -29q-17 -9 -36 -9q-3 -1 -77 -3q-81 -1 -112 3q-59 9 -115 32q-13 5 -25.5 11t-25.5 12h-26v-21h-75v231h73zM158 219q19 -1 20 0v11q2 -5 58 -27q37 -16 73 -25.5t72 -11.5q5 -1 10 -1h12q5 1 8 1h4q-14 14 -13 32q1 13 16 22q5 4 16 7
q-16 12 -16 26q0 9 11.5 20.5t20.5 11.5q-14 14 -14 28q0 5 3 13q2 8 33 17q7 2 14.5 3.5t15.5 3.5l-14 13q-18 -7 -42 -7q-6 0 -22 3l-26 -26q-32 -27 -72 -39q-25 -7 -55 -9q-31 -1 -31 5q0 4 26 9q40 5 65 12q31 10 55 31q6 5 11.5 10t10.5 10q-16 13 -14 23q0 1 2 1
q1 0 14 -7q7 -4 13.5 -6t11.5 -4q7 -2 24 0t17 4q-7 9 -4 15q1 1 3 1t19 -15q16 -14 25 -18q10 -3 18 -3q7 0 10.5 3t2.5 4q-9 6 -20 26q-10 19 -21 25q-23 15 -65 24q-3 1 -21 1q-116 0 -159 -28q-23 -14 -44 -35q-18 -19 -20 -19t-2 3q0 7 4 16h-10t-11 -1l-16.5 -1.5
t-6.5 -0.5v-151zM495 435q29 -14 39 -32q7 -11 12 -18.5t8 -11.5q54 2 99.5 3.5t84.5 3.5q60 3 77 6q23 6 23 21q-1 14 -27 19q-8 2 -26.5 3t-46.5 2q-61 2 -121.5 3t-121.5 1zM144 401h-43v-198h43v198zM460 293q7 -3 86 -3q54 0 56 2q23 0 23 20q0 7 -6 12q-19 13 -53 12
q-51 4 -87 -3q-28 -4 -28 -23q0 -10 9 -17zM434 249q1 -10 23 -16q13 -4 30 -4q4 -2 48 0q23 1 36.5 2t15.5 2q14 8 14 20q0 8 -8.5 15.5t-18.5 7.5h-96q-44 0 -44 -23v-4zM418 197q-3 -13 14 -22q12 -6 23 -6q2 -2 47 -2q46 1 63 6q13 4 13 20q0 19 -19 20q-20 1 -35.5 1
h-26.5h-48q-28 0 -31 -17z" />
    <glyph glyph-name="female" unicode="&#x2640;" horiz-adv-x="630" 
d="M539 496q0 -41 -15 -78.5t-41 -66.5t-60.5 -49t-72.5 -27v-123h184v-72h-184v-199h-70v199h-183v72h183v123q-39 6 -74 25.5t-60.5 49t-40.5 67t-15 79.5q0 47 17.5 88t48 71t71 47.5t87.5 17.5t88 -17.5t71.5 -48t48 -71.5t17.5 -87zM468 496q0 32 -12.5 60t-33.5 48.5
t-49 32.5t-59 12t-58.5 -11.5t-48.5 -31.5t-33.5 -48.5t-12.5 -61.5q0 -35 12.5 -63t33.5 -48t49 -31t58 -11q31 0 59 11.5t49 32t33.5 48.5t12.5 61z" />
    <glyph glyph-name="male" unicode="&#x2642;" horiz-adv-x="630" 
d="M540 102q0 -48 -18 -89t-48.5 -71t-72 -47t-87.5 -17t-86.5 17.5t-71 47.5t-48.5 71t-18 88q0 42 14.5 79.5t39.5 67t59.5 49t73.5 25.5v264l-139 -153l-49 43l225 252l208 -255l-49 -48l-125 156v-258q39 -6 74 -25.5t61.5 -49t41.5 -67t15 -80.5zM468 103q0 31 -12 59
t-33 49t-49 33t-59 12t-58.5 -12t-48.5 -32.5t-33.5 -48.5t-12.5 -60q0 -33 12.5 -61t33.5 -48.5t48.5 -32t58.5 -11.5t59 12t49 32.5t33 48.5t12 60z" />
    <glyph glyph-name="spade" unicode="&#x2660;" horiz-adv-x="940" 
d="M597 -121h-254v36q9 16 18 37t16.5 43.5t12.5 44.5t7 40q-77 -43 -123 -43q-31 0 -56.5 11t-43.5 31.5t-28 48.5t-10 61q0 84 85.5 221.5t248.5 311.5q163 -174 248.5 -311.5t85.5 -221.5q0 -33 -10 -61t-28 -48.5t-43.5 -31.5t-56.5 -11q-46 0 -123 43q2 -18 7 -40
t12.5 -44.5t16.5 -43.5t18 -37v-36z" />
    <glyph glyph-name="uni2661" unicode="&#x2661;" horiz-adv-x="940" 
d="M467 -74q-88 55 -158.5 124t-120 142.5t-76 146.5t-26.5 136q0 45 12.5 82.5t36.5 64.5t59.5 42.5t80.5 15.5q72 0 120.5 -42.5t71.5 -127.5q23 85 71.5 127.5t120.5 42.5q45 0 80.5 -15.5t59.5 -42.5t36.5 -64.5t12.5 -82.5q0 -63 -25 -134.5t-74 -144t-120 -142.5
t-162 -128zM467 -9q32 17 68.5 46.5t72.5 67.5t68.5 82.5t57.5 92t40 96t15 95.5q0 74 -35 117t-99 43q-52 0 -86 -36.5t-52 -87.5q-8 -21 -18.5 -36t-30.5 -15q-22 0 -32.5 15t-18.5 36q-18 51 -52 87.5t-86 36.5q-64 0 -99 -43t-35 -117q0 -46 15 -95t40 -96.5t57.5 -92
t68.5 -82.5t72 -67.5t69 -46.5z" />
    <glyph glyph-name="club" unicode="&#x2663;" horiz-adv-x="940" 
d="M343 -75q15 28 30.5 61t20.5 66q2 12 0.5 16.5t-5.5 5.5q-6 1 -15 -6t-17 -13q-29 -23 -55 -33.5t-65 -10.5q-40 0 -73 15.5t-56 41.5t-36 60.5t-13 73.5t13 73t36.5 58.5t55 38.5t68.5 14q27 0 60 -8.5t65 -26.5q5 -3 12 -4t11 6t1 12t-8 10q-22 20 -39.5 38.5t-29.5 38
t-18 42.5t-6 53q0 39 16 70.5t42 54t60.5 35t71.5 12.5t71.5 -12.5t60.5 -35t42 -54t16 -70.5q0 -30 -6 -53t-18 -42.5t-29.5 -38t-39.5 -38.5q-5 -5 -8 -10t1 -12t11 -6t12 4q32 18 65 26.5t60 8.5q37 0 68.5 -14t54.5 -38.5t36.5 -58.5t13.5 -73t-13 -73.5t-36 -60.5
t-56 -41.5t-73 -15.5q-39 0 -65 10.5t-55 33.5q-8 6 -17 13t-15 6q-4 -1 -5.5 -5.5t0.5 -16.5q5 -33 20.5 -66t30.5 -61v-36h-254v36z" />
    <glyph glyph-name="uni2664" unicode="&#x2664;" horiz-adv-x="940" 
d="M597 -121h-254v36q9 16 18 37t16.5 43.5t12.5 44.5t7 40q-77 -43 -123 -43q-31 0 -56.5 11t-43.5 31.5t-28 48.5t-10 61q0 84 85.5 221.5t248.5 311.5q163 -174 248.5 -311.5t85.5 -221.5q0 -33 -10 -61t-28 -48.5t-43.5 -31.5t-56.5 -11q-46 0 -123 43q2 -18 7 -40
t12.5 -44.5t16.5 -43.5t18 -37v-36zM747 190q0 31 -15 72t-39 85t-54.5 89t-61.5 85t-59 72.5t-48 52.5q-20 -19 -48.5 -52t-59 -73t-61 -85t-54.5 -89t-39 -85t-15 -72q0 -42 19 -71t62 -29q9 0 18.5 2t22 6.5t28.5 12.5t37 21t39 13q14 0 22.5 -9.5t8.5 -33.5
q0 -17 -2.5 -37t-6.5 -41t-10.5 -41t-13.5 -38v-17h106v17q-8 18 -14 38t-10.5 41t-7 41t-2.5 37q0 24 9 33.5t23 9.5q18 0 39 -13t37 -21t28.5 -12.5t22 -6.5t18.5 -2q43 0 62 29t19 71z" />
    <glyph glyph-name="heart" unicode="&#x2665;" horiz-adv-x="940" 
d="M467 -74q-88 55 -158.5 124t-120 142.5t-76 146.5t-26.5 136q0 45 12.5 82.5t36.5 64.5t59.5 42.5t80.5 15.5q72 0 120.5 -42.5t71.5 -127.5q23 85 71.5 127.5t120.5 42.5q45 0 80.5 -15.5t59.5 -42.5t36.5 -64.5t12.5 -82.5q0 -63 -25 -134.5t-74 -144t-120 -142.5
t-162 -128z" />
    <glyph glyph-name="uni2667" unicode="&#x2667;" horiz-adv-x="940" 
d="M343 -75q15 28 30.5 61t20.5 66q2 12 0.5 16.5t-5.5 5.5q-6 1 -15 -6t-17 -13q-29 -23 -55 -33.5t-65 -10.5q-40 0 -73 15.5t-56 41.5t-36 60.5t-13 73.5t13 73t36.5 58.5t55 38.5t68.5 14q27 0 60 -8.5t65 -26.5q5 -3 12 -4t11 6t1 12t-8 10q-22 20 -39.5 38.5t-29.5 38
t-18 42.5t-6 53q0 39 16 70.5t42 54t60.5 35t71.5 12.5t71.5 -12.5t60.5 -35t42 -54t16 -70.5q0 -30 -6 -53t-18 -42.5t-29.5 -38t-39.5 -38.5q-5 -5 -8 -10t1 -12t11 -6t12 4q32 18 65 26.5t60 8.5q37 0 68.5 -14t54.5 -38.5t36.5 -58.5t13.5 -73t-13 -73.5t-36 -60.5
t-56 -41.5t-73 -15.5q-39 0 -65 10.5t-55 33.5q-8 6 -17 13t-15 6q-4 -1 -5.5 -5.5t0.5 -16.5q5 -33 20.5 -66t30.5 -61v-36h-254v36zM523 -45q-8 18 -14 38t-10 41t-6.5 41t-2.5 37t7 27.5t17.5 13.5t23 -0.5t24.5 -14.5q31 -29 63 -49.5t77 -20.5q29 0 51.5 10.5t38.5 29
t24 43t8 52.5q0 25 -8.5 49t-23.5 42.5t-36.5 29.5t-48.5 11q-44 0 -88 -23q-13 -7 -31 -14.5t-37 -8.5q-14 -1 -26 4t-21 18q-15 22 -8.5 46.5t26.5 44.5q21 21 36.5 37t25.5 31.5t14.5 33.5t4.5 43q0 54 -38 86.5t-95 32.5t-95 -32.5t-38 -86.5q0 -25 4.5 -43t14.5 -33.5
t25.5 -31.5t36.5 -37q20 -20 26.5 -44.5t-8.5 -46.5q-9 -13 -21 -18t-26 -4q-19 1 -37 8.5t-31 14.5q-44 23 -88 23q-27 0 -48.5 -11t-36.5 -29.5t-23.5 -42.5t-8.5 -49q0 -28 8 -52.5t24 -43t38.5 -29t51.5 -10.5q45 0 77 20.5t63 49.5q12 11 24.5 14.5t23 0.5t17.5 -13.5
t7 -27.5t-2.5 -37t-6.5 -41t-10.5 -41t-13.5 -38v-17h106v17z" />
    <glyph glyph-name="uni2668" unicode="&#x2668;" horiz-adv-x="940" 
d="M665 248q0 -45 -36 -114q-20 -39 -32 -67t-14 -45h-13q-8 32 -8 55q0 17 3 40t10 51q7 31 10.5 53.5t3.5 38.5q0 43 -22 109t-22 106q0 22 33 91q17 38 27.5 63t13.5 37h11q7 -14 7 -47q0 -12 -2 -30t-6 -42q-4 -23 -6 -41t-2 -31q0 -48 22 -115t22 -112zM538 260
q0 -51 -38 -125q-25 -48 -39.5 -77.5t-18.5 -43.5h-15q-2 10 -3.5 21.5t-1.5 25.5q0 38 19 95q19 58 19 97t-24 113q-24 73 -24 111q0 48 33 119q36 73 39 116h13q18 -38 18 -75q0 -27 -15 -79q-15 -51 -15 -76q0 -29 26 -109q27 -74 27 -113zM397 248q0 -44 -36 -113
q-20 -38 -32 -66.5t-14 -45.5h-12q-9 19 -9 56q0 39 13 90q7 28 10 51t3 41q0 38 -21 109q-20 78 -20 107q0 21 32 90q17 35 27.5 60t12.5 40h11q6 -20 6 -47q0 -13 -2 -31.5t-6 -43.5t-6 -43t-2 -31q0 -46 22 -113q23 -80 23 -110zM872 90q0 -42 -20.5 -73t-54.5 -54
t-77 -37.5t-89 -23.5t-90.5 -12.5t-80.5 -3.5q-33 0 -74.5 3.5t-85 12t-85.5 22.5t-74.5 35.5t-52.5 50.5t-20 68q0 34 22 62.5t54 50.5t69.5 36.5t69.5 20.5l4 -13q-19 -6 -44.5 -20t-49 -32.5t-39.5 -39.5t-16 -41q0 -27 17.5 -46.5t45 -33t63 -21.5t71 -12t68.5 -5.5
t57 -1.5q25 0 60.5 1.5t74 6t76.5 13t68.5 23t49.5 35.5t19 51q0 28 -29 58.5t-92 56.5l7 12q26 -5 57 -18.5t58 -33t45 -44.5t18 -53z" />
    <glyph glyph-name="uni2669" unicode="&#x2669;" horiz-adv-x="400" 
d="M288 73q0 -28 -13 -56t-34.5 -50.5t-49 -36.5t-55.5 -14q-65 0 -65 58q0 19 10.5 37t28.5 32.5t41 23.5t47 9q5 0 11 -0.5t12 -0.5q11 0 20 5t9 23v608h38v-638v0z" />
    <glyph glyph-name="musicalnote" unicode="&#x266a;" horiz-adv-x="600" 
d="M252 709q30 -48 68 -86.5t95 -80.5q31 -23 54 -45t39 -46.5t24 -53.5t8 -66q0 -36 -12 -70t-32 -64t-46.5 -56.5t-55.5 -47.5l-8 8q54 60 78 113t24 93q0 44 -35 82q-13 16 -37 33.5t-50.5 36t-50.5 37t-38 35.5v-458q0 -28 -13 -56t-34.5 -50.5t-49 -36.5t-55.5 -14
q-65 0 -65 58q0 19 10.5 37t28.5 32.5t41 23.5t47 9q5 0 11 -0.5t12 -0.5q11 0 20 5t9 23v606h13z" />
    <glyph glyph-name="uni266C" unicode="&#x266c;" horiz-adv-x="840" 
d="M283 364v-291q0 -28 -13 -56t-34.5 -50.5t-49 -36.5t-55.5 -14q-65 0 -65 58q0 19 10.5 37t28.5 32.5t41 23.5t47 9q5 0 11 -0.5t12 -0.5q11 0 20 5t9 23v522l484 105v-549q0 -28 -13 -56t-34.5 -50.5t-49 -36.5t-55.5 -14q-65 0 -65 58q0 19 10.5 37t28.5 32.5t41 23.5
t47 9q5 0 11 -0.5t12 -0.5q11 0 20 5t9 23v242zM691 619l-408 -91v-65l408 96v60z" />
    <glyph glyph-name="uni266D" unicode="&#x266d;" horiz-adv-x="580" 
d="M477 302q0 -74 -32 -135t-84.5 -104.5t-120 -68.5t-138.5 -26v718h95v-313q25 31 60.5 49.5t79.5 18.5q66 0 103 -36t37 -103zM387 271q0 19 -2.5 36t-10.5 29.5t-22.5 20t-38.5 7.5q-21 0 -40 -10.5t-34.5 -26.5t-27 -35.5t-17.5 -38.5v-200q41 10 76 30.5t61 49t41 64
t15 74.5z" />
    <glyph glyph-name="uni3001" unicode="&#x3001;" horiz-adv-x="940" 
d="M67 37v75l226 -97v-122z" />
    <glyph glyph-name="uni3002" unicode="&#x3002;" horiz-adv-x="940" 
d="M306 0q0 -23 -8.5 -43.5t-24 -35.5t-36 -24t-44.5 -9q-23 0 -43.5 9t-36 24t-24.5 35.5t-9 43.5q0 24 9 44.5t24.5 36t36 24t43.5 8.5t43.5 -9t36 -24t24.5 -35.5t9 -44.5zM278 0q0 18 -6.5 33.5t-18 27t-27 18.5t-33.5 7t-33.5 -7t-27 -18.5t-18 -27t-6.5 -33.5
q0 -35 25 -60t60 -25t60 25t25 60z" />
    <glyph glyph-name="uni3003" unicode="&#x3003;" horiz-adv-x="940" 
d="M512 128h-47l88 323h96zM338 128h-47l88 323h96z" />
    <glyph glyph-name="uni3008" unicode="&#x3008;" horiz-adv-x="550" 
d="M166 300l312 -379l-46 -36l-342 415l342 415l45 -37z" />
    <glyph glyph-name="uni3009" unicode="&#x3009;" horiz-adv-x="550" 
d="M70 -79l311 379l-310 378l45 37l342 -415l-342 -415z" />
    <glyph glyph-name="uni300A" unicode="&#x300a;" horiz-adv-x="600" 
d="M156 300l254 -388l-48 -27l-272 415l272 415l48 -27zM295 300l254 -388l-48 -27l-272 415l272 415l48 -27z" />
    <glyph glyph-name="uni300B" unicode="&#x300b;" horiz-adv-x="600" 
d="M199 -88l253 388l-253 388l48 27l272 -415l-272 -415zM60 -88l253 388l-253 388l48 27l272 -415l-272 -415z" />
    <glyph glyph-name="uni300C" unicode="&#x300c;" horiz-adv-x="450" 
d="M400 672h-221v-357h-79v425h300v-68z" />
    <glyph glyph-name="uni300D" unicode="&#x300d;" horiz-adv-x="450" 
d="M350 -139h-301v68h222v367h79v-435z" />
    <glyph glyph-name="uni300E" unicode="&#x300e;" horiz-adv-x="450" 
d="M400 608h-158v-293h-142v424h300v-131zM348 657v32h-196v-325h37v293h159z" />
    <glyph glyph-name="uni300F" unicode="&#x300f;" horiz-adv-x="450" 
d="M350 -139h-301v131h159v304h142v-435zM298 -90v337h-38v-304h-159v-33h197z" />
    <glyph glyph-name="uni3010" unicode="&#x3010;" horiz-adv-x="460" 
d="M111 -123v847h299q-40 -33 -72 -79.5t-54 -102t-34 -117t-12 -123.5t11.5 -124t33.5 -117.5t54 -103t73 -80.5h-299z" />
    <glyph glyph-name="uni3011" unicode="&#x3011;" horiz-adv-x="460" 
d="M51 -123q41 33 73 80.5t54 103t33.5 117.5t11.5 124t-12 123.5t-34 117t-54 102t-72 79.5h299v-847h-299z" />
    <glyph glyph-name="uni3013" unicode="&#x3013;" horiz-adv-x="940" 
d="M52 380v66h836v-66h-836zM52 141v66h836v-66h-836z" />
    <glyph glyph-name="uni3014" unicode="&#x3014;" horiz-adv-x="500" 
d="M385 -105l-23 -54l-227 101v717l227 101l23 -54l-183 -84v-643z" />
    <glyph glyph-name="uni3015" unicode="&#x3015;" horiz-adv-x="500" 
d="M308 -21v643l-183 84l23 54l227 -101v-717l-227 -101l-23 54z" />
    <glyph glyph-name="uni3041" unicode="&#x3041;" horiz-adv-x="760" 
d="M311 -100q-4 11 -7 20.5t-6 20.5q-26 -14 -53 -22t-53 -8q-23 0 -45.5 7t-40 22.5t-28.5 41t-11 61.5q0 39 14 72t38 61t56.5 49.5t70.5 37.5q-3 55 -3 112q-37 -1 -74 -0.5t-75 1.5v72q38 -2 75.5 -2t75.5 1q1 28 3.5 55.5t5.5 56.5h76q-4 -27 -6 -54.5t-4 -55.5
q63 3 125.5 9t125.5 14v-73q-63 -8 -126 -13.5t-128 -8.5q0 -23 0.5 -44.5t1.5 -44.5q30 8 61 12t60 4q52 0 100.5 -11t86 -35t60 -63.5t22.5 -96.5q0 -51 -21 -89t-55 -64t-78 -42t-89 -24l-17 70q28 5 60 15.5t59.5 28.5t46 43.5t18.5 61.5q0 45 -21 73.5t-69 51.5
q-13 -29 -32 -61t-42 -63t-50.5 -60t-56.5 -53q4 -15 8 -29.5t9 -28.5zM143 46q0 -32 15.5 -46.5t37.5 -14.5q21 0 42.5 7.5t41.5 20.5q-9 43 -16 87.5t-12 90.5q-48 -23 -78.5 -59t-30.5 -86zM471 237q-33 2 -71.5 -2.5t-76.5 -15.5q8 -81 21 -155q23 22 43 47t36.5 48.5
t29 43.5t18.5 34z" />
    <glyph glyph-name="uni3042" unicode="&#x3042;" 
d="M363 -106q-5 16 -8 31.5t-7 31.5q-30 -17 -61.5 -26t-63.5 -9q-73 0 -114.5 47t-41.5 125q0 48 17.5 89t48.5 75t72.5 60.5t88.5 44.5q-2 34 -2 67.5t1 67.5q-47 -1 -91 -1t-83 2v72q39 -2 83.5 -2t92.5 1q2 37 5.5 73.5t8.5 74.5h80q-5 -37 -8.5 -73.5t-5.5 -72.5
q84 2 164 8t146 15v-73q-66 -8 -147 -13.5t-166 -8.5q-2 -56 0 -112q38 9 76 14t76 5q57 0 116.5 -13t107.5 -42t78.5 -76.5t30.5 -116.5q0 -61 -22.5 -106.5t-61 -77.5t-89.5 -52.5t-108 -30.5l-23 79q37 7 76.5 19.5t72 34t53 54t20.5 80.5q0 31 -11 57t-30 47t-44.5 35.5
t-55.5 22.5q-12 -36 -33 -78.5t-49 -84.5t-62.5 -82t-73.5 -72q5 -23 10.5 -45.5t12.5 -45.5zM229 2q26 0 51.5 8.5t50.5 24.5q-23 123 -33 249q-33 -15 -61 -34.5t-48.5 -43.5t-32 -51.5t-11.5 -59.5q0 -38 21 -65.5t63 -27.5zM554 333q-42 2 -87.5 -2.5t-91.5 -18.5
q6 -113 24 -222q48 48 88 112.5t67 130.5z" />
    <glyph glyph-name="uni3043" unicode="&#x3043;" horiz-adv-x="720" 
d="M397 100q-23 -51 -44.5 -85t-42 -54t-41 -28t-39.5 -8q-47 0 -77 26.5t-47 69t-23.5 95.5t-6.5 107q0 66 6.5 123.5t11.5 88.5l82 -7q-2 -15 -5 -39.5t-6 -54t-5 -62t-2 -65.5q0 -37 3.5 -73t11.5 -64.5t22 -46t35 -17.5q23 0 47.5 35t50.5 95zM578 6q-6 40 -13.5 85
t-19.5 91.5t-29.5 92.5t-41.5 89l74 35q52 -85 77.5 -181t33.5 -183z" />
    <glyph glyph-name="uni3044" unicode="&#x3044;" horiz-adv-x="800" 
d="M433 169q-38 -121 -86 -179t-98 -58q-53 0 -86.5 36.5t-52 95t-25.5 131.5t-7 146q0 44 2 85.5t4 78t4.5 66t4.5 49.5l89 -7q-2 -12 -4.5 -40.5t-5 -67t-4.5 -85t-2 -94.5q0 -55 3.5 -109.5t12.5 -98t25 -71t41 -27.5q13 0 26.5 13t26.5 36.5t26 55.5t24 70zM650 51
q-8 126 -34.5 247t-86.5 239l78 30q68 -117 98.5 -245t35.5 -248z" />
    <glyph glyph-name="uni3045" unicode="&#x3045;" horiz-adv-x="600" 
d="M194 -43q42 10 87 25t83 38.5t62.5 57.5t24.5 84q0 34 -10 57.5t-28 37.5t-41.5 20t-50.5 6q-30 0 -63 -6t-64.5 -15.5t-60 -20.5t-49.5 -21l-23 78q25 13 56 24.5t65 20.5t69 14t69 5q43 0 82 -10t68 -33t46.5 -61.5t17.5 -95.5q0 -64 -28 -110.5t-72.5 -79.5
t-101 -54.5t-113.5 -34.5zM435 437q-36 4 -75 9.5t-78.5 12.5t-77 15t-69.5 18l21 75q28 -9 65 -17t76.5 -15t78 -12t70.5 -8z" />
    <glyph glyph-name="uni3046" unicode="&#x3046;" horiz-adv-x="700" 
d="M221 -48q53 9 111 26t106 47t79.5 77.5t31.5 118.5q0 43 -13.5 72t-37.5 47t-55.5 25.5t-67.5 7.5q-37 0 -76.5 -6.5t-77.5 -16t-72 -21.5t-60 -22l-25 86q31 12 67.5 23.5t75.5 20.5t80 14.5t81 5.5q56 0 105 -11.5t85 -39t57 -73t21 -112.5q0 -85 -32 -146t-86 -102.5
t-125.5 -66t-150.5 -36.5zM518 550q-42 4 -88 10.5t-91.5 14.5t-89.5 17.5t-81 21.5l25 81q33 -11 76 -20.5t88.5 -17t91 -13t82.5 -9.5z" />
    <glyph glyph-name="uni3047" unicode="&#x3047;" horiz-adv-x="670" 
d="M66 -34q93 76 172.5 157.5t151.5 166.5q-60 -10 -130.5 -14.5t-145.5 -5.5l-3 76q75 1 162 5.5t180 14.5l48 -57q-38 -47 -76 -91.5t-78 -88.5q19 6 39 6q26 0 44.5 -17.5t23.5 -60.5q2 -20 4 -34.5t8 -24t18 -14t33 -4.5q32 0 64.5 2t61.5 6v-77q-27 -3 -60.5 -4.5
t-67.5 -1.5q-42 0 -66.5 9t-37 25t-17.5 39t-9 52q-1 7 -3 14.5t-6 14t-11.5 11t-20.5 4.5q-11 0 -27 -4t-39 -14q-38 -39 -76.5 -76t-78.5 -73zM462 437q-36 4 -75 9.5t-78.5 12.5t-77 15t-69.5 18l21 75q28 -9 65 -17t76.5 -15t78 -12t70.5 -8z" />
    <glyph glyph-name="uni3048" unicode="&#x3048;" horiz-adv-x="820" 
d="M608 415q-45 -60 -91 -116.5t-95 -113.5q20 5 36 5q35 0 61 -22.5t33 -82.5q3 -27 6 -47t11 -33.5t23.5 -20t42.5 -6.5q42 0 84.5 3t80.5 8v-82q-35 -4 -80.5 -6t-90.5 -2q-54 0 -85 12t-47.5 34.5t-23 53t-12.5 68.5q-2 9 -4 19t-7.5 19t-15.5 14.5t-27 5.5
q-19 0 -48 -10q-54 -58 -110 -114t-115 -112l-59 60q121 105 222 217.5t186 227.5q-91 -13 -179.5 -19t-173.5 -6v84q97 0 202 8t223 23zM544 550q-42 4 -88 10.5t-91.5 14.5t-89.5 17.5t-81 21.5l25 81q33 -11 76 -20.5t88.5 -17t91 -13t82.5 -9.5z" />
    <glyph glyph-name="uni3049" unicode="&#x3049;" horiz-adv-x="760" 
d="M260 352q-81 -3 -164 0v72q42 -2 82 -2t82 1v128h74v-125l70 4t70 6v-72q-35 -3 -70 -5.5t-70 -4.5v-101q32 8 62.5 12t51.5 4q45 0 87 -11t74.5 -34.5t52 -59.5t19.5 -85q0 -37 -10 -68.5t-30.5 -55t-50 -36.5t-68.5 -13q-30 0 -61.5 8t-57.5 24l27 64q24 -9 47.5 -15
t47.5 -6q38 0 60 28.5t22 70.5q0 31 -13 53.5t-35 37.5t-51 22t-60 7q-24 0 -52 -4t-62 -15v-178q0 -59 -38 -86.5t-96 -27.5q-31 0 -55.5 11t-42 30t-26.5 44.5t-9 55.5q0 38 17 71t44 59t61.5 44.5t70.5 29.5v118zM260 160q-20 -8 -41 -19.5t-38 -27.5t-28.5 -36
t-11.5 -45q0 -31 14 -50.5t45 -19.5q29 0 44.5 13.5t15.5 45.5v139zM654 271q-9 21 -21.5 45.5t-26.5 48.5t-28.5 46t-27.5 39l59 36q13 -16 28.5 -38t30 -46t27.5 -48t22 -44z" />
    <glyph glyph-name="uni304A" unicode="&#x304a;" horiz-adv-x="880" 
d="M555 472q-40 -4 -88 -6.5t-99 -4.5v-126q87 21 166 21q53 0 102.5 -13t88 -40t61.5 -69.5t23 -100.5q0 -48 -14.5 -88.5t-42.5 -69.5t-70 -45t-97 -16q-32 0 -65 5.5t-62 16.5l18 78q29 -11 55.5 -15t51.5 -4q63 0 103 34.5t40 103.5q0 38 -17 65.5t-44 45t-61.5 26
t-69.5 8.5q-73 0 -166 -26v-223q0 -36 -12 -61.5t-32 -41t-46 -23t-55 -7.5q-75 0 -115 42t-40 119q0 46 19.5 87t51 74.5t71 58t78.5 38.5v144q-47 -1 -91.5 -0.5t-82.5 1.5v78q38 -2 82 -2t92 1v165h80v-163q51 2 98.5 4.5t88.5 6.5v-78zM288 232q-24 -9 -49 -25.5
t-46 -39t-34 -50t-13 -58.5q0 -35 17.5 -60t60.5 -25q27 0 45.5 12.5t18.5 48.5v197zM738 400q-9 21 -22.5 47t-28.5 52t-30 49.5t-28 40.5l69 36q13 -16 29 -39.5t32 -49.5t29.5 -51.5t22.5 -45.5z" />
    <glyph glyph-name="uni304B" unicode="&#x304b;" horiz-adv-x="870" 
d="M354 691q-5 -46 -11 -91t-14 -90h11t11 1q72 3 119.5 -8.5t75.5 -40.5t39 -76.5t11 -115.5q0 -27 -1 -64.5t-6.5 -77t-17.5 -78.5t-34 -69.5t-55.5 -49.5t-81.5 -19q-29 0 -64.5 4.5t-60.5 13.5l14 79q50 -14 108 -14q28 0 47.5 14.5t32 37.5t20 52.5t11 60.5t4 59.5
t0.5 50.5q0 45 -5 76.5t-21.5 51t-47 27.5t-81.5 6q-11 -1 -21.5 -1.5t-21.5 -1.5q-27 -131 -68 -256t-99 -246l-78 33q57 112 96 226.5t65 234.5q-45 -5 -87.5 -12t-83.5 -15l-8 82q45 8 95 15.5t100 12.5q8 48 14.5 96t11.5 98zM734 163q-6 40 -13.5 85t-19.5 91.5
t-29.5 92.5t-41.5 89l74 35q52 -85 77.5 -181t33.5 -183z" />
    </font>
</defs>
</svg>
